<svg xmlns="http://www.w3.org/2000/svg" width="250.39" height="172.47"><path fill-rule="evenodd" clip-rule="evenodd" fill="#FCFCFC" d="M60.45 137.81c-.11.9-.63 1.16-1.96.95l.18-.84c.59-.04 1.18-.08 1.78-.11z"/><path fill-rule="evenodd" clip-rule="evenodd" fill="#050505" d="M24.46 125.5c-.88-.89-1.77-1.77-2.65-2.65 1.2.57 2.19 1.34 2.65 2.65z"/><path fill-rule="evenodd" clip-rule="evenodd" fill="#FCFCFC" d="M109.78 29.05c-.29.3-.58.61-.86.91l-1.24 1.08c.06-.99 1.02-1.9 2.1-1.99z"/><path fill-rule="evenodd" clip-rule="evenodd" fill="#FCFCFC" d="M93.61 38.07c-.3-.67-.6-1.33-.9-1.99.94.41 1.38 1.38.9 1.99z"/><path fill-rule="evenodd" clip-rule="evenodd" fill="#FCFCFC" d="M57.26 137.92c-.21.25-.4.68-.63.7-.24.03-.52-.35-.78-.55l1.41-.15z"/><path fill-rule="evenodd" clip-rule="evenodd" fill="#FCFCFC" d="M51.44 137.9l-.66.57c-.19-.26-.37-.52-.55-.79.4.08.8.15 1.21.22z"/><path fill-rule="evenodd" clip-rule="evenodd" fill="#FCFCFC" d="M113.72 26.47l-1.24.69c.13-1.03.35-1.16 1.24-.69z"/><path fill-rule="evenodd" clip-rule="evenodd" fill="#FCFCFC" d="M104.04 36.65c-.11.27-.23.54-.35.81l-.4-.53.75-.28z"/><path fill-rule="evenodd" clip-rule="evenodd" fill="#FCFCFC" d="M92.33 33.99l-.41.48c-.15-.28-.31-.56-.47-.83l.88.35z"/><path fill-rule="evenodd" clip-rule="evenodd" fill="#FCFCFC" d="M115.11 25.82c-.27.12-.54.24-.81.37l.28-.7.53.33z"/><path fill-rule="evenodd" clip-rule="evenodd" fill="#FCFCFC" d="M89.18 29.21l-.59.8-.19-.09.46-.9.32.19z"/><path fill-rule="evenodd" clip-rule="evenodd" fill="#FCFCFC" d="M111.32 27.88l-.44-.42.27-.16.17.58z"/><path fill-rule="evenodd" clip-rule="evenodd" fill="#020202" d="M31.61 130.53l-.12.35-.35-.22.47-.13z"/><path fill-rule="evenodd" clip-rule="evenodd" fill="#FCFCFC" d="M94.42 39.22l-.4.04-.18-.41.58.37z"/><path fill-rule="evenodd" clip-rule="evenodd" fill="#FCFCFC" d="M45.41 136.9l-.18.3-.21-.34.39.04z"/><path fill-rule="evenodd" clip-rule="evenodd" fill="#FCFCFC" d="M79.35 27.79l-.38.07.2-.36.18.29z"/><path fill-rule="evenodd" clip-rule="evenodd" d="M77.02 123.11l-.11.3c-3.43 2.11-7.04 3.8-10.94 4.82-5.25 1.37-10.55 1.85-15.92.78l-.02-.17c2.89.07 5.78.29 8.67.19 4.59-.14 8.96-1.33 13.1-3.32 1.74-.84 3.42-1.81 5.12-2.72l.1.12z"/><path fill-rule="evenodd" clip-rule="evenodd" d="M50.05 129.01c-.27.01-.55.01-.82.01-1.27-.32-2.55-.63-3.81-.99-.43-.13-.82-.38-1.24-.57l.02-.02 1.59.21c.3.13.59.3.9.38 1.11.29 2.22.54 3.34.81l.02.17z"/><path fill-rule="evenodd" clip-rule="evenodd" fill="#141414" d="M83.97 66.19c-1.61-1.53-3.22-3.06-4.82-4.6 1.6 1.54 3.21 3.07 4.82 4.6z"/><path fill-rule="evenodd" clip-rule="evenodd" fill="#262626" d="M136 36.24l-.01.01-.08-.09.09.08z"/><path fill-rule="evenodd" clip-rule="evenodd" fill="#262626" d="M41.4 126.43l-.02.01c-.46-.14-.93-.27-1.39-.4l-.22-.39.02-.02c.53.27 1.07.54 1.61.8z"/><path fill-rule="evenodd" clip-rule="evenodd" d="M43 127.03l-.01.02c-.53-.21-1.07-.41-1.61-.61l.02-.01c.53.21 1.07.4 1.6.6z"/><path fill-rule="evenodd" clip-rule="evenodd" d="M44.2 127.44l-.02.02c-.39-.14-.79-.28-1.19-.41l.01-.02 1.2.41z"/><path fill-rule="evenodd" clip-rule="evenodd" fill="#262626" d="M38.78 125.23c-1.65-.57-3.2-1.32-4.42-2.61l.01-.01c1.47.87 2.94 1.74 4.41 2.62z"/><path fill-rule="evenodd" clip-rule="evenodd" fill="#262626" d="M34.37 122.61l-.01.01-.4-.4.41.39z"/><path fill-rule="evenodd" clip-rule="evenodd" fill="#262626" d="M39.79 125.63l-.02.02-.6-.21.01-.01c.21.06.41.13.61.2z"/><path fill-rule="evenodd" clip-rule="evenodd" fill="#262626" d="M39.18 125.43c-.14-.05-.27-.12-.41-.19l.01-.01.4.2z"/><path fill-rule="evenodd" clip-rule="evenodd" fill="#262626" d="M33.96 122.22h-.4v-.21l.4.21z"/><path fill-rule="evenodd" clip-rule="evenodd" d="M92.62 102.13l-1.62 4.62-.23.59-.2.4c-.6 1.13-1.21 2.27-1.82 3.41-.84 1.21-1.69 2.42-2.54 3.64-1.08 1.22-2.16 2.45-3.23 3.67-.99.87-1.98 1.74-2.98 2.6-.22.18-.5.29-.75.44l-.12-.11c2.16-2.2 4.31-4.41 6.46-6.61 2.55-2.94 4.2-6.41 5.6-9.98 2.01-5.11 2.61-10.46 2.38-15.92-.05-.27-.11-.54-.17-.81 0-.33-.01-.67-.02-1l-.36-.83.01-.38c.03-.33.11-.67.07-1-.06-.61-.19-1.21-.29-1.81.14.19.38.36.4.57.36 2.46.86 4.92.96 7.39.15 3.78-.47 7.49-1.55 11.12z"/><path fill-rule="evenodd" clip-rule="evenodd" d="M79.25 121.5c-.54.4-1.08.8-1.62 1.19l-.11-.1c.54-.4 1.08-.8 1.61-1.2l.12.11z"/><path fill-rule="evenodd" clip-rule="evenodd" d="M77.63 122.69l-.61.42-.1-.12.6-.4.11.1z"/><path fill-rule="evenodd" clip-rule="evenodd" fill="#1D1D1D" d="M85.59 114.78c-2.15 2.2-4.3 4.41-6.46 6.61-.53.4-1.07.8-1.61 1.2l-.6.4c-1.7.91-3.38 1.88-5.12 2.72-4.14 1.99-8.51 3.18-13.1 3.32-2.89.1-5.78-.12-8.67-.19-1.12-.27-2.23-.52-3.34-.81-.31-.08-.6-.25-.9-.38 1.13.03 2.28-.08 3.38.1 2.36.37 4.7.49 7.07.13.91-.15 1.83-.38 2.75-.42 3.64-.19 7.07-1.28 10.43-2.52 2.06-.76 4.01-1.79 5.97-2.79 1.2-.61 2.42-1.26 3.48-2.1 2.05-1.63 3.98-3.41 5.98-5.1.17-.15.49-.11.74-.17z"/><path fill-rule="evenodd" clip-rule="evenodd" fill="#262626" d="M177.78 127.43c-.27-.06-.54-.13-.81-.2l-.4-.19-1-.22c-.85-.46-1.71-.9-2.55-1.37-.31-.17-.59-.41-.88-.61l.01-.01 5.62 2.4.01.2z"/><path fill-rule="evenodd" clip-rule="evenodd" fill="#262626" d="M172.15 124.83l-.01.01c-.8-.47-1.6-.94-2.41-1.41l.02-.02c.8.48 1.6.95 2.4 1.42z"/><path fill-rule="evenodd" clip-rule="evenodd" d="M178.18 127.44l-.02.02-.38-.03-.01-.2.41.21z"/><path fill-rule="evenodd" clip-rule="evenodd" fill="#3D4EAE" d="M92.52 86.7l.03 2.32c-.07 1.09-.2 2.17-.38 3.25-.43 2.51-.85 5.02-1.39 7.51-.28 1.32-.78 2.6-1.21 3.89-.04.12-.24.18-.36.27.33-1.48.22-2.92-.45-4.48-.82 2.11-1.6 4.09-2.45 6.24-.33-.8-.53-1.28-.74-1.76.33-.53.68-1.05.99-1.59.69-1.21 1.35-2.42 2.03-3.64l.6-.61c.27-1.27.54-2.54.81-3.8l-.23-.76-.24.02c-.18 1.19-.37 2.37-.56 3.56l-.51.03c-.15-.63-.37-1.25-.46-1.89-.44-3.08-.51-6.26-1.35-9.22-.93-3.25-2.09-6.5-3.94-9.43-.67-1.06-1.12-2.26-1.64-3.41-.27-.6-.02-.87.63-1.04 1.58-.4 3.14-.89 4.82-1.38-3.38-4.48-7.17-8.1-11.81-11.19l.84-.25.64.4c.19.12.38.24.56.37l.4.24c.66.41 1.33.83 2 1.24 1.6 1.54 3.21 3.07 4.82 4.61.68.8 1.34 1.59 2.01 2.39.54.87 1.09 1.74 1.63 2.6l.18.21.2.4.2.4.21.4h-.01l.2.2h.01l.2.4v.01l.2.4.19.21c.18.28.41.54.52.84 1.04 2.79 2.07 5.59 3.1 8.39.1.6.23 1.2.29 1.81.04.33-.04.67-.07 1-.18.28-.49.55-.51.84z"/><path fill-rule="evenodd" clip-rule="evenodd" fill="#272C64" d="M83.97 66.19c-1.61-1.53-3.22-3.06-4.82-4.6 1.6 1.54 3.21 3.07 4.82 4.6z"/><path fill-rule="evenodd" clip-rule="evenodd" fill="#FCFCFC" d="M45.83 60.76c.02 1.28-.83 1.99-1.78 2.58-1.26.78-2.58 1.35-4.07.56-1 3.56-4.18 6.27-7.83 6.73l-1.19-.24c-.25-.34-.5-.67-.76-1 .1-.61.19-1.21.28-1.81.9-1.13 1.81-2.26 2.71-3.4l1.17-.81c1.14-.41 2.28-.82 3.42-1.22.7.25 1.4.51 2.16.79 1.06-1.88 2.81-2.97 5.27-2.81l.58.47.04.16z"/><path fill-rule="evenodd" clip-rule="evenodd" fill="#231F20" d="M236.17 84.67c-.53-3.67-1.45-7.25-2.97-10.66-1.5-3.89-3.56-7.47-6.18-10.73-.1-.16-.2-.34-.32-.49-2.74-3.49-5.91-6.54-9.56-9.08-.28-.22-.56-.45-.85-.66-4.4-3.05-9.28-5.03-14.4-6.49l-6.42-1.29c-1.55-1.33-3.1-2.66-4.64-3.99-1.67-1.3-3.33-2.59-4.99-3.88-1.22-.85-2.43-1.7-3.65-2.54l-2.81-1.8c-.61-.37-1.22-.73-1.83-1.09l-.38-.2-.19-.14c-2.7-1.53-5.52-2.78-8.56-3.5-2.52-.59-5.06-.83-7.56.17-.87.52-1.75 1.04-2.63 1.56-.99 1.16-1.99 2.33-2.98 3.5-.22.33-.47.64-.64 1-.79 1.64-1.55 3.29-2.31 4.95-3.22-.36-6.44-.71-9.66-1.06l-1.8-3.81c-.93-1.21-1.85-2.42-2.78-3.64l-3.87-3.19c-2.81-1.85-5.88-2.92-9.23-3.21-3.39-.31-6.67.22-9.85 1.42-.27.12-.54.24-.81.37l-.58.28-1.24.69-.15.19-1.01.54v-.01l-1.54 1.17c-.29.3-.58.61-.86.91l-1.24 1.08-1.83 2.54-1.81 3.07c-.11.27-.23.54-.35.81l-.21.8-9.06.96-.4.04-.18-.41-.02-.01-.15-.18-.06-.59c-.3-.67-.6-1.33-.9-1.99l-.79-1.61c-.15-.28-.31-.56-.47-.83-.4-.55-.81-1.09-1.21-1.63l-.6-.74-1.05-1.26-.19-.09-.59-.34-.63-.35.02-.07-.23-.14-.2.02h-.04l-.16-.15c-.6-.29-1.18-.78-1.8-.84-1.8-.18-3.61-.18-5.42-.26l-.38.07c-2.96.7-5.79 1.73-8.45 3.21-3.27 2.06-6.66 3.94-9.78 6.22-3.39 2.47-6.51 5.31-9.75 7.99-1.48.25-2.98.41-4.44.75-16.41 3.86-27.77 13.64-34.03 29.29-1.46 3.63-2.35 7.43-2.63 11.36-.04.39-.1.79-.13 1.19-.27 4.46-.19 8.89.91 13.26.21.95.33 1.94.64 2.85.74 2.15 1.57 4.26 2.36 6.39l3.36 6.24c1.6 2.08 3.19 4.16 4.78 6.24 1.2.57 2.19 1.34 2.65 2.65 2.23 1.72 4.46 3.44 6.68 5.16l.47-.13-.12.35c.21.14.43.28.65.41l1.82 1.12.63.25c1.33.66 2.66 1.33 4 2l.41.16 6.02 2.04.39.04c.16-.01.33-.04.49-.01l4.33.79c.4.08.8.15 1.21.22l1.4.01.41.15 2.6.01 1.41-.15h1.41c.59-.04 1.18-.08 1.78-.11 2.13-.34 4.3-.51 6.39-1.03 6.75-1.69 12.9-4.63 18.32-9.04.17-.14.2-.45.29-.68.63-.38 1.39-.64 1.87-1.16 2.11-2.31 4.33-4.56 6.17-7.08 1.79-2.44 3.17-5.19 4.72-7.8l.18-.24c1.83-4.05 3.11-8.27 3.68-12.69.1-.77.37-1.31 1.02-1.81 2.53-1.93 4.64-4.28 6.43-6.92 1.27-1.59 2.36-3.27 2.77-5.31.7-2.42.24-4.74-.6-7.03-.38-1.04-.77-2.08-1.13-3.12-.1-.29-.09-.61-.13-.91.31-.42.7-.8.92-1.27.82-1.77 1.56-3.57 2.37-5.35.35-.77.79-1.5 1.19-2.24 1.53.45 3.03 1.05 4.59 1.34 4.09.74 8.09.32 11.89-1.47h.17c.81 1.79 1.59 3.59 2.42 5.37.5 1.09.93 2.24 1.62 3.2.44.6.43.98.17 1.58-.98 2.26-1.86 4.57-1.93 7.09l-.01.59.67 3.45.28.6 1.37 2.41c2.14 3.27 4.65 6.21 7.87 8.49l.84 4.79c.63 3.2 1.66 6.26 3.07 9.2.69 1.34 1.39 2.67 2.09 4.01 1.41 2.03 2.82 4.06 4.22 6.09l4.05 4.36.29.3.21.2c1.95 1.51 3.91 3.03 5.87 4.54l1.64 1.06.23.12 1.2.72c.8.43 1.58.91 2.41 1.29 6.27 2.89 12.82 4.6 19.76 4.55 5.28-.04 10.44-.8 15.44-2.55 5.83-2.04 11.11-5.03 15.68-9.23l.15-.16.62-.63c2.49-2.22 4.62-4.75 6.54-7.46 2.28-3.23 4.19-6.66 5.45-10.43.08-.18.18-.35.25-.54 2.57-7.27 3.23-14.73 2.14-22.34zm-143.55 17.46l-1.62 4.62-.23.59-.2.4c-.6 1.13-1.21 2.27-1.82 3.41-.84 1.21-1.69 2.42-2.54 3.64-1.08 1.22-2.16 2.45-3.23 3.67-.99.87-1.98 1.74-2.98 2.6-.22.18-.5.29-.75.44-.54.4-1.08.8-1.62 1.19l-.61.42-.11.3c-3.43 2.11-7.04 3.8-10.94 4.82-5.25 1.37-10.55 1.85-15.92.78-.27.01-.55.01-.82.01-1.27-.32-2.55-.63-3.81-.99-.43-.13-.82-.38-1.24-.57-.39-.14-.79-.28-1.19-.41-.53-.21-1.07-.41-1.61-.61-.46-.14-.93-.27-1.39-.4l-.22-.39-.6-.21-.4-.2c-1.64-.58-3.19-1.33-4.41-2.62l-.4-.4h-.4v-.21l-.2-.2-.21-.2-.39-.2-.21-.2h-.19l-.21-.2-.19-.2c-.41-.4-.81-.8-1.21-1.21l-.6-.4-1.41-1v-.41l-.19-.2c-.76-.29-1.35-.72-1.41-1.61l-.81-1-.2-.2-3.01-4.62c-.27-.4-.54-.8-.8-1.21l-.61-1.8c-1.78-3.55-2.71-7.34-3.21-11.25l-.01-1.01-.01-.38c-.06-.36-.19-.71-.17-1.06.12-2.78.26-5.56.4-8.35l.18-.55 1.41-5.52c.7-1.66 1.4-3.32 2.1-4.97.77-1.28 1.54-2.57 2.32-3.85.11-.11.25-.21.35-.35 1.85-2.67 4.02-5.05 6.49-7.17.55-.48 1.09-.96 1.64-1.43l3.57-2.32c1.5-.73 2.96-1.52 4.49-2.18 5.29-2.27 10.84-3.14 16.57-3.03l.21.1.63.02.2-.25.2.27.4.06.6.16.22-.03.36-.02.43.03c1.11.24 2.25.41 3.35.74 2.31.69 4.6 1.47 6.89 2.22l.58.17 3.64 2.13.01.01.64.4c.19.12.38.24.56.37l.4.24c.66.41 1.33.83 2 1.24 1.6 1.54 3.21 3.07 4.82 4.6v.01c.68.8 1.34 1.59 2.01 2.39.54.87 1.09 1.74 1.63 2.6l.18.21.2.4.2.4.21.4h-.01l.2.2h.01l.2.4v.01l.2.4h.19v.21c.18.28.41.54.52.84 1.04 2.79 2.07 5.59 3.1 8.39.14.19.38.36.4.57.36 2.46.86 4.92.96 7.39.15 3.78-.47 7.49-1.55 11.12zm43.37-65.88l-.08-.09.09.08-.01.01zm91.62 58.86c0 .27-.01.53-.02.79-.92.21-.77 1.09-.97 1.69-.66 2.02-1.04 4.15-1.87 6.09-1.53 3.63-3.47 7.09-6 10.11-2.41 2.88-5.18 5.46-8.44 7.42-2.04 1.23-4.06 2.52-6.2 3.55-1.58.76-3.35 1.09-5.02 1.67-2.65.93-5.4 1.35-8.17 1.64-2.11.22-4.26.12-6.4.18-.38.01-.76.13-1.13.2l2.13.32-2.13-.31c-.27-.01-.54-.02-.8-.02l-.21-.19c-.95-.2-1.9-.41-2.86-.6-.44-.09-.89-.14-1.34-.21l-.02.02-.38-.03c-.27-.06-.54-.13-.81-.2l-.4-.19-1-.22c-.85-.46-1.71-.9-2.55-1.37-.31-.17-.59-.41-.88-.61-.8-.47-1.6-.94-2.41-1.41l.02-.02-1.86-1.69-6.07-5.55c-.08-.08-.08-.24-.12-.37-.72-.73-1.44-1.45-2.15-2.2-.3-.32-.56-.69-.85-1.03l-.6-1.4-1.83-3.61c-.55-1.24-1.26-2.44-1.62-3.73-.76-2.75-1.33-5.55-1.98-8.33-.01-.57-.03-1.13-.03-1.7.02-2.16-.12-4.33.1-6.47.43-4.31 1.69-8.41 3.52-12.33 1.2-2.01 2.41-4.02 3.61-6.02l4.29-4.91 5.79-4.5.39-.23.16-.51.28.2.57-.3.25-.17c2.4-1.01 4.74-2.16 7.2-3.01 4.26-1.48 8.71-1.88 13.2-1.81l.41.1 1.03.03 1.01.06.58.09c3.2.84 6.41 1.69 9.61 2.54l7.62 4.23c.3.27.6.52.89.79.54.51 1.07 1.04 1.6 1.55.34.19.72.33.99.58 1.01.94 1.99 1.93 2.98 2.89.21.37.41.74.65 1.09.66.97 1.33 1.93 2 2.89l1.77 2.58.63.87c.11.35.2.7.34 1.04.34.85.71 1.7 1.07 2.54.2.37.47.71.58 1.1.58 2.06 1.11 4.13 1.66 6.19l.17.36h-.01l.23 8.43-.2 1.42z"/><path fill-rule="evenodd" clip-rule="evenodd" fill="#374990" d="M57.47 56.14c-.53.55-.89.55-1.42 0h1.42z"/><path fill-rule="evenodd" clip-rule="evenodd" fill="#272C64" d="M18.86 92.77l-.27.02v-.58l.17-.03.1.59z"/><path fill-rule="evenodd" clip-rule="evenodd" fill="#050505" d="M59.07 53.87l-.4-.02.2-.25.2.27z"/><path fill-rule="evenodd" clip-rule="evenodd" fill="#262626" d="M30.15 119.2l-1.41-1v-.41l1.41 1.41z"/><path fill-rule="evenodd" clip-rule="evenodd" fill="#050505" d="M170.78 59.03l-.44.31.16-.51.28.2z"/><path fill-rule="evenodd" clip-rule="evenodd" fill="#262626" d="M28.55 117.59c-.76-.29-1.35-.72-1.41-1.61l.19-.01c.4.54.81 1.08 1.22 1.62z"/><path fill-rule="evenodd" clip-rule="evenodd" fill="#434DC9" d="M222.77 84.25c-.27 1.43-.53 2.87-.81 4.3-.26 1.29-.49 2.6-.83 3.88-.27 1.01-.59 2.04-1.05 2.98-1.93 4-3.87 8.01-6.59 11.55-1.85 2.41-4.21 4.3-6.79 5.95-2.33 1.5-4.86 2.45-7.45 3.34-1.44.49-2.8 1.23-4.2 1.85l-.17.1c-1.6 2.33-4.15 2.62-6.62 3.01-3.24.5-6.48.94-9.91 1.44 3.36 1.54 6.78 2.16 10.34 2.21l.02.25c-.64.09-1.28.28-1.91.26-3.06-.12-6.09-.43-9.08-1.14-3.69-.87-7.26-2-10.38-4.24-.9-.64-1.69-1.46-2.53-2.2-.74-.66-1.44-1.36-2.22-1.97-.18-.15-.59-.02-.89-.02-.72-.73-1.44-1.45-2.15-2.2-.3-.32-.56-.69-.85-1.03l-.6-1.4-1.83-3.61c-.55-1.24-1.26-2.44-1.62-3.73-.76-2.75-1.33-5.55-1.98-8.33-.01-.57-.03-1.13-.03-1.7.02-2.16-.12-4.33.1-6.47.43-4.31 1.69-8.41 3.52-12.33 1.2-2.01 2.41-4.02 3.61-6.02l4.29-4.91 5.79-4.5.39-.23.44-.31.57-.3.25-.17c2.4-1.01 4.74-2.16 7.2-3.01 4.26-1.48 8.71-1.88 13.2-1.81l.41.1 1.03.03 1.01.06.58.09c3.2.84 6.41 1.69 9.61 2.54l7.62 4.23c.3.27.6.52.89.79.54.51 1.07 1.04 1.6 1.55.19.69.38 1.37.58 2.05-.47-.24-.96-.43-1.39-.71-2.3-1.49-4.51-3.16-6.91-4.47-3.26-1.78-6.81-2.96-10.48-3.56-1.67-.27-3.41-.09-5.12-.11h-.8c-.92.07-1.86.09-2.78.22-1.87.26-3.79.36-5.57.92-2.71.86-5.33 1.99-7.93 3.16-.72.33-1.84.45-1.98 1.61l-.08-.01-.35.11.02.07-.31.13c-1.28.75-2.65 1.37-3.81 2.28-1.19.94-2.14 2.17-2.42 3.76.01.27.02.54.04.81-.73.98-1.43 1.98-2.19 2.94-2.53 3.2-4.49 6.71-5.71 10.61-.27.89-.42 1.81-.57 2.73-.32 1.96-.69 3.92-.89 5.9-.28 2.87.56 5.49 1.9 8.01 2.84 5.31 6.98 9.14 12.57 11.43 2.9 1.19 5.91 1.79 9.02 1.93.93-.05 1.86-.14 2.78-.15 3.04-.04 5.93-.71 8.74-1.82 1.26-.5 2.49-1.07 3.74-1.6 2.08-1.41 4.28-2.68 6.22-4.27 2.56-2.11 4.92-4.45 6.48-7.47.88-1.7 1.9-3.33 2.74-5.06.47-.97.69-2.06 1.03-3.09l.81-2.83c.06-.66.13-1.32.2-1.99.13-.8.37-1.59.37-2.39.01-1.62-.11-3.23-.18-4.84 1.75.4 2.59 1.64 2.93 3.28.27 1.3.45 2.61.7 3.91.05.29.26.56.39.84l.39-.81.4-4.21c.07-.79.24-1.58.19-2.36-.11-1.91-.33-3.81-.48-5.71-.01-.18.2-.37.3-.56.97 1.69 2.03 3.33 2.9 5.06 1.17 2.34 2.27 4.72 2.53 7.38z"/><path fill-rule="evenodd" clip-rule="evenodd" fill="#3D4EAE" d="M227.61 95.11c0 .27-.01.53-.02.79-.92.21-.77 1.09-.97 1.69-.66 2.02-1.04 4.15-1.87 6.09-1.53 3.63-3.47 7.09-6 10.11-2.41 2.88-5.18 5.46-8.44 7.42-2.04 1.23-4.06 2.52-6.2 3.55-1.58.76-3.35 1.09-5.02 1.67-2.65.93-5.4 1.35-8.17 1.64-2.11.22-4.26.12-6.4.18-.38.01-.76.13-1.13.2l-.8-.01-.21-.19c-.95-.2-1.9-.41-2.86-.6-.44-.09-.89-.14-1.34-.21l-.41-.21-5.62-2.4c-.8-.47-1.6-.94-2.4-1.42l-1.86-1.69-6.07-5.55c-.08-.08-.08-.24-.12-.37.3 0 .71-.13.89.02.78.61 1.48 1.31 2.22 1.97.84.74 1.63 1.56 2.53 2.2 3.12 2.24 6.69 3.37 10.38 4.24 2.99.71 6.02 1.02 9.08 1.14.63.02 1.27-.17 1.91-.26l-.02-.25c-3.56-.05-6.98-.67-10.34-2.21 3.43-.5 6.67-.94 9.91-1.44 2.47-.39 5.02-.68 6.62-3.01l.17-.1c1.4-.62 2.76-1.36 4.2-1.85 2.59-.89 5.12-1.84 7.45-3.34 2.58-1.65 4.94-3.54 6.79-5.95 2.72-3.54 4.66-7.55 6.59-11.55.46-.94.78-1.97 1.05-2.98.34-1.28.57-2.59.83-3.88.28-1.43.54-2.87.81-4.3-.26-2.66-1.36-5.04-2.53-7.38-.87-1.73-1.93-3.37-2.9-5.06.35-.11.7-.21 1.04-.33 1.36-.46 1.48-.74.63-1.95-.72-1.02-1.54-1.97-2.36-2.92-.32-.39-.75-.69-1.12-1.02l-.2-.41c-.2-.68-.39-1.36-.58-2.05.34.19.72.33.99.58 1.01.94 1.99 1.93 2.98 2.89.21.37.41.74.65 1.09.66.97 1.33 1.93 2 2.89l1.77 2.58.63.87c.11.35.2.7.34 1.04.34.85.71 1.7 1.07 2.54.2.37.47.71.58 1.1.58 2.06 1.11 4.13 1.66 6.19l.17.36h-.01l.23 8.43c-.77.38-.44.91-.2 1.42z"/><path fill-rule="evenodd" clip-rule="evenodd" fill="#1D1D1D" d="M227.81 93.69l-.2 1.42c-.24-.51-.57-1.04.2-1.42z"/><path fill-rule="evenodd" clip-rule="evenodd" fill="#434DC9" d="M93.57 88.88c-.05-.27-.11-.54-.17-.81 0-.33-.01-.67-.02-1l-.36-.83.01-.38c-.18.28-.49.55-.51.84l.03 2.32c-.07 1.09-.2 2.17-.38 3.25-.43 2.51-.85 5.02-1.39 7.51-.28 1.32-.78 2.6-1.21 3.89-.04.12-.24.18-.36.27.33-1.48.22-2.92-.45-4.48-.82 2.11-1.6 4.09-2.45 6.24-.33-.8-.53-1.28-.74-1.76.33-.53.68-1.05.99-1.59.69-1.21 1.35-2.42 2.03-3.64l.6-.61c.27-1.27.54-2.54.81-3.8l-.23-.76-.24.02c-.18 1.19-.37 2.37-.56 3.56l-.51.03c-.15-.63-.37-1.25-.46-1.89-.44-3.08-.51-6.26-1.35-9.22-.93-3.25-2.09-6.5-3.94-9.43-.67-1.06-1.12-2.26-1.64-3.41-.27-.6-.02-.87.63-1.04 1.58-.4 3.14-.89 4.82-1.38-3.38-4.48-7.17-8.1-11.81-11.19l.84-.25-.01-.01-3.64-2.13-.58-.17c-2.29-.75-4.58-1.53-6.89-2.22-1.1-.33-2.24-.5-3.35-.74l-.43-.03-.36.02-.22.03-.6-.16-.4-.06-.4-.02-.63-.02-.21-.1c-5.73-.11-11.28.76-16.57 3.03-1.53.66-2.99 1.45-4.49 2.18l-3.57 2.32c-.55.47-1.09.95-1.64 1.43-2.47 2.12-4.64 4.5-6.49 7.17-.1.14-.24.24-.35.35-.78 1.28-1.55 2.57-2.32 3.85-.7 1.65-1.4 3.31-2.1 4.97l-1.41 5.52-.18.55c-.14 2.79-.28 5.57-.4 8.35-.02.35.11.7.17 1.06l.01.38.01 1.01c.5 3.91 1.43 7.7 3.21 11.25l.61 1.8c.26.41.53.81.8 1.21l3.01 4.62.2.2.81 1 .19-.01c.4.54.81 1.08 1.22 1.62l.19.2 1.41 1.41.6.4c.4.41.8.81 1.21 1.21l.19.2.21.2h.19l.21.2.39.2.21.2.2.2.4.21.41.39c1.47.87 2.94 1.74 4.41 2.62l.4.2c.21.06.41.13.61.2.53.27 1.07.54 1.61.8.53.21 1.07.4 1.6.6l1.2.41 1.59.21c1.13.03 2.28-.08 3.38.1 2.36.37 4.7.49 7.07.13.91-.15 1.83-.38 2.75-.42 3.64-.19 7.07-1.28 10.43-2.52 2.06-.76 4.01-1.79 5.97-2.79 1.2-.61 2.42-1.26 3.48-2.1 2.05-1.63 3.98-3.41 5.98-5.1.17-.15.49-.11.74-.17 2.55-2.94 4.2-6.41 5.6-9.98 2.01-5.11 2.61-10.46 2.38-15.92zm-74.98 3.91v-.58l.17-.03.1.59-.27.02zm59.06 11.55c.16.1.35.21.45.36.8 1.31 1.43 2.69 1.46 4.26l-4.02 2.21c-1.21.33-2.42.66-3.62 1-4 1-8.01.96-12.04.22l-.61-.22c-2.28-.77-4.57-1.53-6.85-2.31-.4-.14-.79-.33-1.18-.49l-.61-.61-1.19-.42c-.98-.28-2-.48-2.94-.86-2.73-1.1-5.12-2.8-7.43-4.58-.89-.68-1.68-1.27-2.73-.35l.04.37 6.63 5.63.99.82c.68.4 1.31.89 2.03 1.2 2.99 1.29 6.01 2.54 9.02 3.8-.45.2-.88.55-1.34.59-1.28.1-1.71.5-1.61 1.68-2.51 2.05-5.53 1.55-8.32 1.45-2.5-.09-5.07-.55-7.45-1.59-1.08-.48-2.26-.74-3.39-1.1-.59-.52-1.19-1.03-1.76-1.56-.43-.41-.84-.84-1.25-1.27-.86.63-1.41.24-1.93-.53-1.59-2.34-3.42-4.55-4.78-7.02-1.69-3.06-2.47-6.47-2.72-9.98-.11-1.46-.42-2.91-.37-4.36.16-4.64.89-9.19 2.98-13.39 1.13-2.28 2.46-4.46 3.73-6.67.12-.21.46-.29.7-.43v-.19l1.02-.85 1.92-1.57c.9-1.13 1.81-2.26 2.71-3.4l1.17-.81c.05-.25.01-.65.14-.73 2.58-1.4 5.14-2.84 7.79-4.09 1.26-.6 2.7-.85 4.07-1.21 1.57-.4 3.13-.89 4.73-1.08 1.23-.14 2.53-.6 3.76.07l1.2-.19h2.41c.34.2.7.58 1.04.56 1.92-.1 3.68.59 5.48 1.06 2.53.67 4.97 1.58 7.16 3.02 1.27.84 2.46 1.8 3.64 2.77.19.16.25.88.2.89-1.13.42-.95 1.45-1.03 2.28-.1 1.16-.01 2.34-.07 3.5-.08 1.46-.23 2.92-.35 4.38l-1.13.6c1.03 1.5 2.27 2.9 3.05 4.51 1.08 2.23 1.82 4.63 2.7 6.96.6 3.17.7 6.38-.02 9.52-.49 2.09-1.35 4.1-2.09 6.13-.3.82-.13 1.57.61 2.02z"/><path fill-rule="evenodd" clip-rule="evenodd" fill="#506CDC" d="M78.1 104.7c.8 1.31 1.43 2.69 1.46 4.26l-4.02 2.21c-1.21.33-2.42.66-3.62 1-4 1-8.01.96-12.04.22l-.61-.22c-2.28-.77-4.57-1.53-6.85-2.31-.4-.14-.79-.33-1.18-.49l-.61-.61-1.19-.42c-.98-.28-2-.48-2.94-.86-2.73-1.1-5.12-2.8-7.43-4.58-.89-.68-1.68-1.27-2.73-.35-.39-.41-.78-.81-1.18-1.22-.93-1.34-1.87-2.68-2.81-4.01-.47-.94-.94-1.88-1.41-2.81-.6-1.31-1.24-2.59-1.78-3.92-.47-1.15-.82-2.35-1.22-3.53-.01-.16.01-.34-.02-.5-.63-2.66-1.1-5.34-1-8.09 0-.22-.12-.43-.19-.65.07-.26.14-.53.2-.8.52-.7 1.02-1.42 1.55-2.11.96-1.26 1.94-2.51 2.93-3.75.18-.23.49-.36.74-.53 3.65-.46 6.83-3.17 7.83-6.73 1.49.79 2.81.22 4.07-.56.95-.59 1.8-1.3 1.78-2.58l-.04-.16-.58-.47c-2.46-.16-4.21.93-5.27 2.81-.76-.28-1.46-.54-2.16-.79-1.14.4-2.28.81-3.42 1.22.05-.25.01-.65.14-.73 2.58-1.4 5.14-2.84 7.79-4.09 1.26-.6 2.7-.85 4.07-1.21 1.57-.4 3.13-.89 4.73-1.08 1.23-.14 2.53-.6 3.76.07l1.2-.19c.53.55.89.55 1.42 0h.99c.34.2.7.58 1.04.56 1.92-.1 3.68.59 5.48 1.06 2.53.67 4.97 1.58 7.16 3.02 1.27.84 2.46 1.8 3.64 2.77.19.16.25.88.2.89-1.13.42-.95 1.45-1.03 2.28-.1 1.16-.01 2.34-.07 3.5-.08 1.46-.23 2.92-.35 4.38l-1.13.6c1.03 1.5 2.27 2.9 3.05 4.51 1.08 2.23 1.82 4.63 2.7 6.96.6 3.17.7 6.38-.02 9.52-.49 2.09-1.35 4.1-2.09 6.13-.3.82-.13 1.57.61 2.02.16.1.35.21.45.36z"/><path fill-rule="evenodd" clip-rule="evenodd" fill="#3D4EAE" d="M55.05 114.37c-.45.2-.88.55-1.34.59-1.28.1-1.71.5-1.61 1.68-2.51 2.05-5.53 1.55-8.32 1.45-2.5-.09-5.07-.55-7.45-1.59-1.08-.48-2.26-.74-3.39-1.1-.59-.52-1.19-1.03-1.76-1.56-.43-.41-.84-.84-1.25-1.27-.86.63-1.41.24-1.93-.53-1.59-2.34-3.42-4.55-4.78-7.02-1.69-3.06-2.47-6.47-2.72-9.98-.11-1.46-.42-2.91-.37-4.36.16-4.64.89-9.19 2.98-13.39 1.13-2.28 2.46-4.46 3.73-6.67.12-.21.46-.29.7-.43v-.19l1.02-.85 1.92-1.57c-.09.6-.18 1.2-.28 1.81.26.33.51.66.76 1l1.19.24c-.25.17-.56.3-.74.53-.99 1.24-1.97 2.49-2.93 3.75-.53.69-1.03 1.41-1.55 2.11-.06.27-.13.54-.2.8.07.22.19.43.19.65-.1 2.75.37 5.43 1 8.09.03.16.01.34.02.5.4 1.18.75 2.38 1.22 3.53.54 1.33 1.18 2.61 1.78 3.92.47.93.94 1.87 1.41 2.81.94 1.33 1.88 2.67 2.81 4.01.4.41.79.81 1.18 1.22l.04.37 6.63 5.63.99.82c.68.4 1.31.89 2.03 1.2 2.99 1.29 6.01 2.54 9.02 3.8z"/><path fill-rule="evenodd" clip-rule="evenodd" fill="#272C64" d="M89.19 73.61v.21l-.19-.21h.19z"/><path fill-rule="evenodd" clip-rule="evenodd" fill="#FEFEFE" d="M175.12 63.75c-.03.23-.07.45-.11.67l-.05.15c-.38 1.66-1.44 2.84-2.75 3.84l-.47.36c-1.12.55-2.25 1.09-3.37 1.63l-.21.09-.43.06-.19.01-1.24-.07-.14-.11-.02-.02-.23-.34-.02-.02-.17-.21-.26-.4c-.02-.27-.03-.54-.04-.81.28-1.59 1.23-2.82 2.42-3.76 1.16-.91 2.53-1.53 3.81-2.28l.31-.13-.02-.07.35-.11.08.01 2.21.45.21.26.19.36.14.44z"/><path fill-rule="evenodd" clip-rule="evenodd" fill="#3D4EAE" d="M218.38 71.48c-.34.12-.69.22-1.04.33-.1.19-.31.38-.3.56.15 1.9.37 3.8.48 5.71.05.78-.12 1.57-.19 2.36l-.4 4.21-.39.81c-.13-.28-.34-.55-.39-.84-.25-1.3-.43-2.61-.7-3.91-.34-1.64-1.18-2.88-2.93-3.28-.26-1.09-.51-2.19-.79-3.28-.99-3.79-2.8-7.14-5.44-10.04-.09-.09-.13-.23-.19-.34l-.41-.2c-1.81-1.75-3.64-3.49-5.96-4.55-.92-.43-1.91-.8-2.9-.93-1.39-.19-2.81-.18-4.21-.18-1.76-.01-3.53-.11-5.25.12-2.03.28-4.02.85-6.01 1.36-.31.08-.53.52-.79.79-2.43-.29-4.39.81-5.59 3.13l-.19-.36-.21-.26-2.21-.45c.14-1.16 1.26-1.28 1.98-1.61 2.6-1.17 5.22-2.3 7.93-3.16 1.78-.56 3.7-.66 5.57-.92.92-.13 1.86-.15 2.78-.22h.8c1.71.02 3.45-.16 5.12.11 3.67.6 7.22 1.78 10.48 3.56 2.4 1.31 4.61 2.98 6.91 4.47.43.28.92.47 1.39.71l.2.41c.37.33.8.63 1.12 1.02.82.95 1.64 1.9 2.36 2.92.85 1.21.73 1.49-.63 1.95z"/><path fill-rule="evenodd" clip-rule="evenodd" fill="#FCFCFC" d="M180.53 62.26c-.86 1.03-1.98 1.63-3.28 1.94-.8.19-1.5.09-2.13-.45l-.14-.44c1.2-2.32 3.16-3.42 5.59-3.13l.23.17c.45.71.2 1.34-.27 1.91z"/><path fill-rule="evenodd" clip-rule="evenodd" fill="#FCFCFC" d="M166.14 70.36l-.1.02-.1-.01-.05-.37.02.02.23.34z"/><path fill-rule="evenodd" clip-rule="evenodd" fill="#FCFCFC" d="M174.96 64.57l.05-.15c.04.06.03.11-.05.15z"/><path fill-rule="evenodd" clip-rule="evenodd" fill="#FCFCFC" d="M167.73 70.55l-.1.03-.09-.02.19-.01z"/><path fill-rule="evenodd" clip-rule="evenodd" fill="#506CDC" d="M212.7 82.27c0 .8-.24 1.59-.37 2.39-.07.67-.14 1.33-.2 1.99l-.81 2.83c-.34 1.03-.56 2.12-1.03 3.09-.84 1.73-1.86 3.36-2.74 5.06-1.56 3.02-3.92 5.36-6.48 7.47-1.94 1.59-4.14 2.86-6.22 4.27-1.25.53-2.48 1.1-3.74 1.6-2.81 1.11-5.7 1.78-8.74 1.82-.92.01-1.85.1-2.78.15-3.11-.14-6.12-.74-9.02-1.93-5.59-2.29-9.73-6.12-12.57-11.43-1.34-2.52-2.18-5.14-1.9-8.01.2-1.98.57-3.94.89-5.9.15-.92.3-1.84.57-2.73 1.22-3.9 3.18-7.41 5.71-10.61.76-.96 1.46-1.96 2.19-2.94l.26.4.17.21.05.37.1.01.1-.02.02.02.14.11 1.24.07.09.02.1-.03.43-.06.21-.09c1.12-.54 2.25-1.08 3.37-1.63l.47-.36c1.31-1 2.37-2.18 2.75-3.84.08-.04.09-.09.05-.15.04-.22.08-.44.11-.67.63.54 1.33.64 2.13.45 1.3-.31 2.42-.91 3.28-1.94.47-.57.72-1.2.27-1.91l-.23-.17c.26-.27.48-.71.79-.79 1.99-.51 3.98-1.08 6.01-1.36 1.72-.23 3.49-.13 5.25-.12 1.4 0 2.82-.01 4.21.18.99.13 1.98.5 2.9.93 2.32 1.06 4.15 2.8 5.96 4.55l.41.2c.06.11.1.25.19.34 2.64 2.9 4.45 6.25 5.44 10.04.28 1.09.53 2.19.79 3.28.07 1.61.19 3.22.18 4.84z"/></svg>