<?xml version="1.0" encoding="utf-8"?>
<!-- Generator: Adobe Illustrator 16.0.0, SVG Export Plug-In . SVG Version: 6.00 Build 0)  -->
<!DOCTYPE svg PUBLIC "-//W3C//DTD SVG 1.1//EN" "http://www.w3.org/Graphics/SVG/1.1/DTD/svg11.dtd">
<svg version="1.1" id="Layer_1" xmlns="http://www.w3.org/2000/svg" xmlns:xlink="http://www.w3.org/1999/xlink" x="0px" y="0px"
	 width="250.391px" height="147.915px" viewBox="0 0 250.391 147.915" enable-background="new 0 0 250.391 147.915"
	 xml:space="preserve">
<path fill="#FCFCFC" d="M60.45,137.81c-0.11,0.899-0.631,1.16-1.96,0.948l0.18-0.84C59.26,137.879,59.85,137.84,60.45,137.81z"/>
<path fill="#050505" d="M24.46,125.5c-0.88-0.891-1.771-1.771-2.649-2.649C23.01,123.42,24,124.19,24.46,125.5z"/>
<path fill="#FCFCFC" d="M109.78,29.05c-0.289,0.301-0.579,0.61-0.859,0.91l-1.239,1.08C107.74,30.05,108.7,29.14,109.78,29.05z"/>
<path fill="#FCFCFC" d="M93.61,38.07c-0.3-0.67-0.601-1.33-0.899-1.99C93.65,36.49,94.09,37.46,93.61,38.07z"/>
<path fill="#FCFCFC" d="M57.26,137.92c-0.21,0.25-0.399,0.681-0.63,0.699c-0.239,0.03-0.521-0.35-0.779-0.55L57.26,137.92z"/>
<path fill="#FCFCFC" d="M51.44,137.9l-0.66,0.57c-0.189-0.261-0.369-0.521-0.55-0.79C50.63,137.76,51.03,137.831,51.44,137.9
	L51.44,137.9z"/>
<path fill="#FCFCFC" d="M113.72,26.469l-1.24,0.69C112.61,26.13,112.83,26,113.72,26.469z"/>
<path fill="#FCFCFC" d="M104.04,36.65c-0.109,0.27-0.229,0.54-0.351,0.81l-0.399-0.529L104.04,36.65z"/>
<path fill="#FCFCFC" d="M92.33,33.99l-0.41,0.479c-0.149-0.279-0.311-0.56-0.47-0.829L92.33,33.99z"/>
<path fill="#FCFCFC" d="M115.11,25.82c-0.271,0.12-0.54,0.24-0.811,0.37l0.28-0.7L115.11,25.82z"/>
<path fill="#FCFCFC" d="M89.18,29.21l-0.591,0.8L88.4,29.92l0.46-0.899L89.18,29.21z"/>
<path fill="#FCFCFC" d="M111.32,27.88l-0.439-0.42l0.271-0.16L111.32,27.88z"/>
<path fill="#020202" d="M31.61,130.53l-0.119,0.35l-0.351-0.219L31.61,130.53z"/>
<path fill="#FCFCFC" d="M94.42,39.219l-0.399,0.04L93.84,38.85L94.42,39.219z"/>
<path fill="#FCFCFC" d="M45.41,136.9l-0.181,0.3l-0.21-0.34L45.41,136.9z"/>
<path fill="#FCFCFC" d="M79.35,27.79l-0.38,0.07l0.199-0.36L79.35,27.79z"/>
<path d="M77.02,123.11l-0.109,0.301c-3.431,2.109-7.04,3.799-10.939,4.819c-5.25,1.37-10.551,1.851-15.921,0.778l-0.021-0.17
	c2.891,0.07,5.78,0.291,8.671,0.19c4.59-0.14,8.96-1.329,13.1-3.319c1.74-0.84,3.421-1.811,5.12-2.721L77.02,123.11L77.02,123.11z"
	/>
<path d="M50.05,129.01c-0.271,0.011-0.55,0.011-0.819,0.011c-1.271-0.319-2.55-0.63-3.811-0.989c-0.43-0.131-0.819-0.381-1.239-0.57
	l0.021-0.021l1.59,0.21c0.3,0.131,0.59,0.301,0.899,0.381c1.109,0.289,2.221,0.539,3.34,0.809L50.05,129.01L50.05,129.01z"/>
<path fill="#141414" d="M83.97,66.19c-1.61-1.53-3.221-3.061-4.82-4.601C80.75,63.13,82.36,64.66,83.97,66.19z"/>
<path fill="#262626" d="M136,36.24l-0.01,0.01l-0.08-0.09L136,36.24z"/>
<path fill="#262626" d="M41.4,126.43l-0.021,0.01c-0.46-0.141-0.93-0.271-1.391-0.4l-0.22-0.39l0.021-0.021
	C40.32,125.9,40.86,126.17,41.4,126.43z"/>
<path d="M43,127.03l-0.01,0.02c-0.53-0.209-1.07-0.408-1.61-0.608l0.021-0.01C41.93,126.64,42.47,126.831,43,127.03z"/>
<path d="M44.2,127.44l-0.021,0.02c-0.391-0.14-0.79-0.278-1.189-0.41l0.01-0.02L44.2,127.44z"/>
<path fill="#262626" d="M38.78,125.23c-1.649-0.569-3.199-1.319-4.42-2.61l0.011-0.01C35.84,123.48,37.31,124.35,38.78,125.23z"/>
<path fill="#262626" d="M34.37,122.61l-0.011,0.01l-0.399-0.398L34.37,122.61z"/>
<path fill="#262626" d="M39.79,125.629l-0.021,0.021l-0.601-0.21l0.011-0.01C39.39,125.491,39.59,125.56,39.79,125.629z"/>
<path fill="#262626" d="M39.18,125.43c-0.141-0.051-0.271-0.12-0.41-0.189l0.01-0.011L39.18,125.43z"/>
<path fill="#262626" d="M33.96,122.22h-0.4v-0.212L33.96,122.22z"/>
<path d="M92.62,102.129L91,106.75l-0.229,0.59l-0.2,0.4c-0.6,1.129-1.21,2.27-1.819,3.409c-0.84,1.21-1.689,2.42-2.54,3.64
	c-1.08,1.221-2.16,2.451-3.229,3.67c-0.989,0.871-1.979,1.74-2.979,2.602c-0.22,0.18-0.5,0.29-0.75,0.439l-0.12-0.109
	c2.16-2.2,4.311-4.41,6.46-6.609c2.551-2.941,4.2-6.41,5.601-9.98c2.011-5.109,2.609-10.461,2.381-15.92
	c-0.051-0.271-0.11-0.541-0.171-0.811c0-0.33-0.01-0.67-0.021-1l-0.359-0.83l0.011-0.38c0.029-0.329,0.109-0.67,0.069-1
	c-0.061-0.61-0.189-1.21-0.29-1.812c0.141,0.191,0.38,0.361,0.399,0.57c0.359,2.461,0.859,4.92,0.96,7.391
	C94.32,94.79,93.7,98.5,92.62,102.129L92.62,102.129z"/>
<path d="M79.25,121.5c-0.54,0.399-1.08,0.799-1.62,1.189l-0.109-0.102c0.54-0.398,1.08-0.799,1.609-1.198L79.25,121.5z"/>
<path d="M77.63,122.69l-0.609,0.42l-0.101-0.119l0.601-0.4L77.63,122.69z"/>
<path fill="#1D1D1D" d="M85.59,114.78c-2.149,2.2-4.3,4.41-6.46,6.61c-0.529,0.399-1.069,0.8-1.609,1.198l-0.601,0.4
	c-1.699,0.91-3.38,1.881-5.12,2.721c-4.14,1.99-8.51,3.181-13.1,3.319c-2.891,0.101-5.78-0.12-8.671-0.19
	c-1.119-0.27-2.229-0.52-3.34-0.81c-0.311-0.079-0.601-0.25-0.899-0.38c1.13,0.03,2.279-0.08,3.38,0.1
	c2.359,0.371,4.7,0.49,7.07,0.131c0.909-0.149,1.829-0.381,2.75-0.42c3.64-0.189,7.069-1.279,10.43-2.521
	c2.061-0.76,4.011-1.79,5.971-2.79c1.199-0.609,2.42-1.26,3.479-2.102c2.05-1.629,3.979-3.408,5.979-5.1
	C85.02,114.799,85.34,114.84,85.59,114.78z"/>
<path fill="#262626" d="M177.78,127.43c-0.271-0.061-0.539-0.131-0.81-0.2l-0.4-0.19l-1-0.22c-0.85-0.46-1.71-0.899-2.55-1.37
	c-0.311-0.17-0.59-0.41-0.88-0.609l0.01-0.01l5.62,2.399L177.78,127.43L177.78,127.43z"/>
<path fill="#262626" d="M172.15,124.831l-0.01,0.01c-0.801-0.471-1.601-0.939-2.41-1.409l0.021-0.021
	C170.55,123.89,171.35,124.36,172.15,124.831z"/>
<path d="M178.18,127.44l-0.021,0.02l-0.381-0.028l-0.01-0.2L178.18,127.44z"/>
<path fill="#3D4EAE" d="M92.52,86.7l0.029,2.32c-0.069,1.09-0.199,2.17-0.38,3.25c-0.431,2.51-0.851,5.02-1.391,7.51
	c-0.279,1.32-0.779,2.6-1.21,3.891c-0.04,0.119-0.239,0.181-0.359,0.271c0.33-1.479,0.221-2.92-0.45-4.479
	c-0.819,2.109-1.6,4.09-2.449,6.24c-0.33-0.801-0.53-1.281-0.74-1.761c0.33-0.53,0.681-1.05,0.99-1.59
	c0.689-1.21,1.351-2.42,2.029-3.642L89.19,98.1c0.271-1.271,0.54-2.54,0.811-3.801l-0.229-0.76l-0.239,0.021
	c-0.181,1.188-0.37,2.37-0.561,3.56l-0.511,0.03c-0.15-0.63-0.37-1.25-0.46-1.89c-0.439-3.079-0.51-6.26-1.351-9.221
	c-0.93-3.25-2.09-6.5-3.939-9.43c-0.67-1.061-1.12-2.26-1.641-3.41c-0.271-0.6-0.021-0.869,0.631-1.039
	c1.579-0.4,3.14-0.891,4.819-1.381c-3.38-4.48-7.17-8.1-11.811-11.19l0.84-0.25l0.641,0.4c0.189,0.12,0.38,0.24,0.561,0.37
	l0.399,0.24c0.66,0.409,1.33,0.83,2,1.239c1.601,1.54,3.21,3.07,4.82,4.61c0.68,0.8,1.34,1.59,2.01,2.39
	c0.54,0.87,1.09,1.74,1.63,2.601l0.181,0.21l0.2,0.399l0.199,0.4l0.21,0.399h-0.01l0.2,0.2h0.01l0.199,0.4v0.01l0.2,0.4l0.189,0.21
	c0.181,0.28,0.41,0.54,0.521,0.841c1.04,2.789,2.069,5.59,3.101,8.389c0.101,0.602,0.229,1.201,0.29,1.812
	c0.04,0.33-0.04,0.671-0.07,1C92.85,86.14,92.54,86.411,92.52,86.7L92.52,86.7z"/>
<path fill="#272C64" d="M83.97,66.19c-1.61-1.53-3.221-3.061-4.82-4.601C80.75,63.13,82.36,64.66,83.97,66.19z"/>
<path fill="#FCFCFC" d="M45.83,60.76c0.021,1.28-0.83,1.99-1.78,2.58c-1.26,0.78-2.579,1.351-4.069,0.561
	c-1,3.56-4.181,6.27-7.83,6.729l-1.189-0.238c-0.25-0.342-0.5-0.671-0.76-1c0.1-0.61,0.189-1.21,0.279-1.811
	c0.899-1.13,1.811-2.26,2.71-3.399l1.17-0.811c1.141-0.41,2.28-0.82,3.42-1.22c0.7,0.25,1.4,0.51,2.16,0.79
	c1.061-1.88,2.811-2.971,5.271-2.811l0.58,0.471L45.83,60.76z"/>
<path fill="#231F20" d="M236.17,84.67c-0.529-3.67-1.449-7.25-2.97-10.66c-1.5-3.891-3.561-7.47-6.181-10.729
	c-0.101-0.16-0.2-0.34-0.319-0.49c-2.74-3.49-5.91-6.54-9.561-9.08c-0.28-0.22-0.561-0.45-0.851-0.66
	c-4.399-3.05-9.28-5.029-14.399-6.489l-6.42-1.29c-1.551-1.33-3.101-2.66-4.641-3.99c-1.67-1.3-3.33-2.59-4.99-3.88
	c-1.22-0.851-2.43-1.7-3.649-2.54l-2.811-1.8c-0.609-0.37-1.22-0.73-1.83-1.091l-0.38-0.199l-0.189-0.141
	c-2.7-1.529-5.521-2.779-8.561-3.5c-2.521-0.59-5.061-0.83-7.561,0.17c-0.87,0.521-1.75,1.04-2.63,1.561
	c-0.99,1.16-1.99,2.33-2.979,3.5c-0.221,0.33-0.471,0.64-0.641,1c-0.79,1.64-1.55,3.29-2.311,4.95
	c-3.22-0.36-6.439-0.71-9.659-1.061l-1.801-3.81c-0.93-1.21-1.851-2.42-2.779-3.641l-3.87-3.189c-2.811-1.851-5.88-2.92-9.229-3.21
	c-3.391-0.311-6.67,0.22-9.851,1.42c-0.271,0.12-0.54,0.24-0.811,0.37l-0.579,0.279l-1.24,0.69l-0.149,0.19l-1.011,0.54v-0.01
	l-1.54,1.17c-0.29,0.301-0.579,0.61-0.859,0.91l-1.239,1.08l-1.83,2.54l-1.811,3.07c-0.109,0.27-0.229,0.54-0.351,0.81l-0.21,0.8
	l-9.061,0.96l-0.399,0.04l-0.179-0.41l-0.021-0.011l-0.149-0.18l-0.061-0.59c-0.3-0.67-0.6-1.33-0.899-1.99l-0.79-1.61
	c-0.149-0.279-0.311-0.56-0.47-0.829c-0.4-0.551-0.811-1.091-1.21-1.631L89.64,31.27l-1.05-1.26l-0.19-0.09l-0.59-0.34l-0.63-0.35
	l0.021-0.07l-0.229-0.14l-0.2,0.02h-0.04l-0.16-0.149c-0.6-0.29-1.18-0.78-1.8-0.841c-1.8-0.18-3.609-0.18-5.42-0.26l-0.38,0.07
	c-2.961,0.7-5.79,1.729-8.45,3.21c-3.271,2.06-6.66,3.939-9.779,6.22c-3.391,2.47-6.511,5.311-9.75,7.99
	c-1.479,0.25-2.979,0.41-4.44,0.75C30.14,49.89,18.78,59.67,12.52,75.32c-1.46,3.63-2.351,7.431-2.63,11.36
	c-0.04,0.39-0.101,0.789-0.13,1.189c-0.271,4.459-0.19,8.889,0.909,13.26c0.21,0.949,0.33,1.939,0.641,2.851
	c0.739,2.149,1.569,4.261,2.359,6.39l3.359,6.24c1.601,2.08,3.19,4.16,4.78,6.24c1.2,0.568,2.189,1.34,2.649,2.648
	c2.229,1.721,4.46,3.44,6.681,5.16l0.47-0.13l-0.12,0.351c0.211,0.141,0.431,0.279,0.65,0.41l1.819,1.119l0.63,0.25
	c1.33,0.66,2.66,1.33,4,2l0.41,0.16l6.021,2.04l0.391,0.04c0.159-0.01,0.329-0.04,0.489-0.01l4.33,0.79
	c0.399,0.079,0.8,0.149,1.21,0.22l1.399,0.01l0.41,0.15l2.601,0.01l1.41-0.15h1.409c0.591-0.039,1.181-0.08,1.78-0.108
	c2.13-0.341,4.3-0.511,6.39-1.03c6.75-1.689,12.899-4.63,18.32-9.039c0.17-0.141,0.199-0.451,0.29-0.681
	c0.63-0.38,1.39-0.642,1.869-1.16c2.11-2.312,4.33-4.562,6.17-7.08c1.79-2.44,3.171-5.19,4.721-7.8l0.181-0.24
	c1.83-4.05,3.109-8.271,3.68-12.689c0.101-0.771,0.37-1.311,1.021-1.811c2.53-1.93,4.641-4.279,6.431-6.92
	c1.271-1.59,2.359-3.271,2.771-5.311c0.7-2.42,0.239-4.739-0.601-7.029c-0.38-1.04-0.771-2.08-1.13-3.12
	c-0.101-0.29-0.09-0.61-0.13-0.909c0.311-0.421,0.699-0.801,0.92-1.271c0.819-1.77,1.561-3.569,2.37-5.35
	c0.35-0.77,0.79-1.5,1.189-2.24c1.529,0.45,3.029,1.051,4.59,1.34c4.09,0.74,8.09,0.32,11.891-1.47h0.17
	c0.811,1.79,1.59,3.59,2.42,5.37c0.5,1.09,0.931,2.24,1.62,3.2c0.439,0.6,0.43,0.979,0.17,1.58c-0.979,2.26-1.859,4.568-1.931,7.09
	l-0.01,0.59l0.67,3.45l0.279,0.601l1.37,2.41c2.141,3.271,4.649,6.209,7.87,8.489l0.84,4.79c0.63,3.2,1.66,6.26,3.07,9.2
	c0.689,1.34,1.39,2.67,2.09,4.01c1.41,2.03,2.819,4.06,4.22,6.091l4.051,4.359l0.29,0.3l0.21,0.2c1.949,1.51,3.91,3.029,5.87,4.54
	l1.64,1.06l0.229,0.12l1.2,0.72c0.8,0.432,1.58,0.91,2.41,1.291c6.271,2.891,12.819,4.601,19.76,4.549
	c5.28-0.039,10.439-0.799,15.439-2.549c5.83-2.041,11.109-5.031,15.681-9.229l0.149-0.16l0.62-0.63c2.489-2.221,4.62-4.75,6.54-7.46
	c2.279-3.229,4.189-6.66,5.449-10.431c0.08-0.18,0.181-0.351,0.25-0.541C236.6,99.741,237.26,92.28,236.17,84.67L236.17,84.67z
	 M92.62,102.129L91,106.75l-0.229,0.59l-0.2,0.4c-0.6,1.129-1.21,2.27-1.819,3.409c-0.84,1.21-1.689,2.42-2.54,3.64
	c-1.08,1.221-2.16,2.451-3.229,3.67c-0.989,0.871-1.979,1.74-2.979,2.602c-0.22,0.18-0.5,0.29-0.75,0.439
	c-0.54,0.399-1.08,0.799-1.62,1.189l-0.609,0.42l-0.109,0.301c-3.431,2.109-7.04,3.799-10.939,4.819
	c-5.25,1.37-10.551,1.851-15.921,0.778c-0.27,0.012-0.55,0.012-0.819,0.012c-1.271-0.32-2.55-0.63-3.811-0.99
	c-0.43-0.13-0.819-0.38-1.239-0.57c-0.391-0.14-0.79-0.278-1.189-0.41c-0.53-0.209-1.07-0.408-1.61-0.608
	c-0.46-0.142-0.93-0.271-1.39-0.399l-0.221-0.391l-0.601-0.21l-0.399-0.2c-1.641-0.58-3.189-1.33-4.41-2.619l-0.399-0.399H33.56
	v-0.211l-0.2-0.199l-0.21-0.2l-0.391-0.199l-0.21-0.201H32.36l-0.21-0.199l-0.189-0.199c-0.41-0.4-0.811-0.801-1.21-1.21
	l-0.601-0.399l-1.409-1v-0.41l-0.19-0.201c-0.76-0.289-1.35-0.719-1.409-1.608l-0.811-1l-0.2-0.2l-3.01-4.619
	c-0.271-0.4-0.54-0.801-0.801-1.211l-0.609-1.8C19.93,103.6,19,99.81,18.5,95.9l-0.01-1.01l-0.011-0.382
	c-0.061-0.358-0.189-0.709-0.17-1.059c0.12-2.781,0.26-5.561,0.399-8.351l0.181-0.552l1.409-5.52c0.7-1.66,1.4-3.32,2.101-4.97
	c0.771-1.28,1.54-2.569,2.32-3.851c0.109-0.109,0.25-0.211,0.35-0.351c1.851-2.67,4.021-5.05,6.49-7.17
	c0.55-0.48,1.09-0.96,1.641-1.431l3.569-2.319c1.5-0.73,2.96-1.521,4.489-2.181c5.29-2.27,10.841-3.14,16.57-3.029l0.21,0.1
	l0.63,0.021l0.2-0.25l0.199,0.27l0.4,0.061l0.6,0.159l0.221-0.029l0.359-0.021l0.431,0.03c1.109,0.24,2.25,0.41,3.351,0.74
	c2.311,0.689,4.6,1.47,6.89,2.22l0.58,0.17l3.641,2.13l0.01,0.01l0.641,0.4c0.189,0.12,0.38,0.24,0.561,0.37l0.399,0.24
	c0.66,0.409,1.33,0.83,2,1.239c1.601,1.54,3.21,3.07,4.82,4.601v0.01c0.68,0.8,1.34,1.59,2.01,2.39c0.54,0.87,1.09,1.741,1.63,2.601
	l0.181,0.21l0.2,0.398l0.199,0.4l0.21,0.4h-0.01l0.199,0.201h0.01l0.199,0.4v0.01l0.2,0.4h0.189v0.21
	c0.181,0.28,0.41,0.54,0.521,0.841c1.04,2.789,2.069,5.59,3.101,8.389c0.141,0.191,0.38,0.361,0.399,0.57
	c0.359,2.461,0.859,4.92,0.96,7.391C94.32,94.79,93.7,98.5,92.62,102.129L92.62,102.129z M135.99,36.25l-0.08-0.09l0.09,0.08
	L135.99,36.25z M227.61,95.11c0,0.27-0.01,0.53-0.021,0.79c-0.92,0.21-0.771,1.091-0.97,1.688c-0.66,2.021-1.04,4.15-1.87,6.092
	c-1.529,3.63-3.471,7.09-6,10.109c-2.41,2.879-5.181,5.459-8.439,7.42c-2.04,1.229-4.061,2.521-6.2,3.549
	c-1.58,0.762-3.351,1.092-5.021,1.672c-2.649,0.93-5.399,1.35-8.17,1.64c-2.109,0.22-4.26,0.12-6.399,0.181
	c-0.38,0.01-0.761,0.129-1.13,0.199l2.13,0.32l-2.13-0.311c-0.271-0.01-0.54-0.021-0.801-0.021l-0.21-0.19
	c-0.949-0.199-1.899-0.41-2.859-0.6c-0.439-0.09-0.891-0.141-1.34-0.21l-0.021,0.021l-0.381-0.029
	c-0.271-0.061-0.539-0.131-0.811-0.2l-0.399-0.19l-1-0.22c-0.851-0.46-1.71-0.899-2.55-1.37c-0.311-0.17-0.59-0.41-0.88-0.609
	c-0.801-0.471-1.601-0.939-2.41-1.409l0.021-0.021l-1.859-1.689l-6.07-5.551c-0.079-0.08-0.079-0.239-0.119-0.371
	c-0.721-0.729-1.44-1.448-2.15-2.198c-0.3-0.32-0.56-0.69-0.85-1.03l-0.601-1.4l-1.83-3.608c-0.551-1.24-1.261-2.44-1.62-3.729
	c-0.76-2.75-1.33-5.551-1.979-8.33c-0.01-0.569-0.029-1.131-0.029-1.701c0.021-2.158-0.12-4.329,0.101-6.469
	c0.43-4.311,1.689-8.41,3.52-12.33c1.2-2.01,2.41-4.021,3.61-6.021l4.29-4.91l5.79-4.5l0.39-0.23l0.16-0.51l0.28,0.2l0.569-0.3
	l0.25-0.17C174,57.55,176.34,56.4,178.8,55.55c4.261-1.479,8.71-1.88,13.2-1.81l0.41,0.1l1.029,0.03l1.011,0.061l0.579,0.09
	c3.2,0.84,6.41,1.689,9.61,2.54l7.619,4.229c0.301,0.271,0.601,0.521,0.891,0.79c0.54,0.51,1.069,1.04,1.601,1.55
	c0.34,0.19,0.72,0.33,0.99,0.58c1.01,0.94,1.989,1.931,2.979,2.891c0.211,0.369,0.41,0.739,0.65,1.09c0.659,0.97,1.33,1.93,2,2.89
	l1.771,2.58l0.63,0.871c0.109,0.35,0.199,0.699,0.34,1.039c0.341,0.85,0.71,1.7,1.07,2.54c0.199,0.37,0.47,0.71,0.579,1.101
	c0.58,2.061,1.11,4.129,1.66,6.189l0.17,0.359h-0.01l0.229,8.431L227.61,95.11z"/>
<path fill="#374990" d="M57.47,56.14c-0.53,0.55-0.891,0.55-1.421,0H57.47z"/>
<path fill="#272C64" d="M18.86,92.77l-0.271,0.02v-0.58l0.17-0.028L18.86,92.77z"/>
<path fill="#050505" d="M59.07,53.87l-0.399-0.02l0.2-0.25L59.07,53.87z"/>
<path fill="#262626" d="M30.15,119.2l-1.409-1v-0.41L30.15,119.2z"/>
<path fill="#050505" d="M170.78,59.03l-0.439,0.31l0.16-0.51L170.78,59.03z"/>
<path fill="#262626" d="M28.55,117.59c-0.76-0.291-1.35-0.721-1.409-1.609l0.189-0.01C27.73,116.51,28.14,117.049,28.55,117.59z"/>
<path fill="#434DC9" d="M222.77,84.25c-0.271,1.431-0.529,2.869-0.811,4.299c-0.26,1.291-0.489,2.602-0.83,3.882
	c-0.271,1.01-0.59,2.038-1.05,2.979c-1.931,4-3.87,8.01-6.591,11.549c-1.85,2.41-4.21,4.301-6.789,5.951
	c-2.33,1.5-4.86,2.449-7.45,3.34c-1.439,0.49-2.8,1.229-4.2,1.851l-0.17,0.101c-1.601,2.33-4.149,2.619-6.619,3.01
	c-3.24,0.5-6.48,0.939-9.91,1.439c3.359,1.54,6.779,2.16,10.34,2.21l0.021,0.25c-0.641,0.091-1.279,0.28-1.91,0.261
	c-3.06-0.121-6.09-0.431-9.079-1.141c-3.689-0.87-7.261-2-10.381-4.24c-0.899-0.64-1.689-1.459-2.529-2.199
	c-0.74-0.66-1.439-1.359-2.221-1.971c-0.18-0.15-0.59-0.021-0.89-0.021c-0.721-0.729-1.44-1.448-2.15-2.198
	c-0.3-0.319-0.56-0.69-0.85-1.03l-0.601-1.4l-1.83-3.608c-0.55-1.239-1.261-2.44-1.62-3.729c-0.76-2.75-1.33-5.551-1.979-8.33
	c-0.01-0.569-0.029-1.131-0.029-1.701c0.021-2.158-0.12-4.328,0.101-6.469c0.43-4.311,1.689-8.41,3.521-12.33
	c1.199-2.01,2.409-4.021,3.609-6.021l4.29-4.91l5.79-4.5l0.39-0.23l0.439-0.31l0.57-0.3l0.25-0.17
	C174,57.55,176.34,56.4,178.8,55.55c4.261-1.479,8.711-1.88,13.2-1.81l0.41,0.1l1.029,0.03l1.011,0.061l0.579,0.09
	c3.2,0.84,6.41,1.689,9.61,2.54l7.619,4.229c0.301,0.271,0.601,0.521,0.891,0.79c0.54,0.51,1.07,1.04,1.601,1.55
	c0.189,0.69,0.38,1.37,0.58,2.051c-0.471-0.24-0.96-0.431-1.391-0.71c-2.3-1.49-4.51-3.16-6.91-4.471
	c-3.26-1.779-6.81-2.96-10.479-3.56c-1.67-0.271-3.409-0.09-5.119-0.11h-0.801c-0.92,0.07-1.859,0.09-2.779,0.22
	c-1.87,0.261-3.79,0.36-5.569,0.921c-2.711,0.859-5.33,1.989-7.931,3.159c-0.721,0.33-1.84,0.45-1.979,1.61l-0.08-0.01l-0.351,0.109
	l0.021,0.07l-0.311,0.13c-1.279,0.75-2.649,1.37-3.811,2.28c-1.189,0.939-2.14,2.17-2.42,3.76c0.011,0.271,0.021,0.54,0.04,0.811
	c-0.729,0.979-1.431,1.979-2.189,2.938c-2.529,3.2-4.489,6.711-5.71,10.61c-0.271,0.89-0.42,1.81-0.569,2.729
	c-0.32,1.959-0.69,3.92-0.891,5.899c-0.28,2.87,0.561,5.49,1.899,8.011c2.84,5.311,6.979,9.141,12.569,11.43
	c2.9,1.189,5.91,1.789,9.021,1.931c0.931-0.05,1.86-0.142,2.78-0.149c3.04-0.041,5.93-0.711,8.739-1.819
	c1.261-0.5,2.49-1.07,3.74-1.601c2.08-1.41,4.279-2.681,6.22-4.271c2.561-2.11,4.921-4.45,6.479-7.472
	c0.881-1.698,1.9-3.33,2.74-5.06c0.471-0.97,0.689-2.062,1.029-3.09l0.811-2.83c0.061-0.659,0.131-1.319,0.2-1.989
	c0.13-0.801,0.37-1.591,0.37-2.391c0.01-1.62-0.11-3.23-0.181-4.84c1.75,0.398,2.59,1.64,2.931,3.279
	c0.271,1.299,0.449,2.609,0.699,3.91c0.051,0.289,0.261,0.561,0.391,0.84l0.391-0.811l0.399-4.21c0.069-0.79,0.239-1.58,0.189-2.36
	c-0.109-1.91-0.33-3.81-0.479-5.709c-0.011-0.181,0.2-0.371,0.3-0.561c0.971,1.689,2.03,3.33,2.9,5.061
	C221.41,79.209,222.51,81.59,222.77,84.25z"/>
<path fill="#3D4EAE" d="M227.61,95.11c0,0.27-0.01,0.53-0.021,0.79c-0.92,0.21-0.771,1.091-0.97,1.688
	c-0.66,2.021-1.04,4.15-1.87,6.092c-1.529,3.63-3.471,7.09-6,10.109c-2.41,2.879-5.181,5.459-8.439,7.42
	c-2.04,1.229-4.061,2.521-6.2,3.549c-1.58,0.762-3.351,1.092-5.021,1.672c-2.649,0.93-5.399,1.35-8.17,1.64
	c-2.109,0.22-4.26,0.12-6.399,0.181c-0.38,0.01-0.761,0.129-1.13,0.199l-0.801-0.01l-0.21-0.189
	c-0.949-0.201-1.899-0.41-2.859-0.601c-0.439-0.09-0.891-0.142-1.34-0.21l-0.41-0.21l-5.62-2.399c-0.8-0.471-1.601-0.939-2.399-1.42
	l-1.859-1.689l-6.07-5.551c-0.079-0.08-0.079-0.239-0.119-0.371c0.3,0,0.71-0.129,0.89,0.021c0.78,0.61,1.479,1.311,2.221,1.971
	c0.84,0.74,1.63,1.561,2.529,2.199c3.12,2.24,6.69,3.37,10.381,4.24c2.989,0.71,6.021,1.02,9.079,1.141
	c0.631,0.021,1.271-0.17,1.91-0.261l-0.021-0.25c-3.561-0.05-6.979-0.67-10.34-2.21c3.431-0.5,6.67-0.939,9.909-1.439
	c2.471-0.391,5.021-0.68,6.62-3.01l0.17-0.101c1.4-0.62,2.761-1.36,4.2-1.851c2.59-0.891,5.12-1.84,7.45-3.34
	c2.579-1.65,4.939-3.541,6.79-5.951c2.72-3.539,4.659-7.549,6.59-11.549c0.46-0.941,0.779-1.971,1.05-2.979
	c0.341-1.28,0.57-2.591,0.83-3.882c0.28-1.43,0.54-2.868,0.811-4.299c-0.261-2.66-1.359-5.041-2.529-7.381
	c-0.87-1.729-1.931-3.369-2.9-5.06c0.351-0.11,0.7-0.21,1.04-0.33c1.36-0.46,1.479-0.739,0.63-1.95
	c-0.72-1.021-1.539-1.97-2.359-2.92c-0.319-0.391-0.75-0.69-1.119-1.021l-0.2-0.409c-0.2-0.681-0.391-1.36-0.58-2.051
	c0.34,0.19,0.721,0.33,0.99,0.58c1.01,0.94,1.989,1.931,2.979,2.891c0.21,0.369,0.409,0.739,0.649,1.09c0.66,0.97,1.33,1.93,2,2.891
	l1.771,2.58l0.63,0.869c0.109,0.35,0.2,0.7,0.34,1.04c0.341,0.851,0.711,1.7,1.07,2.54c0.199,0.37,0.47,0.71,0.579,1.1
	c0.58,2.062,1.11,4.131,1.66,6.19l0.17,0.358h-0.01l0.229,8.432C227.04,94.07,227.37,94.6,227.61,95.11L227.61,95.11z"/>
<path fill="#1D1D1D" d="M227.81,93.69l-0.2,1.42C227.37,94.6,227.04,94.07,227.81,93.69z"/>
<path fill="#434DC9" d="M93.57,88.879c-0.05-0.27-0.109-0.539-0.17-0.81c0-0.329-0.01-0.67-0.021-1l-0.359-0.829l0.01-0.381
	c-0.18,0.28-0.489,0.551-0.51,0.84l0.029,2.32c-0.069,1.09-0.199,2.17-0.38,3.25c-0.431,2.51-0.851,5.02-1.391,7.51
	c-0.279,1.32-0.779,2.6-1.21,3.891c-0.04,0.119-0.239,0.181-0.359,0.271c0.33-1.479,0.221-2.92-0.45-4.479
	c-0.819,2.109-1.6,4.09-2.449,6.24c-0.33-0.801-0.53-1.281-0.74-1.761c0.33-0.53,0.681-1.05,0.99-1.59
	c0.689-1.21,1.351-2.42,2.029-3.642L89.19,98.1c0.271-1.271,0.54-2.54,0.811-3.801l-0.229-0.76l-0.239,0.021
	c-0.181,1.188-0.37,2.37-0.561,3.56l-0.511,0.03c-0.15-0.63-0.37-1.25-0.46-1.89c-0.439-3.079-0.51-6.26-1.351-9.221
	c-0.93-3.25-2.09-6.5-3.939-9.43c-0.67-1.061-1.12-2.26-1.641-3.41c-0.271-0.6-0.021-0.869,0.631-1.039
	c1.579-0.4,3.14-0.891,4.819-1.381c-3.38-4.48-7.17-8.1-11.811-11.19l0.84-0.25l-0.01-0.01L71.9,57.2l-0.58-0.17
	c-2.29-0.75-4.579-1.53-6.89-2.22c-1.101-0.33-2.24-0.5-3.351-0.74l-0.431-0.03l-0.359,0.021l-0.221,0.029l-0.6-0.159l-0.4-0.061
	l-0.399-0.02l-0.63-0.021l-0.21-0.1c-5.729-0.11-11.28,0.76-16.57,3.029c-1.529,0.66-2.989,1.45-4.489,2.181L33.2,61.26
	c-0.551,0.471-1.091,0.95-1.641,1.431c-2.471,2.12-4.641,4.5-6.49,7.17c-0.1,0.14-0.239,0.24-0.35,0.351
	c-0.78,1.279-1.551,2.57-2.32,3.851c-0.699,1.649-1.399,3.31-2.101,4.97l-1.409,5.52L18.71,85.1c-0.141,2.79-0.279,5.568-0.399,8.35
	c-0.021,0.35,0.109,0.7,0.17,1.061l0.011,0.381l0.01,1.01c0.5,3.91,1.431,7.7,3.21,11.25l0.609,1.801
	c0.261,0.409,0.53,0.809,0.801,1.209l3.01,4.621l0.2,0.199l0.811,1l0.189-0.011c0.399,0.54,0.811,1.079,1.22,1.62l0.19,0.199
	l1.409,1.41l0.601,0.4c0.399,0.408,0.8,0.811,1.21,1.21l0.189,0.198l0.21,0.201h0.189l0.21,0.199l0.391,0.2l0.21,0.2l0.2,0.199
	l0.399,0.209l0.41,0.392c1.47,0.87,2.939,1.74,4.409,2.62l0.4,0.2c0.21,0.06,0.409,0.13,0.609,0.198
	c0.529,0.271,1.069,0.541,1.609,0.802c0.53,0.21,1.07,0.399,1.601,0.6l1.2,0.41l1.59,0.21c1.13,0.03,2.279-0.08,3.38,0.1
	c2.359,0.371,4.7,0.49,7.069,0.131c0.91-0.149,1.83-0.381,2.75-0.42c3.641-0.189,7.07-1.279,10.431-2.521
	c2.061-0.76,4.011-1.79,5.971-2.79c1.199-0.609,2.42-1.26,3.479-2.102c2.05-1.629,3.979-3.408,5.979-5.1
	c0.17-0.15,0.489-0.109,0.739-0.17c2.551-2.939,4.2-6.41,5.601-9.98C93.2,99.69,93.8,94.34,93.57,88.879L93.57,88.879z M18.59,92.79
	v-0.58l0.17-0.028l0.101,0.59L18.59,92.79z M77.65,104.34c0.16,0.101,0.351,0.209,0.45,0.359c0.8,1.311,1.43,2.69,1.46,4.26
	l-4.021,2.211c-1.21,0.33-2.42,0.66-3.62,1c-4,1-8.01,0.959-12.04,0.221l-0.609-0.221c-2.279-0.771-4.569-1.529-6.851-2.311
	c-0.399-0.14-0.79-0.33-1.181-0.49l-0.609-0.609l-1.189-0.42c-0.979-0.279-2-0.479-2.939-0.859c-2.729-1.102-5.12-2.8-7.431-4.58
	c-0.89-0.68-1.68-1.271-2.729-0.352l0.04,0.371l6.63,5.629l0.99,0.82c0.681,0.4,1.311,0.891,2.029,1.2
	c2.99,1.29,6.011,2.54,9.021,3.8c-0.449,0.2-0.88,0.551-1.34,0.59c-1.279,0.102-1.71,0.5-1.609,1.682
	c-2.511,2.05-5.53,1.55-8.32,1.449c-2.5-0.09-5.069-0.551-7.449-1.59c-1.08-0.479-2.261-0.74-3.391-1.101
	c-0.59-0.521-1.189-1.03-1.76-1.562c-0.431-0.408-0.841-0.84-1.25-1.27c-0.86,0.631-1.41,0.24-1.931-0.529
	c-1.59-2.34-3.42-4.551-4.779-7.021c-1.69-3.062-2.471-6.472-2.721-9.979c-0.109-1.461-0.42-2.91-0.37-4.359
	c0.16-4.641,0.891-9.189,2.979-13.391c1.131-2.281,2.46-4.461,3.729-6.67c0.12-0.211,0.46-0.291,0.7-0.431V70l1.021-0.851l1.92-1.57
	c0.899-1.13,1.811-2.26,2.71-3.399l1.17-0.811c0.051-0.25,0.011-0.649,0.141-0.729c2.58-1.4,5.141-2.841,7.79-4.091
	c1.26-0.6,2.7-0.85,4.069-1.21c1.57-0.399,3.131-0.89,4.729-1.08c1.229-0.14,2.53-0.6,3.761,0.07l1.199-0.189h2.41
	c0.34,0.199,0.7,0.58,1.04,0.56c1.92-0.1,3.681,0.59,5.479,1.06c2.529,0.671,4.971,1.58,7.16,3.021c1.271,0.84,2.46,1.8,3.64,2.77
	c0.19,0.16,0.25,0.881,0.2,0.891c-1.13,0.42-0.95,1.45-1.029,2.28c-0.101,1.159-0.011,2.34-0.07,3.5
	c-0.08,1.46-0.229,2.92-0.351,4.38l-1.13,0.601c1.03,1.5,2.271,2.899,3.051,4.51c1.079,2.229,1.819,4.629,2.699,6.959
	c0.601,3.17,0.7,6.381-0.021,9.521c-0.489,2.09-1.351,4.1-2.09,6.131C76.74,103.14,76.91,103.89,77.65,104.34L77.65,104.34z"/>
<path fill="#506CDC" d="M78.1,104.7c0.8,1.311,1.43,2.69,1.46,4.26l-4.021,2.211c-1.21,0.33-2.42,0.66-3.62,1
	c-4,1-8.01,0.959-12.04,0.221l-0.609-0.221c-2.279-0.771-4.569-1.529-6.851-2.311c-0.399-0.14-0.79-0.33-1.181-0.49l-0.609-0.609
	l-1.189-0.42c-0.979-0.279-2-0.479-2.939-0.859c-2.729-1.102-5.12-2.8-7.431-4.58c-0.89-0.68-1.68-1.271-2.729-0.352
	c-0.39-0.408-0.779-0.809-1.18-1.219c-0.931-1.34-1.87-2.681-2.811-4.011c-0.471-0.94-0.939-1.88-1.41-2.812
	c-0.601-1.309-1.239-2.59-1.779-3.92c-0.471-1.148-0.82-2.35-1.221-3.528c-0.01-0.16,0.011-0.34-0.021-0.5
	c-0.63-2.66-1.101-5.341-1-8.091c0-0.221-0.12-0.43-0.189-0.649c0.069-0.26,0.141-0.53,0.2-0.8c0.521-0.7,1.021-1.42,1.55-2.109
	c0.96-1.261,1.939-2.511,2.931-3.75c0.18-0.229,0.489-0.361,0.739-0.531c3.649-0.459,6.83-3.169,7.83-6.729
	c1.49,0.79,2.811,0.22,4.069-0.561c0.95-0.59,1.801-1.3,1.78-2.58L45.79,60.6l-0.58-0.471c-2.46-0.16-4.21,0.931-5.271,2.811
	c-0.76-0.28-1.46-0.54-2.16-0.79c-1.14,0.399-2.279,0.81-3.42,1.22c0.051-0.25,0.011-0.65,0.141-0.729
	c2.58-1.4,5.141-2.841,7.79-4.091c1.26-0.6,2.7-0.85,4.069-1.21c1.57-0.399,3.131-0.89,4.729-1.08c1.229-0.14,2.53-0.6,3.761,0.07
	l1.199-0.189c0.53,0.55,0.891,0.55,1.421,0h0.989c0.34,0.199,0.7,0.579,1.04,0.56c1.92-0.1,3.681,0.59,5.479,1.06
	c2.529,0.671,4.971,1.58,7.16,3.021c1.271,0.84,2.46,1.8,3.64,2.77c0.19,0.16,0.25,0.881,0.2,0.891
	c-1.13,0.42-0.95,1.45-1.029,2.279c-0.101,1.16-0.011,2.341-0.07,3.5C74.8,71.68,74.65,73.14,74.53,74.6l-1.13,0.6
	c1.03,1.5,2.271,2.9,3.051,4.51c1.079,2.23,1.819,4.631,2.699,6.961c0.601,3.17,0.7,6.379-0.021,9.521
	c-0.489,2.091-1.351,4.101-2.09,6.13c-0.301,0.82-0.13,1.57,0.609,2.02C77.81,104.44,78,104.549,78.1,104.7z"/>
<path fill="#3D4EAE" d="M55.05,114.37c-0.449,0.2-0.88,0.551-1.34,0.59c-1.279,0.102-1.71,0.5-1.609,1.682
	c-2.511,2.05-5.53,1.55-8.32,1.449c-2.5-0.09-5.069-0.551-7.449-1.59c-1.08-0.479-2.261-0.74-3.391-1.101
	c-0.59-0.521-1.189-1.03-1.76-1.562c-0.431-0.408-0.841-0.84-1.25-1.27c-0.86,0.631-1.41,0.24-1.931-0.529
	c-1.59-2.34-3.42-4.551-4.779-7.021c-1.69-3.062-2.471-6.472-2.721-9.979c-0.109-1.461-0.42-2.91-0.37-4.359
	c0.16-4.641,0.891-9.189,2.979-13.391c1.131-2.281,2.46-4.461,3.729-6.67c0.12-0.211,0.46-0.291,0.7-0.431V70l1.021-0.851l1.92-1.57
	c-0.09,0.601-0.181,1.2-0.279,1.811c0.26,0.33,0.51,0.658,0.76,1l1.189,0.238c-0.25,0.17-0.561,0.302-0.739,0.531
	c-0.99,1.239-1.971,2.489-2.931,3.75C27.95,75.6,27.45,76.32,26.93,77.02c-0.061,0.27-0.131,0.54-0.2,0.8
	c0.069,0.22,0.189,0.431,0.189,0.649c-0.101,2.75,0.37,5.431,1,8.091c0.03,0.159,0.011,0.34,0.021,0.5
	c0.399,1.181,0.75,2.38,1.221,3.528c0.54,1.33,1.18,2.611,1.779,3.92c0.471,0.932,0.939,1.871,1.41,2.812
	c0.939,1.33,1.88,2.671,2.811,4.011c0.399,0.41,0.79,0.811,1.18,1.219l0.04,0.371l6.63,5.629l0.99,0.82
	c0.681,0.4,1.311,0.891,2.029,1.2C49.02,111.86,52.04,113.11,55.05,114.37z"/>
<path fill="#272C64" d="M89.19,73.61v0.21L89,73.61H89.19z"/>
<path fill="#FEFEFE" d="M175.12,63.75c-0.03,0.23-0.07,0.45-0.11,0.67l-0.05,0.15c-0.38,1.66-1.439,2.84-2.75,3.84l-0.47,0.36
	c-1.12,0.55-2.25,1.09-3.37,1.63l-0.21,0.091l-0.431,0.059l-0.189,0.012l-1.24-0.07l-0.14-0.109l-0.021-0.021l-0.229-0.34L165.89,70
	l-0.17-0.21l-0.261-0.399c-0.021-0.271-0.029-0.54-0.04-0.811c0.28-1.59,1.229-2.82,2.42-3.76c1.16-0.91,2.53-1.53,3.811-2.28
	l0.311-0.13l-0.021-0.07l0.351-0.109l0.08,0.01l2.21,0.45l0.21,0.26l0.189,0.36L175.12,63.75L175.12,63.75z"/>
<path fill="#3D4EAE" d="M218.38,71.48c-0.34,0.12-0.689,0.22-1.04,0.33c-0.1,0.188-0.311,0.38-0.3,0.56
	c0.149,1.9,0.37,3.801,0.479,5.711c0.05,0.779-0.12,1.569-0.189,2.359l-0.399,4.21l-0.391,0.81c-0.13-0.278-0.34-0.549-0.391-0.84
	c-0.25-1.3-0.43-2.609-0.699-3.91c-0.341-1.64-1.181-2.879-2.931-3.278c-0.26-1.091-0.51-2.19-0.79-3.28
	c-0.989-3.79-2.8-7.141-5.439-10.04c-0.09-0.09-0.13-0.23-0.189-0.34l-0.41-0.2c-1.811-1.75-3.641-3.49-5.96-4.55
	c-0.92-0.431-1.91-0.801-2.899-0.931c-1.391-0.189-2.811-0.18-4.21-0.18c-1.761-0.01-3.53-0.11-5.25,0.12
	c-2.03,0.28-4.021,0.85-6.011,1.36c-0.311,0.079-0.529,0.52-0.79,0.79c-2.43-0.29-4.39,0.81-5.59,3.13l-0.189-0.36l-0.21-0.26
	l-2.21-0.45c0.14-1.16,1.26-1.28,1.979-1.61c2.601-1.17,5.22-2.3,7.93-3.16c1.78-0.56,3.7-0.659,5.57-0.92
	c0.92-0.13,1.859-0.149,2.779-0.22h0.801c1.71,0.021,3.449-0.16,5.119,0.11c3.671,0.6,7.221,1.779,10.479,3.56
	c2.4,1.311,4.61,2.98,6.91,4.47c0.431,0.28,0.92,0.471,1.391,0.711l0.199,0.409c0.37,0.33,0.801,0.63,1.12,1.021
	c0.82,0.95,1.641,1.899,2.359,2.92C219.86,70.741,219.74,71.02,218.38,71.48L218.38,71.48z"/>
<path fill="#FCFCFC" d="M180.53,62.26c-0.859,1.03-1.979,1.631-3.279,1.94c-0.8,0.19-1.5,0.09-2.13-0.45l-0.141-0.439
	c1.2-2.32,3.16-3.42,5.59-3.13l0.229,0.17C181.25,61.06,181,61.69,180.53,62.26L180.53,62.26z"/>
<path fill="#FCFCFC" d="M166.14,70.36l-0.101,0.02l-0.101-0.01L165.89,70l0.021,0.021L166.14,70.36L166.14,70.36z"/>
<path fill="#FCFCFC" d="M174.96,64.57l0.05-0.15C175.05,64.48,175.04,64.53,174.96,64.57z"/>
<path fill="#FCFCFC" d="M167.73,70.549l-0.101,0.031l-0.09-0.021L167.73,70.549z"/>
<path fill="#506CDC" d="M212.7,82.27c0,0.8-0.24,1.59-0.37,2.391c-0.07,0.67-0.141,1.33-0.2,1.989l-0.811,2.83
	c-0.34,1.028-0.561,2.12-1.029,3.09c-0.84,1.729-1.859,3.36-2.74,5.06c-1.56,3.021-3.92,5.361-6.479,7.472
	c-1.939,1.59-4.14,2.858-6.22,4.271c-1.25,0.529-2.479,1.1-3.74,1.6c-2.811,1.109-5.699,1.779-8.739,1.82
	c-0.92,0.01-1.851,0.101-2.78,0.149c-3.109-0.142-6.119-0.739-9.021-1.931c-5.59-2.291-9.729-6.119-12.569-11.43
	c-1.34-2.521-2.181-5.141-1.899-8.011c0.199-1.979,0.569-3.94,0.891-5.899c0.149-0.92,0.3-1.84,0.569-2.729
	c1.221-3.899,3.181-7.409,5.71-10.61c0.761-0.959,1.46-1.959,2.189-2.938l0.261,0.399l0.17,0.209l0.05,0.371l0.101,0.01l0.101-0.021
	l0.021,0.021l0.14,0.109l1.24,0.07l0.09,0.02l0.101-0.029l0.431-0.061l0.21-0.09c1.12-0.54,2.25-1.08,3.37-1.63l0.47-0.36
	c1.311-1,2.37-2.18,2.75-3.84c0.08-0.04,0.09-0.09,0.051-0.15c0.039-0.22,0.079-0.439,0.109-0.67c0.63,0.54,1.33,0.641,2.13,0.45
	c1.3-0.31,2.42-0.91,3.28-1.94c0.47-0.569,0.72-1.199,0.27-1.909l-0.229-0.17c0.26-0.271,0.479-0.711,0.789-0.79
	c1.99-0.511,3.979-1.08,6.011-1.36c1.72-0.23,3.489-0.13,5.25-0.12c1.399,0,2.819-0.01,4.21,0.18c0.99,0.13,1.979,0.5,2.899,0.931
	c2.319,1.06,4.149,2.8,5.96,4.55l0.41,0.2c0.061,0.109,0.101,0.25,0.189,0.34c2.641,2.899,4.45,6.25,5.439,10.04
	c0.28,1.09,0.53,2.189,0.79,3.28C212.59,79.04,212.71,80.65,212.7,82.27L212.7,82.27z"/>
</svg>
