<?xml version="1.0" encoding="utf-8"?>
<!-- Generator: Adobe Illustrator 16.0.0, SVG Export Plug-In . SVG Version: 6.00 Build 0)  -->
<!DOCTYPE svg PUBLIC "-//W3C//DTD SVG 1.1//EN" "http://www.w3.org/Graphics/SVG/1.1/DTD/svg11.dtd">
<svg version="1.1" id="Layer_1" xmlns="http://www.w3.org/2000/svg" xmlns:xlink="http://www.w3.org/1999/xlink" x="0px" y="0px"
	 width="453.441px" height="105px" viewBox="0 0 453.441 105" enable-background="new 0 0 453.441 105" xml:space="preserve">
<circle fill="#FFCD05" cx="67.351" cy="52.083" r="46.107"/>
<path fill="#FFFFFF" d="M31.444,40.167c0.487,0.149,0.981,0.284,1.463,0.447c2.539,0.868,5.075,1.747,7.614,2.611
	c1.101,0.375,2.218,0.696,3.306,1.104c1.142,0.427,2.272,0.887,3.371,1.41c0.86,0.41,1.653,0.962,2.502,1.401
	c0.438,0.228,0.935,0.349,1.403,0.523c0.188,0.07,0.377,0.134,0.553,0.228c0.523,0.289,1.038,0.591,1.557,0.889
	c0.653,0.374,1.288,0.783,1.963,1.117c0.569,0.283,1.188,0.47,1.773,0.724c0.285,0.122,0.544,0.3,0.811,0.461
	c0.443,0.267,0.875,0.557,1.327,0.807c0.507,0.28,1.039,0.512,1.539,0.8c0.093,0.054,0.15,0.297,0.113,0.422
	c-0.361,1.268-0.793,2.52-1.116,3.798c-0.574,2.286-0.807,4.61-0.423,6.956c0.319,1.955,0.737,3.893,1.043,5.851
	c0.38,2.435,0.547,4.89,0.465,7.361c-0.05,1.502-0.055,3.006-0.075,4.508c-0.002,0.238,0.014,0.478,0.02,0.697
	c0.074,0.034,0.117,0.071,0.139,0.06c0.872-0.361,0.871-0.361,0.922,0.57c0.008,0.159,0.034,0.316,0.059,0.471
	c0.007,0.03,0.058,0.051,0.166,0.139c0.146-0.293,0.295-0.563,0.414-0.844c0.131-0.305,0.259-0.27,0.395-0.019
	c0.135,0.245,0.249,0.5,0.385,0.743c0.143,0.26,0.316,0.232,0.438-0.008c0.172-0.336,0.307-0.69,0.462-1.037
	c0.124-0.275,0.255-0.43,0.464-0.047c0.127,0.231,0.277,0.474,0.604,0.19c0.047-0.043,0.264,0.047,0.356,0.126
	c0.81,0.701,1.444,0.575,1.798-0.443c0.201-0.578,0.262-1.207,0.362-1.816c0.044-0.266,0.026-0.537,0.036-0.746
	c0.391,0.732,0.732,1.514,1.207,2.206c0.223,0.323,0.699,0.475,1.061,0.705c0.152-0.359,0.383-0.704,0.441-1.079
	c0.127-0.818,0.168-1.652,0.219-2.214c0.479,0.485,1.118,1.145,1.775,1.79c0.113,0.111,0.3,0.15,0.451,0.222
	c0.053-0.183,0.172-0.371,0.149-0.54c-0.265-1.861-0.446-3.742-0.854-5.572c-0.621-2.799-1.676-5.449-2.918-8.027
	c-0.004-0.006-0.004-0.012-0.006-0.016c-0.516-1.132,0.574-2.022,0.693-2.115c0.006-0.004,0.01-0.008,0.01-0.008
	c0.211-0.138,0.404-0.408,0.624-0.9c0.136-0.305,0.587-0.45,0.815-0.729c0.857-1.047,1.688-2.118,2.521-3.183
	c0.521-0.668,1.073-1.316,1.537-2.023c0.477-0.725,0.939-1.479,1.266-2.279c0.299-0.732,0.338-1.564,0.608-2.311
	c0.587-1.613,1.151-3.249,1.907-4.784c0.766-1.557,1.771-2.996,2.635-4.508c0.305-0.534,0.459-1.153,0.756-1.691
	c0.615-1.113,1.32-2.176,1.91-3.301c0.584-1.117,1.389-2.037,2.283-2.893c0.141-0.135,0.312-0.251,0.492-0.332
	c3.369-1.534,6.865-2.67,10.505-3.384c1.175-0.231,2.319-0.623,3.47-0.962c0.18-0.054,0.327-0.223,0.488-0.338
	c-0.2-0.059-0.405-0.182-0.596-0.163c-1.096,0.106-2.217,0.131-3.275,0.397c-3.711,0.932-7.412,1.908-11.092,2.957
	c-1.35,0.384-2.609,0.186-3.895-0.122c-2.351-0.561-4.676-0.65-6.957,0.312c-1.527,0.644-2.582,1.774-3.354,3.212
	c-0.537,1.003-1.053,2.027-1.682,2.971c-0.271,0.405-0.807,0.638-1.232,0.933c-0.805,0.559-1.596,1.143-2.436,1.642
	c-0.347,0.206-0.863,0.408-1.205,0.299c-1.803-0.578-3.664-0.282-5.49-0.45c-1.531-0.139-3.076-0.113-4.616-0.172
	c-1.661-0.061-3.321-0.114-4.981-0.208c-2.283-0.128-4.537-0.459-6.736-1.115c-1.227-0.366-2.465-0.703-3.698-1.038
	c-0.261-0.07-0.533-0.078-0.799-0.115c-0.015,0.062-0.03,0.122-0.046,0.184c1.38,0.439,2.759,0.878,3.748,1.193
	c-0.969-0.089-2.346-0.17-3.707-0.354c-1.368-0.184-2.731-0.446-4.086-0.721C34.194,40.718,32.837,40.38,31.444,40.167z"/>
<text transform="matrix(1 0 0 1 136.4409 64)" font-family="'Sansation-Regular'" font-size="30">Hummingbirds</text>
</svg>
