<?xml version="1.0" encoding="utf-8"?>
<!-- Generator: Adobe Illustrator 16.0.0, SVG Export Plug-In . SVG Version: 6.00 Build 0)  -->
<!DOCTYPE svg PUBLIC "-//W3C//DTD SVG 1.1//EN" "http://www.w3.org/Graphics/SVG/1.1/DTD/svg11.dtd">
<svg version="1.1" id="Layer_1" xmlns="http://www.w3.org/2000/svg" xmlns:xlink="http://www.w3.org/1999/xlink" x="0px" y="0px"
	 width="135.882px" height="105px" viewBox="0 0 135.882 105" enable-background="new 0 0 135.882 105" xml:space="preserve">
<circle fill-rule="evenodd" clip-rule="evenodd" fill="#A4A580" cx="67.351" cy="52.083" r="46.107"/>
<path fill-rule="evenodd" clip-rule="evenodd" fill="#FFFFFF" d="M101.577,40.996c-1.354,0.275-2.717,0.537-4.086,0.721
	c-1.361,0.184-2.738,0.265-3.707,0.354c0.99-0.315,2.369-0.754,3.748-1.193c-0.015-0.062-0.03-0.122-0.045-0.184
	c-0.266,0.037-0.539,0.045-0.799,0.115c-1.234,0.335-2.472,0.672-3.698,1.038c-2.2,0.656-4.454,0.987-6.737,1.115
	c-1.66,0.094-3.32,0.147-4.981,0.208c-1.54,0.059-3.085,0.033-4.616,0.172c-1.827,0.168-3.688-0.128-5.491,0.45
	c-0.341,0.109-0.858-0.093-1.205-0.299c-0.84-0.499-1.63-1.083-2.435-1.642c-0.426-0.295-0.961-0.528-1.232-0.933
	c-0.63-0.944-1.145-1.968-1.682-2.971c-0.771-1.438-1.827-2.568-3.354-3.212c-2.281-0.962-4.606-0.873-6.957-0.312
	c-1.285,0.308-2.544,0.506-3.894,0.122c-3.68-1.049-7.381-2.025-11.092-2.957c-1.059-0.266-2.18-0.291-3.275-0.397
	c-0.191-0.019-0.396,0.104-0.596,0.163c0.161,0.115,0.309,0.284,0.488,0.338c1.151,0.339,2.295,0.731,3.47,0.962
	c3.64,0.714,7.136,1.85,10.505,3.384c0.179,0.081,0.352,0.197,0.492,0.332c0.895,0.856,1.699,1.776,2.283,2.893
	c0.59,1.125,1.295,2.188,1.91,3.301c0.297,0.538,0.451,1.157,0.756,1.691c0.863,1.512,1.869,2.951,2.635,4.508
	c0.756,1.535,1.32,3.171,1.907,4.784c0.271,0.746,0.31,1.578,0.608,2.311c0.326,0.8,0.789,1.554,1.266,2.279
	c0.464,0.707,1.017,1.355,1.538,2.023c0.833,1.065,1.663,2.136,2.521,3.183c0.229,0.279,0.68,0.425,0.815,0.729
	c0.22,0.493,0.413,0.763,0.624,0.9c0,0,0.004,0.004,0.01,0.008c0.119,0.093,1.209,0.984,0.694,2.115
	c-0.002,0.005-0.003,0.011-0.007,0.016c-1.242,2.579-2.297,5.229-2.918,8.028c-0.408,1.83-0.59,3.71-0.854,5.572
	c-0.023,0.169,0.096,0.358,0.15,0.54c0.151-0.072,0.338-0.11,0.451-0.222c0.657-0.645,1.297-1.305,1.775-1.79
	c0.051,0.562,0.092,1.396,0.219,2.214c0.058,0.375,0.289,0.72,0.441,1.079c0.361-0.23,0.838-0.382,1.061-0.705
	c0.475-0.692,0.816-1.474,1.207-2.206c0.009,0.209-0.008,0.481,0.036,0.746c0.101,0.61,0.161,1.239,0.362,1.817
	c0.354,1.018,0.988,1.144,1.798,0.443c0.093-0.079,0.309-0.169,0.356-0.126c0.327,0.283,0.477,0.041,0.604-0.19
	c0.209-0.383,0.34-0.229,0.464,0.047c0.155,0.346,0.29,0.701,0.462,1.037c0.121,0.24,0.295,0.267,0.438,0.007
	c0.135-0.243,0.25-0.498,0.384-0.743c0.136-0.251,0.263-0.286,0.394,0.019c0.119,0.28,0.269,0.551,0.414,0.844
	c0.109-0.089,0.16-0.109,0.166-0.139c0.025-0.155,0.051-0.312,0.059-0.471c0.051-0.932,0.05-0.932,0.922-0.57
	c0.021,0.011,0.064-0.026,0.139-0.06c0.006-0.22,0.022-0.459,0.02-0.697c-0.021-1.502-0.026-3.006-0.076-4.508
	c-0.082-2.471,0.085-4.926,0.465-7.361c0.305-1.958,0.723-3.896,1.043-5.851c0.383-2.345,0.152-4.67-0.423-6.956
	c-0.323-1.278-0.755-2.53-1.116-3.798c-0.037-0.125,0.021-0.368,0.113-0.422c0.5-0.288,1.033-0.52,1.539-0.8
	c0.452-0.25,0.884-0.54,1.328-0.807c0.266-0.161,0.525-0.339,0.81-0.461c0.585-0.254,1.204-0.441,1.774-0.724
	c0.674-0.334,1.309-0.743,1.962-1.117c0.519-0.298,1.034-0.6,1.557-0.889c0.175-0.094,0.365-0.158,0.553-0.228
	c0.468-0.174,0.964-0.295,1.403-0.523c0.848-0.439,1.641-0.991,2.502-1.401c1.098-0.523,2.23-0.983,3.371-1.41
	c1.088-0.408,2.205-0.729,3.306-1.104c2.539-0.864,5.075-1.743,7.614-2.611c0.482-0.163,0.975-0.298,1.463-0.447
	C104.302,40.38,102.946,40.718,101.577,40.996z"/>
</svg>
