<svg xmlns="http://www.w3.org/2000/svg" width="460" height="358.23" viewBox="162.5 126.5 460 358.23" enable-background="new 162.5 126.5 460 358.23"><style type="text/css"><![CDATA[
	.st0{fill:#FFFFFF;}
	.st1{fill:#A4A580;}
]]></style><path d="M614.81 350.71v.75c-7.43 3.88-9.41 4.88-12.71-2.83-.28.55-.43 1.13-.51 1.72l-1.87-.26c.37-2.61.8-5.55 1.24-8.66-1.55 1.15-2.56 1.91-3.27 2.43-1.78-2.35-3.2-4.23-5.14-6.78-1.56 1.32-3.11 3.45-5.16 4.18-2.04.73-4.89 2.96-6.61-.33-.55.71-1.13 1.47-1.73 2.22-.62-.78-1.5-1.47-1.81-2.36-.61-1.74-1.07-3.54-1.61-5.31l1.87-.56c.26.88.53 1.77.78 2.65 2.29-.19 5.55-3.4 6.17 2.49l1.01-.28c.48-.97 1.33-1.92 1.38-2.9.11-2.29.64-2.83 3.07-2.11 2.05.61 4.43.13 6.95.13-.3 1.34-.5 2.27-.88 3.95 1.26-.47 2.63-.53 3.04-1.2 2.02-3.28 3.37-2.73 4.51.53.08.23.09.68.17.69 7.28.61 6.23 9.02 11.11 11.84zm-3.64.75c-1.15-1.98-2.02-3.47-2.83-4.88h-4.27c.47 1.22.88 2.28 1.29 3.33l.72-.93c1.55.76 3.1 1.51 5.09 2.48z"/><path class="st1" d="M608.33 346.58c.81 1.41 1.68 2.9 2.83 4.88-1.99-.96-3.54-1.72-5.1-2.48l-.72.93c-.41-1.05-.81-2.11-1.29-3.33h4.28z"/><path d="M599.72 350.09l1.87.26c-.46 3.5 1.82 7.5-2.18 10.77-1.85 1.52-2.98 1.96-4.24.83-.8-.72-.5-2.67-.76-4.59-.54.38-1.68 1.14-2.8 1.93-1.62 1.16-3.27 2.29-4.85 3.51-1.02.79-2.22 1.55-2.88 2.61-2.5 4.01-2.71 4.1-6.68 1.47-.65-.43-1.49-.6-2.32-.93.34-1.27.62-2.31.89-3.34-3.01-1.38-3.01-1.38-2.13-4.81.08-.32.3-.67.23-.96l-.11-.44 1.65-.41c.28.96 1.07 1.69 1.71 1.96 2.23.92 1.63 1.96 1.14 3.41-.77 2.28-.34 4.1 1.08 4.7 3.15-2.28 5.97-3.87 8.19-6.07 1.55-1.53 4.24-2.82 3.31-5.95-.11-.4.43-1.36.84-1.49 2.6-.78 5.25-1.41 7.97-2.11.04-.1.06-.23.07-.35z"/><path class="st1" d="M600.96 341.43c-.44 3.11-.87 6.05-1.24 8.66l-.05.37c-2.73.71-5.37 1.33-7.97 2.11-.41.13-.96 1.09-.84 1.49.93 3.13-1.76 4.43-3.31 5.95-2.22 2.2-5.04 3.79-8.19 6.07-1.42-.6-1.85-2.43-1.08-4.7.49-1.45 1.09-2.49-1.14-3.41-.64-.26-1.43-1-1.71-1.96-.23-.8-.1-1.75.77-2.72.41-.47-.01-1.86-.3-2.73-1.98-5.85-4.1-11.65-5.94-17.53-.2-.64 1.17-2.51 1.62-2.45 1.08.13 2.59.88 2.96 1.78.42 1.01.77 2.07 1.09 3.13.54 1.77 1 3.57 1.62 5.31.32.89 1.19 1.58 1.81 2.36.59-.75 1.18-1.51 1.73-2.22 1.71 3.28 4.56 1.06 6.61.33 2.05-.74 3.61-2.86 5.16-4.18 1.94 2.55 3.36 4.43 5.14 6.78.7-.53 1.72-1.29 3.26-2.44z"/><path d="M584.11 377.95c.65.19 1.5 1.99 1.24 2.63-.97 2.34-2.36 4.52-3.6 6.76.43.22 1.35.69 2.62 1.35-1.02 1.44-1.82 2.64-2.71 3.77-2.07 2.63-4.21 5.2-6.27 7.82l-1.65-1.32c.09-.16.14-.29.1-.39-1.58-4.37 3.19-4.25 4.5-6.52.43-.74.71-1.58 1.23-2.8-6.75 1.48-11.45 6.21-17.95 5.88l-.67-.05c-2.93-.31-6.16-2.08-6.32-4.04-1.27-.6-2.76-.83-2.98-1.5-.43-1.25-.13-2.75-.13-4.14l-.77-.89c-1.04 3.32-2.33 5.85-5.63 3.05-.9-.77-2.05-1.27-3.09-1.89.9-1.1 1.65-2.41 2.74-3.28 2.1-1.65 4.39-3.04 6.73-4.63l.83.52c-.32.6-.75 1.3-1.3 2.16-.41.65-.56 1.47-.92 2.48 1.39-.24 2.43-.42 3.61-.63.07 1.04.17 1.9.17 2.77-.01 2.75.58 4.36 3.68 2.32.57-.38 1.92-.5 2.3-.13 3.43 3.36 5.69.75 7.54-1.68 1.89-2.47 3.51-3.14 5.79-.84-.42 1.11-.82 2.17-1.27 3.38 1.51-.52 2.68-.92 3.52-1.2-.67-3.96-1.5-7.7-1.8-11.48-.09-1.14 1.14-2.57 2.11-3.52.34-.32 2.38.26 2.51.73.86 3.1 2.94 4.49 5.84 5.31zm-4.2 2.36l-2.46-4-1.29.57c.53 3.22 1.07 6.43 1.61 9.63.36 0 .73 0 1.1.01 1.21-1.51 2.41-3.03 3.71-4.65l-3.44-.88c.25-.22.51-.44.77-.68z"/><path class="st1" d="M577.45 376.32l2.46 4c-.25.23-.51.46-.77.68l3.44.88c-1.3 1.62-2.5 3.14-3.71 4.65-.37-.01-.74-.01-1.1-.01l-1.61-9.63c.43-.19.86-.39 1.29-.57z"/><path class="st1" d="M579.57 389.26c-.52 1.22-.8 2.05-1.23 2.8-1.32 2.27-6.08 2.16-4.5 6.52.04.1-.01.23-.1.39-.2.34-.65.77-.92 1.09-3.71 4.17-4.12 9.69-5.98 14.62-.31.8.04 1.86-.67 3.34-2-2.74-4-5.46-5.82-7.96 2.49-3.96 3.87-7.69 8.16-9.16 1.16-.4 1.58-2.92 2.34-4.47l-.83-.71c-2.13.96-4.28 1.92-6.21 2.78l-2.25-1.87.08-1.49c6.48.33 11.18-4.4 17.93-5.88z"/><path d="M577.5 334.93l-1.87.56c-.32-1.06-.67-2.11-1.09-3.13-.38-.9-1.88-1.65-2.96-1.78-.46-.06-1.82 1.81-1.62 2.45 1.84 5.88 3.96 11.69 5.94 17.53.29.87.71 2.26.3 2.73-.86.97-.99 1.92-.77 2.72l-1.64.41c-1.1-4.47-2.18-8.94-3.38-13.4-.89-3.37-1.96-6.7-3.04-10.42-2.54 3.83-5.08 6.88-3.87 11.73.23.9.2 2.17.02 3.41l-2.07-.23c.19-.97.04-2-.17-2.69-1.47-4.88.78-8.27 3.08-11.99.83-1.33.73-3.23 1.05-4.88l1.31-1.34c.51.36 1.05.82 1.63 1.4-.19-1.99.09-3.38-.47-4.09-1.61-2.03-3.56-3.79-5.39-5.64-1.04-1.06-1.8-1.81-2.41-2.31l1.23-1.35c3.42 3.09 6.67 6.03 10.13 9.16 1.33-.7 2.96-.99 3.6 2.11.63 3.04 1.56 6.02 2.46 9.04zM575.39 400.29l-.04.05c-3.57 4.52-4.71 10.03-5.91 15.43-.29 1.26 1.26 3.49-.86 3.75-1.76.21-3.73-1.09-5.56-1.83-1.08-.44-2.17-.94-3.07-1.65-.84-.65-2.09-1.67-2.02-2.43.11-1.33.4-2.65.73-3.97l1.67.41c1.83 2.5 3.83 5.22 5.82 7.96.71-1.48.36-2.54.67-3.34 1.86-4.92 2.28-10.45 5.98-14.62.28-.32.72-.75.92-1.09l1.67 1.33zM570.01 395.72l.83.71c-.76 1.55-1.18 4.07-2.34 4.47-4.29 1.47-5.67 5.2-8.16 9.16l-1.67-.41c.24-.98.5-1.96.73-2.95l-.92-.59c-.52.53-.96 1.17-1.58 1.56-2.51 1.57-4.94 3.5-7.69 4.3-.83.24-2.76-2.61-3.89-4.24-1.67-2.41-2.82-5.22-4.67-7.45-2.08-2.51-7.79-1.1-8.27 2.04-.42 2.77-.2 5.72.22 8.51.17 1.13.38 2.25.62 3.37l-1.62.35-.11-.44c-.86-3.28-1.29-6.73-1.49-10.13-.04-.55-.02-1.08.04-1.58.3-2.28 1.65-4.05 4.21-5.04 3.24-1.27 6.22-1.2 8.29 1.77 2.43 3.48 4.48 7.23 6.64 10.79 1.25-.45 2.62-.68 3.65-1.41.83-.58 1.42-1.68 1.83-2.67.41-.99.47-2.13.68-3.19.89.42 1.79.84 2.19 1.04 1.36-2.39 2.69-4.73 4.02-7.06l2.25 1.87c1.93-.86 4.07-1.82 6.21-2.78zM570.17 376.08c.04.31-.23.68-.42.98-.65.99-1.33 1.94-1.99 2.91-.59-1.08-1.22-2.15-1.75-3.25-.14-.3-.02-.74-.02-1.1l-.46-.24c.61-1.19 1.11-2.47 1.93-3.5.26-.32 1.94-.12 2.02.14.4 1.29.54 2.68.69 4.06z"/><path class="st1" d="M567.87 323.93c.56.71.29 2.1.47 4.09-.58-.58-1.12-1.04-1.63-1.4-4.92-3.47-7.24 2.04-10.14 4.04-6.55 4.55-12.57 9.87-18.86 14.82-.7.55-2.03 1.24-2.44.96-.69-.47-.72-1.79-1.29-2.56-1.38-1.86-2.92-3.61-4.81-5.91-2.75 5.31 1.29 8.52 1.74 12.07-1.86 1.2-3.71 2.4-6 3.9-1.54-1.71-3.09-3.52-4.76-5.22-.51-.51-1.35-.94-2.06-.96-5.65-.21-9.66-4.19-9.37-9.57.07-1.21.52-2.39.59-2.7 4.27-1.44 8.42-2.7 12.44-4.29.5-.2 1.05-1.3 1.24-2.07.08-.35.1-.62 0-.74-2.05-2.4-.8-6.26-4.98-8.13-2.99-1.34-7.88-3.33-7.14-8.97.13-.95-2.63-3.42-3.62-3.2-3.64.81-3.91-1.92-4.24-3.8-.5-2.8-1.38-4.61-4.5-4.77-.57-.03-1.18-.76-1.63-1.29-.92-1.07-1.74-2.21-3.32-4.25 4.36 1.76 8.06 3.25 11.65 4.69 1.05 1.74 2.15 3.57 3.34 5.55 2.52-1.04 4.84-1.64 5.89 1.78.12.41 1.31.71 1.98.68 3.08-.17 4.1.71 3.27 4.07-.07.31.17.79.59 1.3.83.99 2.31 2.12 3.38 2.41 3.35.88 7.09.33 9.78 3.33.37.42 1.88.56 1.96.4 1.31-2.71 3.84-2.57 6.25-3.01 1.56-.28 3.01-1.2 4.5-1.83-.04.47-.09.96-.14 1.44 1.19.68 2.31 1.68 3.58 1.94 1.62.34 3.36.08 6.04.08 2.25-1.65 2.89-2.12 4.45-.84.61.5 1.36 1.25 2.4 2.31 1.83 1.86 3.79 3.62 5.39 5.65z"/><path d="M566.72 326.62l-1.32 1.34-1.25-.44c-8.11 6.31-16.21 12.62-24.3 18.94-.5.38-.85.95-1.38 1.27-1.32.79-2.71 1.47-3.87 2.11.17 1.7.37 3.84.57 5.98l-.96.45c-1.32-1.01-2.63-2.01-3.95-3.01l.2.94c-1.8.25-3.64.8-5.43.98l-.11-1.22c2.3-1.49 4.15-2.7 6-3.9-.45-3.55-4.49-6.76-1.74-12.07 1.89 2.3 3.43 4.04 4.81 5.91.57.77.6 2.08 1.29 2.55.41.28 1.74-.41 2.44-.96 6.28-4.94 12.3-10.27 18.85-14.82 2.91-2.01 5.22-7.52 10.15-4.05z"/><path class="st1" d="M564.15 327.51l1.25.44c-.32 1.65-.23 3.55-1.05 4.88-2.3 3.72-4.55 7.11-3.08 11.99.21.69.36 1.72.17 2.69-.25 1.32-1.11 2.53-3.28 2.63-1.71 5.01-6.92 5.41-10.49 7.97-2.66 1.9-5.93 3.19-8.07 5.53-3.48 3.8-9.57 6.12-8.33 13.15.23 1.28-1.48 2.8-1.95 4.31-.22.71-.44 1.43-.64 2.15-.52 1.83-.96 3.68-1.24 5.55-.8 5.48-1.41 10.98-2.02 16.49-.1.9.19 1.86.3 2.79l1.38.32c.62-2.02 1.75-4.04 1.89-6.05l1.02.05c-.07.5-.08 1.03-.04 1.58.21 3.41.63 6.85 1.49 10.13l.11.44c.99 4.13.12 6.7-3.92 8.63-4.52 2.15-9.15 4.03-14.05 6.17-.47-.59-1.21-1.52-2.07-2.59-2.48 1.57-5.63 2.28-7.63 5.5l-.91.14c-.07-.36-.14-.72-.2-1.09l-13.92-.77c-.77-.04-1.77.23-2.26-.15-4.02-3.19-8.52-5.53-10.31-11.27-2.07-6.68-4.79-13.17-7.51-19.78-.93-2.26-1.86-4.54-2.77-6.84 3.61-1.13 2.22-3.77 1.44-5.99-1.63-4.57-3.21-9.21-5.42-13.5-1.35-2.63-3.83-4.7-5.38-6.52.84-2.22 1.61-4.5 2.43-6.77.96-2.7 1.99-5.38 3.27-7.94 1.98-4 .73-6.15-2.46-8.43-1.65-1.19-3.07-2.97-4.06-4.77-2.1-3.81-5.94-5.26-9.3-7.3-2.02-1.23-2.35-2.4-1.6-4.44.71-1.94 1.14-3.98 1.7-5.97.06-.22.27-.42.26-.62-.02-1.6-5.35-6.81-6.1-6.86-1.3-2.47-2.11-4.65-3.45-6.43-3.31-4.42-3.47-5.19-.57-8.45 3.21 1 6.16 2.22 9.16-1.11 3.04-3.37 11.87-2.16 15.61 1.61.6.61 1.71.91 3.02.95 2.55.08 5.81-.85 7.3-2.44l1.31 8.82-1.09.43c1.15.2 2.29.4 3.6.62.08 1.37.17 2.68.28 4.43 1.04-.59 1.74-.99 2.42-1.38-.57 6.83 1.66 6.38 5.23 2.23 2.72 1.04 5.39 2.04 7.75 2.95 1.22-2.71 2.01-5.03 3.25-7.09 1.62-2.71.92-5.08-.11-7.44-.26-.61-.55-1.22-.83-1.83-.2-.42-.41-.83-.95-1.9 3.17 1.23 3.1 6.6 7.25 4.4.75 2.44 1.38 4.64 2.12 6.81 1 2.98 2.52 4.5 5.24 1.36.55.49 1.25.89 1.21 1.13-1.3 6.41 4.71 7.81 7.67 11.28 1.76 2.06 3.49 4.15 5.62 6.69-3.8 1.21-6.65 2.13-9.5 3.02-.56.17-1.31.59-1.66.38-1.65-1.02-3.61-1.43-4.38.4-.8 1.9-2.43 3.46-.78 6.59 2.13 4.06 3.69 8.03 8.2 9.92.11.05.23.17.25.27.82 5.03 5.19 4.97 8.64 5.52.78.13 1.59.12 2.41.04 1.79-.19 3.64-.73 5.43-.98l-.2-.94c1.32 1.01 2.64 2.01 3.95 3.01l.96-.45c-.2-2.14-.41-4.28-.57-5.98 1.17-.63 2.55-1.32 3.87-2.11.53-.32.88-.89 1.38-1.27 8.1-6.32 16.2-12.62 24.31-18.94zm-65.08 58.3l.03-6c-.01-1.08-.13-2.17-.2-3.25-1.2.45-2.69.6-3.55 1.41-4.51 4.23-.62 8.75-.83 13.36 4.48-1.47 4.58-1.63 4.55-5.52z"/><path d="M561.44 347.51l2.07.23c-.29 1.88-.96 3.65-1.71 3.87-2.82.83-3.58 3.18-5.45 4.55-.97.71-1.98 1.38-2.97 2.04-2.56 1.74-5.12 3.49-7.69 5.22l-2.34 1.59c-1.29.63-2.7 1.1-3.85 1.93-1.19.86-2.31 1.96-3.16 3.16-1.06 1.48-2.28 3.08-2.61 4.79-.53 2.83-.24 5.67-2.82 7.94-.25.22-.43.52-.56.9l-1.68-.47c.2-.72.42-1.43.64-2.15.47-1.51 2.18-3.04 1.95-4.31-1.24-7.03 4.85-9.35 8.33-13.15 2.14-2.34 5.41-3.63 8.07-5.53 3.57-2.56 8.78-2.97 10.49-7.97 2.18-.11 3.04-1.32 3.29-2.64z"/><path class="st1" d="M561.62 395.13l-.08 1.49c-1.33 2.33-2.66 4.67-4.02 7.06l-2.19-1.04c-.22 1.07-.27 2.2-.68 3.19-.41.98-.99 2.09-1.83 2.67-1.04.72-2.4.95-3.65 1.41-2.16-3.55-4.21-7.31-6.64-10.79-2.07-2.97-5.05-3.04-8.29-1.77-2.55.99-3.91 2.76-4.21 5.04l-1.02-.05c.02-.17.02-.33.02-.5-.13-8.57 4.4-14.88 9.45-21.03.86-1.05 1.91-1.98 2.67-3.09 3.41-4.99 5.45-5.15 10.39.02-2.34 1.59-4.64 2.98-6.73 4.63-1.1.86-1.84 2.17-2.74 3.28 1.04.62 2.19 1.11 3.09 1.89 3.3 2.8 4.58.27 5.63-3.05.26.29.51.59.77.89 0 1.39-.3 2.89.13 4.14.22.67 1.71.9 2.98 1.5.17 1.96 3.39 3.73 6.32 4.04.19.04.41.06.63.07z"/><path d="M561.31 314.62l-1.22 1.35c-1.56-1.28-2.19-.8-4.45.84-2.68 0-4.43.25-6.04-.08-1.27-.26-2.39-1.26-3.58-1.94.05-.48.1-.96.14-1.44-1.49.63-2.94 1.55-4.5 1.83-2.41.43-4.93.29-6.25 3.01-.08.17-1.59.02-1.96-.4-2.68-3.01-6.43-2.45-9.78-3.33-1.07-.29-2.55-1.42-3.38-2.41l1.17-.04c3.25 0 6.32-.29 9.29.12 1.49.2 2.81 1.66 3.96 2.39 1.05-.32 3.12-.99 5.19-1.6 1.86-.54 4.11-.53 5.52-1.62 3.64-2.79 3.78-.04 4.31 2.54 2.61-.47 5.67 2.74 7.84-2.59 1.29 1.15 2.52 2.27 3.74 3.37zM561.27 362.33c-.75 1.38-1.24 3.01-2.3 4.09-4.88 4.94-10.63.95-16.43 1.61.33-1.23.57-2.13.82-3.01l2.34-1.59c3.84-.65 7.67-1.44 11.53-1.89 1.3-.16 2.69.5 4.04.79zm-4.54 3.18c-.1-.53-.2-1.06-.31-1.59-2.47.42-4.95.84-7.41 1.26l.3 1.71 7.42-1.38z"/><path class="st1" d="M556.42 363.92c.11.53.21 1.06.31 1.59l-7.42 1.38-.3-1.71c2.47-.41 4.94-.84 7.41-1.26z"/><path d="M549.98 372.69c3.01 2.45 3.64 3.21 2.37 5.6l-.83-.52c-4.94-5.18-6.98-5.01-10.39-.02-.77 1.11-1.81 2.04-2.68 3.09-5.05 6.15-9.57 12.46-9.45 21.03 0 .17 0 .33-.02.5-.13 2.01-1.27 4.03-1.89 6.05l-1.38-.32c-.11-.93-.41-1.89-.3-2.79.61-5.51 1.21-11.01 2.02-16.49.28-1.87.72-3.72 1.24-5.55l1.68.47c-.39 1.12-.38 2.85-.78 4.73 4.29-5.49 7.85-10.18 11.57-14.74 1.8-2.22 6.84-2.67 8.84-1.04zM533.2 414.21c.56 2.69 1.26 5.36 1.86 8.04-5.61 2.48-10.66 4.39-15.39 6.9-3.96 2.1-8.09 4.4-9.79 8.97-.95 2.53-1.88 4.8-4.56 6.04-.35.17-.65.5-.9.92l-1.49-1.01c3.57-4.34 6.49-8.88 8.78-13.75l-.98-.59c-2.23 1.2-4.47 2.4-7.61 4.09.23-.57.5-1.08.78-1.55 2.01-3.22 5.16-3.93 7.64-5.5l2.07 2.59c4.9-2.14 9.54-4.02 14.05-6.17 4.04-1.93 4.91-4.5 3.92-8.63l1.62-.35zM524.91 353.95l.11 1.22c-.82.08-1.63.09-2.41-.04-3.45-.55-7.82-.49-8.64-5.52-.01-.1-.14-.22-.25-.27-4.51-1.89-6.07-5.86-8.2-9.92-1.65-3.13-.02-4.69.78-6.59.77-1.83 2.74-1.42 4.38-.4.35.21 1.1-.21 1.66-.38 2.85-.89 5.7-1.81 9.5-3.02l1.16.1c-.19.77-.75 1.88-1.24 2.07-4.02 1.59-8.18 2.86-12.44 4.29-.08.31-.53 1.49-.59 2.7-.29 5.37 3.72 9.36 9.37 9.57.71.02 1.55.45 2.06.96 1.66 1.71 3.21 3.53 4.75 5.23zM523 328.4c.1.11.08.39 0 .74l-1.16-.1c-2.13-2.54-3.86-4.63-5.62-6.69-2.97-3.47-8.97-4.87-7.67-11.28.05-.24-.66-.64-1.21-1.13-2.72 3.14-4.24 1.61-5.24-1.36-.74-2.17-1.37-4.37-2.12-6.81-4.16 2.2-4.08-3.17-7.25-4.4l.95 1.9.83 1.83-2.1.48c-.5-.82-1.31-1.51-2.44-2.07-.58-.29-1.29-1.04-1.31-1.59-.07-3.05.07-6.09.16-10.51 1.8 1.29 3 2.22 4.28 3.01 1.07.66 2.19 1.23 3.35 1.71 3.1 1.3 6.7 1.95 9.24 3.95 3.03 2.38 5.43 5.46 9.59 6.04.29.04.38 1.57.56 2.41 4.55-.5 7.11 2.36 5.62 7.49l-1.17.04c-.42-.51-.67-.99-.59-1.3.83-3.35-.19-4.23-3.27-4.07-.67.04-1.86-.27-1.98-.68-1.05-3.42-3.37-2.82-5.89-1.78-1.19-1.98-2.29-3.8-3.34-5.55-3.58-1.44-7.29-2.93-11.65-4.69 1.58 2.04 2.4 3.19 3.32 4.25.45.53 1.06 1.25 1.63 1.29 3.12.16 4 1.96 4.5 4.76.33 1.88.6 4.61 4.24 3.8.99-.22 3.74 2.25 3.62 3.2-.74 5.64 4.15 7.62 7.14 8.97 4.18 1.88 2.93 5.74 4.98 8.14z"/><path class="st1" d="M510.74 429.73c.32.2.65.4.98.59-2.29 4.88-5.21 9.42-8.78 13.75-.83 1-1.69 1.99-2.59 2.97-4.84-.74-11.29 5.22-12.95 13.44 2.45-.35 4.64-.66 6.96-.99-2.61 2.23-4.96 4.23-7.31 6.21-.35.29-.8.74-1.13.69-4.66-.8-4.62 3.73-6.9 5.67l-3.63-1.33c-.38-2.88 1.24-5.32 2-7.97.47-1.68.6-3.44-.37-5.44-.82-1.71-.09-4.34.44-6.41.16-.64 2-1.2 3.06-1.18 1.25.02 2.49.7 4.05 1.19.32-2.21 1.41-4.6.65-5.66-1.59-2.22-4.25-3.65-6.3-5.58-2.39-2.25-4.52-1.69-7.38-.65-2.56.94-5.79-.13-8.58.44-4.18.84-8.05 1.37-11.18-2.31-1.25-1.46-2.46-2.97-3.58-4.32l.84-3.46c-2.41.39-4.45.33-6.11 1.09-2.12.97-3.44.53-4.52-1.15l-.14-.23c-1.83-3.05-4.04-4.93-7.88-3.33-.85.36-1.99.16-2.98.04-3.7-.41-4.02 0-2.74 4.1-2.49.88-5.56 1.3-5.4 5.11.01.41-1.23 1.21-1.95 1.28-3.46.32-6.94.67-10.41.75-.57.01-1.13.02-1.71.02-1.65-.01-3.36-.91-4.94-1.63-1.41-.63-2.68-1.57-4.42-2.62-.3 1.72-.5 2.87-.8 4.51-1.57-.72-3-1.38-4.53-2.07 2.44-1.01 4.1-2.04.99-4.23-.68-.48-1.06-1.51-1.39-2.36-.95-2.5-2.98-3.01-5.31-.91-.75-8.32-1.53-16.38-2.17-24.45-.09-1.17.18-2.49.68-3.55 2.96-6.37 5.94-12.73 8.97-19.16 2.68-5.71 5.4-11.47 8.16-17.33 2.53.29 5.33.62 8.12.96.24.03.66.07.69.19 1.59 5.37 6.72 2.39 9.88 4.09.36.19 1.47-1.01 2.24-1.59 2.22 3.68 6.75 4.38 10.59 1.65 4.18-2.98 7.27-1.8 8.58 3.06.5 1.84 1.59 3.53 2.49 5.25.28.54 1.04.92 1.13 1.45 1.34 8.06 8.95 10.33 13.87 15.08.17.17.35.49.54.5 4.92.34 6.98 3 8.31 6.22 1.04 2.5 1.63 5.35 2.78 7.71 2.02 4.15 3.48 8.63 4.71 13.1 1.63 5.89 6.78 8.39 11.07 11.31 2.35 1.6 6.34.86 9.6 1.06 2.04.12 4.11.11 6.16-.01.62-.03 1.2-.59 1.8-.9l.91-.14c-.29.47-.55.98-.78 1.55 3.13-1.67 5.37-2.86 7.61-4.07zm-89.38-5.41c2.41.03 5.18.73 4.86-3.42-.22-2.86-1.48-4.98-4.16-5.44-2.95-.51-4.75 2.12-4.91 5.87-.15 3.38 2.02 3.09 4.21 2.99zm-19.46 1.5c.82-1.33 2.49-2.82 2.28-3.96-.38-2.1-1.86-4.01-3.31-6.82-1.92 3.07-3.22 4.78-5.84 2.85-.41-.3-1.83.09-2.17.58-.32.46-.1 1.92.35 2.19 1.89 1.19 3.95 2.1 6.58 3.43l2.11 1.73z"/><path d="M504.42 445.09c-.33.53-.57 1.19-.76 1.75-.5 1.47-.72 3.04-.89 3.8-2.43-.44-4.51-1.45-5.31-.83-2.52 1.96-4.55 4.54-6.76 6.88 1.15.47 1.68.2 2.22.08 2.86-.61 3.04 2.34 4.56 3.5-.94.81-1.9 1.61-2.83 2.45-1.12 1.03-3.19 2.15-3.13 3.14.16 2.76-1.26 2.92-3.18 2.81-2.58-.14-4.68.07-6.15 2.86-1.48 2.78-3.74 5.15-5.66 7.7h-2.25c-.89-.96-1.78-1.93-3.06-3.31 3.74-3.49.39-9.57 4.29-13.6l1.87.47c-.76 2.64-2.38 5.09-2 7.97.9.33 2.37.87 3.63 1.33 2.28-1.94 2.24-6.47 6.9-5.67.33.05.78-.41 1.13-.69 2.35-1.98 4.7-3.98 7.31-6.21-2.31.33-4.51.65-6.96.99 1.66-8.22 8.11-14.18 12.95-13.44.9-.98 1.76-1.97 2.59-2.97l1.49.99zM502.79 431.32l.2 1.09c-.6.32-1.19.87-1.8.9-2.05.11-4.12.13-6.16.01-3.25-.2-7.25.54-9.6-1.06-4.29-2.92-9.44-5.42-11.07-11.31-1.23-4.47-2.69-8.95-4.71-13.1-1.15-2.36-1.74-5.21-2.78-7.71l1.92-.78c2.72 6.61 5.44 13.1 7.51 19.78 1.79 5.73 6.29 8.08 10.31 11.27.49.38 1.5.11 2.26.15 4.64.25 9.29.5 13.92.76zM499.1 379.81l-.03 6c.02 3.89-.08 4.05-4.56 5.53.22-4.61-3.67-9.13.83-13.36.86-.81 2.35-.96 3.55-1.41.09 1.08.21 2.16.21 3.24zM494.5 301.1c1.03 2.36 1.73 4.73.11 7.44-1.23 2.06-2.03 4.37-3.25 7.09-2.37-.9-5.04-1.91-7.76-2.95-3.57 4.15-5.8 4.6-5.23-2.23-.68.38-1.38.79-2.42 1.38-.11-1.75-.2-3.07-.28-4.43-1.31-.22-2.45-.42-3.6-.62l1.09-.43c-.43-2.94-.87-5.88-1.31-8.82-1.49 1.59-4.75 2.52-7.3 2.44l.04-1.41c2.36-1.08 4.57-2.22 6.89-3.03.48-.17 1.64.8 2.06 1.51.67 1.13 1.23 2.44 1.4 3.73.38 2.92 1.26 5.25 4.2 6.64 1.04.49 1.56 2.09 1.86 2.52 3.22.54 5.97 1.01 9.1 1.53.62-1.4 1.71-3.51 2.5-5.72.57-1.62.5-3.01-.2-4.16l2.1-.48zM486.76 284.19c.11.37-1.85 1.92-2.39 1.72-1.51-.59-2.77-1.8-4.63-3.13-3.33 2.64-8.12 3.46-13.18 3.31-1.89-.06-3.74-.38-5.25 1.71-.54.76-3.31 1.93-4.47-.93-.33-.8-2-1.07-3.07-1.54-3.13-1.36-6.28-2.71-10.98-4.73-3.03.49-7.94 1.4-10.73 6.41-.18.32-.9.29-1.22.58-.56.53-1.02 1.17-1.53 1.77.75-.2 1.5-.56 2.25-.56 1.2 0 2.86-.2 3.51.48.99 1 2.01 2.8-.6 3.65-.34.11-.6.68-.77 1.07-1.37 3.23-2.82 3.61-4.52.55-2.01-3.63-3.71-7.43-5.34-11.27l1.47-.62c.41 1.03 1.16 1.86 2.87 2.25 4.23.98 4.49-3.65 6.86-4.14-1.15-1.01-2.37-2.09-3.59-3.17 3.55-.89 6.76-3.54 9.46.21.33.47 1.28.56 1.97.71 3.16.65 6.33 1.24 9.48 1.94.35.08.49.83.84 1.15.62.55 1.25 1.17 1.99 1.47 5.58 2.3 11.28.49 16.92.28 1.77-.06 3.51-.84 5.26-1.29-.01-.53-.02-1.04-.02-1.56l.56-1.08c.58.31 1.16.6 1.74.89.5.25 1.29-.15 1.93-.1 1.04.08 2.38-.08 3.07.5.99.85 1.76 2.2 2.11 3.47zM485.22 445.28c.76 1.06-.34 3.45-.65 5.66-1.56-.5-2.8-1.17-4.05-1.19-1.06-.02-2.9.54-3.06 1.18-.53 2.08-1.25 4.71-.44 6.41.97 2 .84 3.76.37 5.44l-1.87-.47c.32-.32-.35-1.54-.46-2.36-.28-2.19-.8-4.4-.67-6.57.2-3.39-2.45-7.44-5.75-7.59-3.21-.15-6.45.2-9.67.33-.38.01-1.05.08-1.09-.03-1.28-4.39-7.52-2.39-8.87-7.29-1.07-3.89-3.19-4.18-7.42-2.44-1.62-1.94-3.45-3.8-4.94-5.88l1.76-1.13c1.08 1.68 2.4 2.12 4.52 1.15 1.66-.76 3.7-.7 6.11-1.09-.42 1.69-.65 2.67-.84 3.46 1.12 1.35 2.34 2.86 3.58 4.32 3.13 3.67 7 3.15 11.18 2.31 2.79-.56 6.02.5 8.58-.44 2.86-1.04 4.99-1.6 7.38.65 2.05 1.92 4.7 3.35 6.3 5.57zm-3.26 2.68c.29-.39.57-.77.86-1.17-.56-.57-1.09-1.19-1.71-1.7-.83-.7-1.73-1.32-2.61-1.95-1.38-1-2.77-1.98-4.16-2.98l-2.38 3.61c3.68 1.54 6.84 2.87 10 4.19zM482.43 276.49c.18.23-.33 1.5-.6 1.53-1.01.1-2.09.04-3.05-.26-2.92-.92-5.79-1.98-8.72-2.52 2.62 1.4 5.22 2.83 7.85 4.18l-.56 1.08c-3.4-.65-6.77-1.62-10.2-1.89-3.64-.29-5.88-1.29-6.77-4.67l15.39-1c-2.47-2.98-1.74-8.97-7.88-7.12-.45-1.88-3.22-3.77-6.1-4.85l.71-1.77c3.79 1.53 7.67 2.9 11 5.11 2.3 1.53 2.96 5.46 4.53 8.21.51.91 1.49 1.57 2.31 2.28.67.6 1.55 1.01 2.09 1.69z"/><path class="st1" d="M477.35 280.5c.01.52.02 1.04.02 1.56-1.75.45-3.49 1.23-5.26 1.29-5.64.21-11.34 2.02-16.93-.28-.74-.3-1.38-.92-1.99-1.47-.35-.32-.5-1.07-.84-1.15-3.15-.7-6.32-1.29-9.48-1.94-.69-.14-1.64-.24-1.97-.71-2.7-3.75-5.91-1.1-9.46-.21 1.22 1.08 2.44 2.16 3.59 3.17-2.38.49-2.63 5.12-6.86 4.14-1.71-.39-2.46-1.22-2.86-2.25-.6-1.5-.47-3.41-1.52-4.9 1.19-.31 1.98-.65 2.77-.68 4.66-.17 7.06-3.47 9.3-6.85.4-.59.14-2.45-.2-2.56-3.81-1.23-2.06-4.23-1.6-6.15.95-3.97.49-7.09-2.74-9.8-2.1-1.77-3.84-3.96-7.1-3.27-.65.14-2.08-.46-2.16-.89-.99-5.99-3.4-1.72-5.33-.78-2.01-5.33-4.59-6.53-9.43-4.4-1.38-3.78-4.22-6.1-6.3-4.91-1.57.9-3.16 2.24-.86 3.58-1.64.98-3.16 1.86-4.72 2.79-1-.17-2.52-.43-4.05-.68.09 1.2.17 2.38.23 3.22-1.33.26-3.07.6-4.8.94l.14.8-11.47-1.76c1.03-1.86 1.46-2.65 2.07-3.76l-.48-.19 1.84-.92c3.71.23 5.25-1.72 4.88-5.67-1.42-.96-3.03-2.05-3.98-2.7-.32-1.57-.46-2.55-.73-3.49-.55-1.83-1-3.73-1.8-5.45-1.02-2.22.65-2.62 1.8-3.37.3-.2.56-.41.74-.69.63-1.04 1.46-1.96 2.89-3.85 1.74 4.35 3.55 8.03 4.69 11.92.89 3.06 2.27 4.26 3.93 2.07 1.44-1.89 3.4-2.04 4.85-3.31 1.68-1.49 4.37-3.19-.07-4.67 1.41-.58 2.74-1.27 4.06-1.82 1.02-.42 2.04-.77 3.07-.9 1.26-.17 3.07 1.28 4.05 2.47.6.73.11 2.36.11 4.01 3.57-.66 6.76-1.25 10.21-1.89l.64 4.89c2.48.55 4.77-1.79 7.09-2.05 1.24-.14 2.49.31 3.78 2.13 1.01-.83 1.94-1.6 3.08-2.54.8.72 1.57 1.44 2.25 2.07-1.21 1.44-2.27 2.71-3.33 3.98.21.26.43.5.65.76 2.58-.68 5.17-1.35 6.88-1.8-.61 2.15-1.65 4.36-1.77 6.62-.14 2.72 2.22 2.01 3.87 1.89 1.96-.15 3.91-.5 5.87-.56 1.48-.05 3.32 1.87 4.19-.92 1.72.84 3.56 1.52 5.13 2.61.78.54 1.04 1.83 1.66 3.01.9-.74 1.66-1.36 2.4-1.96l.31-.26c.27.42.53.74.77.98 2.35 2.3 3.63-3.5 6.37-1.12.36 3.55.79 7.91 1.31 13.09-3.27-1.47-6.2-3.59-9.33-3.95-3.19-.36-7.21-1.8-10.1 2.02 1.82 1.99 4.56 3.34 4.09 6.61-.02.1 1.89.89 2.66.64 1.35-.46 3.57-.1 5.73.71 2.88 1.07 5.65 2.97 6.1 4.85 6.15-1.85 5.41 4.14 7.88 7.12l-15.39 1c.89 3.37 3.13 4.38 6.77 4.67 3.42.25 6.8 1.21 10.19 1.87zm-28.08-23.23c.15-.94-1.32-2.99-2.2-3.07-3.1-.29-6.25.07-9.84.2.84 3.28 1.2 5.2 1.83 7.03.88 2.57 2.53 2.8 4.35.94.83-.83 2.2-1.1 3.13-1.88 1.08-.94 2.54-2.03 2.73-3.22z"/><path d="M470.56 251.08c.08 1.81-.21 3.64-.33 5.45-.51-.08-1.05-.14-1.59-.17l.1-1.41c-.52-5.19-.95-9.54-1.31-13.09-2.74-2.38-4.02 3.42-6.37 1.12-.24-.24-.49-.56-.76-.98h-.01l-.31.26-2.4 1.96c-.62-1.19-.88-2.47-1.66-3.01-1.56-1.09-3.41-1.77-5.13-2.61-.87 2.8-2.71.87-4.19.92-1.96.06-3.91.41-5.87.56-1.65.12-4.01.83-3.87-1.89.11-2.26 1.16-4.47 1.77-6.62-1.71.44-4.29 1.12-6.88 1.8l-.65-.76 3.33-3.98c-.68-.63-1.46-1.35-2.25-2.07-1.14.94-2.07 1.71-3.08 2.54-1.28-1.82-2.54-2.27-3.78-2.13l-.21-1.83c2.26-.26 4.56-.5 6.86-.56 1.16-.03 2.35 1.3 3.51 2.03 1.32.83 2.56 1.84 3.94 2.53 2.43 1.22 3.71 2.5 1.46 5.1-.75.86-.95 2.21-1.26 3h7.51c.13 0 .28.04.37-.01 4.42-2.47 7.49-.47 10.75 2.61.93.88 3.83.15 5.63-.45 4.12-1.38 5.65-.52 5.91 3.66.16 2.69.64 5.34.77 8.03zM468.79 399.36l-1.92.78c-1.33-3.22-3.4-5.88-8.31-6.22-.2-.02-.37-.33-.54-.5-4.92-4.74-12.53-7.01-13.87-15.08-.08-.53-.85-.91-1.13-1.45-.89-1.72-1.99-3.41-2.49-5.25-1.32-4.85-4.4-6.03-8.58-3.06-3.84 2.74-8.36 2.03-10.59-1.65l.01-.01-.01-.02-.04-.03-.01-.01c3.04.05 6.58 1.11 8.96-.11 2.37-1.23 4.47-1.56 6.91-1.8 2.96-.29 4 1.1 4.91 3.73 1.46 4.19 3.56 8.15 5.31 12.04 2.17-.27 3.92-.84 5.53-.57 1.21.2 2.38 1.38 3.28 2.37.36.41-.03 1.5-.08 2.28-1.25-.11-2.5-.19-3.74-.33-.41-.04-.8-.24-1.42.03 3.99 3.01 6.95 7.58 13.04 8.52-.37-1.27-.51-1.83-.7-2.37-.57-1.71-1.95-3.59-1.6-5.07 1.45-6.14-.61-12.48-5.85-16.24-3.95-2.83-3.74-5.87.38-8.23.58-.33.95-1.15 1.24-1.95l1.61.58c-.82 2.27-1.58 4.55-2.43 6.77 1.56 1.83 4.03 3.89 5.38 6.52 2.21 4.3 3.79 8.93 5.42 13.5.79 2.22 2.18 4.86-1.44 5.99.9 2.3 1.84 4.57 2.77 6.84zM468.74 254.95l-.1 1.41c-1.87-.14-3.83-.15-5.11-1.09-3.11-2.27-6.24-2.58-10.34-1.2 1.93 1.23 3.76 2.68 5.82 3.64 1.14.53 2.31 1.02 3.5 1.5l-.71 1.77c-2.16-.81-4.39-1.16-5.73-.71-.77.26-2.68-.53-2.66-.64.47-3.27-2.27-4.62-4.09-6.61 2.89-3.83 6.91-2.38 10.1-2.02 3.12.35 6.05 2.48 9.32 3.95zM464.6 298.54l-.04 1.41c-1.3-.04-2.41-.34-3.01-.95-3.74-3.77-12.58-4.98-15.62-1.61-3 3.34-5.95 2.11-9.16 1.11l-.27-1.53 1.64-.29c2.39-.45 4.82-.65 7.24-.95-.05-.44-.1-.89-.16-1.33-.82.05-1.64.11-2.45.17l-.44-1.17c1.59-.69 3.59-2.37 4.72-1.91 5.86 2.44 12.98 1.63 17.55 7.05zM459.89 343.35c3.19 2.28 4.44 4.43 2.46 8.43-1.28 2.56-2.31 5.25-3.27 7.94l-1.61-.58c.1-.27.18-.54.26-.78 1.16-3.43 2.21-6.89 3.3-10.28-2.63-3.04-5.16-6.38-8.13-9.25-2.28-2.19-5-3.99-7.75-5.61-2.8-1.65-3.52-3.68-2.48-6.68.71-2.03 1.1-4.17 1.8-6.84-1.74-1.46-5.15-2.94-5.96-5.31-1.35-3.95-4.36-6.87-5.52-10.7-.5-1.65-.38-4.04.52-5.41.5-.75 1.74-1.08 3-1.3l.27 1.53c-2.9 3.26-2.74 4.03.57 8.45 1.34 1.78 2.15 3.96 3.45 6.43.75.05 6.08 5.26 6.1 6.86.01.2-.2.41-.26.62-.56 1.99-.98 4.03-1.7 5.97-.75 2.04-.42 3.21 1.6 4.44 3.35 2.04 7.2 3.49 9.3 7.3.98 1.81 2.4 3.59 4.05 4.77z"/><path class="st0" d="M460.29 241.99c.27.43.52.74.76.98-.24-.23-.49-.55-.76-.98z"/><path d="M449.47 347.62c2.01 1.56 5.15 3.64 4.99 3.92-1.5 2.75-3.56 5.21-6.05 8.52-1.59-3.81-4.75-6.18-.25-8.75.61-.34.64-1.7 1.31-3.69zM447.07 254.2c.89.08 2.35 2.13 2.2 3.07-.19 1.19-1.64 2.28-2.74 3.21-.92.77-2.3 1.04-3.13 1.88-1.83 1.86-3.47 1.63-4.35-.94-.63-1.83-.99-3.74-1.83-7.03 3.6-.13 6.75-.48 9.85-.19zm-.05 3.47c-.86-.98-2.62-1.83-3.09-1.36-1.06 1.03-3.53 1.42-3.1 3.84 2.48-.99 4.34-1.74 6.19-2.48zM438.26 429.12l.14.23-1.76 1.13c-.21-.3-.42-.6-.62-.91-1.92-2.98-4.96-2.09-6.44-1.01-3.46 2.52-6.26 5.97-9.33 9.03-.32.32-.62.93-.95.95-4.11.23-8.22.5-12.33.64l-.08-2.09c3.47-.08 6.95-.43 10.41-.75.72-.07 1.97-.86 1.95-1.28-.17-3.81 2.91-4.23 5.4-5.11-1.28-4.1-.96-4.51 2.74-4.1.98.11 2.13.32 2.98-.04 3.85-1.62 6.06.26 7.89 3.31zM422.24 251.73c-.08.11-.41.93-.15 1.19 3.49 3.61 2.12 6.15-1.77 8.18-6.37-3.56-7.8-6.71-4.88-9.35-.89-2.27-1.68-4.3-2.46-6.28-.99 2.63-3.07 2.99-6.01.98 2.52 3.89.33 6.3-1.41 8.82l-1.17-.09v-7.9c-3.68.39-6.73.72-9.95 1.07 2.81 2.62 4.93 4.58 7.2 6.69-.92 1.14-1.69 2.07-2.71 3.31l-1.62.06c-.04-.58 0-1.2.12-1.87.29-1.53-.02-4.38-3.24-4.4-.81-.01-1.62-1.1-2.22-1.56l-5.46 2.23c0 .08-.12.37-.03.54 1.84 3.4 2.96 7.01 2.83 10.9-.05 1.43-1.1 3.27-.52 4.19 1.97 3.12-1.4 4.07-2 6.09-.74-.34-1.62-.59-2.43-.89l.32-.87 2.75-2.1c-2.71.19-3.84-.71-3.48-3.41 3.11-.83 3.99-2.83 2.4-6.38-1.44-3.22-2.13-6.76-3.31-10.66-1.24.74-1.99 1.47-2.85 1.62-.68.12-1.67-.28-2.19-.79-.92-.91-1.48-2.18-2.39-3.1-.29-.3-.59-.6-.88-.91l.72-.69c4.16.64 7.82 1.19 11.47 1.76-.04-.27-.09-.53-.14-.8l4.8-.94c-.06-.83-.14-2.02-.23-3.22l4.05.68c1.56-.92 3.07-1.81 4.72-2.79-2.29-1.34-.71-2.68.86-3.58 2.08-1.19 4.92 1.13 6.3 4.91 4.84-2.13 7.42-.93 9.43 4.4 1.93-.94 4.34-5.21 5.33.78.08.43 1.5 1.02 2.16.89 3.26-.69 5 1.5 7.1 3.27 3.23 2.71 3.7 5.83 2.74 9.8-.46 1.92-2.21 4.92 1.6 6.15.34.11.6 1.97.2 2.56-2.25 3.37-4.64 6.67-9.3 6.85-.8.03-1.58.38-2.77.68 1.05 1.49.92 3.4 1.52 4.9l-1.47.62-1.43-3.37c-1.28-3.04.47-4.49 3.3-5.1 1.44-.3 3.03-.44 4.2-1.2 1.9-1.21 3.54-2.67 2.14-5.54-.71-1.44-.92-3.5-.5-5.04 1.16-4.19 1.08-7.82-2.5-9.93-2.34-.46-4.32-.86-6.79-1.36zm-.72 5.53l.61-1.46-4.51-2.67c-.24 1.02-.94 2.22-.62 3.02.93 2.39 2.78 1.86 4.52 1.11zM431.37 307.58l-2.71 4.01c-1.32-1.72-3.11-3.29-3.74-5.23-.26-.84 1.86-3.46 2.96-3.5 2.32-.08 3.31 1.88 3.49 4.72zM426.21 420.9c.32 4.15-2.45 3.45-4.86 3.42-2.19.1-4.36.38-4.22-2.99.16-3.75 1.96-6.38 4.91-5.87 2.69.46 3.96 2.58 4.17 5.44zM425.12 225.15l.21 1.83c-2.31.26-4.61 2.6-7.09 2.05l-.64-4.89c-3.45.64-6.64 1.23-10.21 1.89 0-1.65.49-3.28-.11-4.01-.98-1.19-2.79-2.64-4.05-2.47-1.04.13-2.05.48-3.07.9l-.4-1.39c2.89-4.01 8.75-2.19 10.46 3.97 2.03-.29 4.1-.5 6.13-.89 4.65-.89 5.07-.5 4.27 3.51 1.48-.14 2.98-.33 4.5-.5z"/><path class="st1" d="M422.13 255.8l-.61 1.46c-1.74.75-3.59 1.28-4.53-1.1-.32-.8.38-2 .62-3.02l4.52 2.66z"/><path class="st0" d="M421.38 366.92l-.02.01-.02-.02.04.01z"/><path class="st0" d="M421.38 366.92l-.03-.01-.01-.01.03.01.01.01z"/><path class="st0" d="M421.36 366.91l-.03-.01-.01-.02.04.03z"/><path d="M387.99 362.66zm.01 0h.05l-.02-.04c3.07-5.15 7-4.79 11.71-2.23 1.84 1.01 4.25 1.13 6.43 1.34 2.65.25 4.57.95 6.53 3.22 1.3 1.49 4.78 1.1 7.28 1.56.35.07.69.18 1.04.29l.33.11.02.02c-.77.58-1.88 1.78-2.24 1.59-3.16-1.7-8.29 1.29-9.88-4.09-.03-.12-.45-.16-.69-.19-2.79-.33-5.59-.66-8.12-.95-2.76 5.86-5.48 11.63-8.16 17.33l-1.83-.86c.88-1.86 1.75-3.73 2.62-5.59 1.76-3.75 3.23-7.63 4.81-11.39-2.83-2.12-5.03-3.57-7.32.44-1.46 2.55-4.19 2.33-5.4.11-2.14-3.94-4.23-7.9-6.49-12.11l.12-1.26c.69.05 1.33.23 1.57.58 2.65 3.86 5.05 7.91 7.67 12.09l-.02.03h-.01zM398.73 301.13l.95-.51c.75.95 1.49 1.88 2.43 3.09 1.61-2.74 3.16-5.16 4.46-7.7 1.32-2.58 2.75-3.27 5.64-1.93 1.64.76 3.95.07 6.56.02-4.4-1.95-7.74-3.83-11.33-4.92-3.56-1.09-7.36-1.41-11.46-2.13l2.75 14.08zm21.92-8.79c.11 3.4-1 2.34-4.2 4.19-3.38 1.97-4.7-1.36-7.3-.48-1.35 2.51-2.87 5.24-4.31 8.01-1.06 2.05-2.4 2.56-4.3 1.05-.47-.38-1.01-.92-1.53-.94-2.01-.05-3.86-.05-3.64-2.91.12-1.57.02-3.16-.28-4.65l-.89-5.34c-1.35 3.31-2.28 7.18-4.4 10.25-2.02 2.95-5.26 5.07-7.72 7.33.32 1.05.64 2.11.94 3.12l-1.59.21c-1.76-1.05-3.26-1.8-4.61-2.78-.92-.68-1.62-1.66-2.41-2.51 1.18-.32 2.54-1.17 3.5-.85 2.65.88 4.25.22 5.37-2.25.32-.71 1.41-1.82 1.52-1.75 2.31 1.47 2.95-.85 3.47-1.86 1.24-2.41 1.98-5.08 3.06-8.01-5.07-.2-9.81.7-12.67-4.35 3.11-1.7 5.75-1.04 8.43.44.65.37 2.28.4 2.34.22.72-2.25 2.28-4.95 1.62-6.81-1.94-5.4 3.27-5.29 5.26-7.46.63-.69 3.09.29 5.2.56.07-.14.52-1.28 1.14-2.31 2.5-4.13 2.22-4.34-1.31-7.54-1.9-1.73-3.87-3.62-4.05-6.51l1.62-.06c1.73 1.92 3.24 4.22 5.31 5.75 2.5 1.86 2.69 3.98 1.78 6.47-.83 2.27-1.51 4.83-3.07 6.52-1.47 1.6-3.98 2.23-6.47 3.52 1.23.89 2.15 1.56 2.82 2.04.62-.93 1.19-2.43 1.68-2.4 1.25.08 2.61.63 3.63 1.39.4.3-.01 1.67-.09 3.52 4.81 2.13 10.35 4.6 16.15 7.18zM419.09 302.95c.29.52-.16 1.54-.46 2.27-.72 1.74-1.38 3.54-2.39 5.1-.81 1.26-2.1 2.22-3.65 3.79-.67-2.68-1.08-4.09-1.36-5.52-.62-3.18 2.53-6.89 5.71-6.67.77.06 1.83.45 2.15 1.03z"/><path class="st1" d="M418.77 294.11c-2.61.04-4.92.74-6.56-.02-2.89-1.34-4.31-.65-5.64 1.93-1.3 2.54-2.85 4.95-4.46 7.7-.95-1.21-1.68-2.14-2.43-3.09l-.95.51c-.92-4.67-1.86-9.48-2.75-14.08 4.1.73 7.9 1.04 11.46 2.13 3.59 1.09 6.93 2.96 11.33 4.92z"/><path d="M406.9 437.08l.08 2.09c-1.69.07-3.37.11-5.07.12-1.27.01-2.55-1.26-4.07-2.07-2.74 6.42-6.96-1.46-10.83 1.19.37-2.14.59-3.4.93-5.39-.99 1.32-2.07 2.35-3.2 3.16l-1.62-1.3c-.22-2.83-.35-4.78-.52-6.73-.56-6.4-.89-12.84-1.77-19.19-.61-4.4-.76-8.42 1.42-12.56 2.88-5.46 5.56-11.03 8.19-16.62l1.83.86c-3.02 6.43-6 12.79-8.97 19.16-.5 1.07-.77 2.39-.68 3.55.65 8.07 1.42 16.13 2.17 24.45 2.34-2.1 4.36-1.59 5.31.91.33.85.71 1.88 1.39 2.36 3.1 2.19 1.45 3.22-.99 4.23 1.53.7 2.96 1.35 4.53 2.07.29-1.64.5-2.79.8-4.51 1.74 1.05 3.01 1.99 4.42 2.62 1.58.72 3.28 1.62 4.94 1.63l1.71-.03zM404.18 421.86c.21 1.14-1.46 2.63-2.28 3.96-.93-.76-1.86-1.52-2.12-1.74-2.63-1.33-4.69-2.24-6.58-3.43-.44-.28-.66-1.73-.35-2.19.34-.49 1.77-.88 2.17-.58 2.62 1.93 3.92.22 5.84-2.85 1.46 2.81 2.94 4.72 3.32 6.83z"/><path class="st1" d="M401.36 264.92c3.53 3.2 3.81 3.41 1.31 7.54-.62 1.03-1.07 2.17-1.14 2.31-2.11-.27-4.57-1.25-5.2-.56-1.99 2.17-7.2 2.07-5.26 7.46.66 1.86-.9 4.55-1.62 6.81-.06.18-1.68.15-2.34-.22-2.68-1.49-5.32-2.14-8.43-.44 2.86 5.05 7.61 4.15 12.67 4.35-1.08 2.93-1.82 5.6-3.06 8.01-.53 1.01-1.16 3.33-3.47 1.86-.1-.07-1.2 1.04-1.52 1.75-1.12 2.47-2.73 3.13-5.37 2.25-.96-.32-2.32.53-3.5.85.8.85 1.49 1.83 2.41 2.51 1.35.98 2.85 1.74 4.61 2.78-.6.47-.9.82-1.29.98-5.78 2.31-6.7 7.33-7.5 12.68-.44 2.96-1.95 5.76-2.98 8.64-.5 1.38-1 2.76-1.79 4.91-4.48.84-10.07 1.89-15.78 2.96.43-1.42 1.03-2.64 1.1-3.88.06-1.17-.45-2.38-.71-3.57l-1.16-.25-5.76 7.85.62 1.44c-.54.01-1.07.01-1.62.03-11.89.21-23.79.8-35.67.8-4.62 0-9.23-.09-13.84-.32-3.08-.16-6.15-.41-9.22-.75-11.19-1.2-22.33-3.37-33.49-5.02-3.37-.5-5.06-3.25-4.01-6.45.81-2.49.08-3.1-2.21-3.37-1.54-.18-3.07-.78-4.51-1.41-.69-.29-1.77-1.32-1.65-1.6 1.65-4.01-1.53-6.62-2.75-9.77-.1-.26-.19-.53-.26-.8-1.22-4.7-2.68-9.09-1.23-14.16.5-1.74-1.7-4.24-2.62-6.41-.41-.98-.71-1.99-1.03-3l.09-.35c-2.3-3.49-.27-6.92.01-10.4.12-1.47-.62-2.99-.96-4.49l-.92.13c.46-1.01.86-2.04 1.38-3.03 1.35-2.57.38-4.59-2.06-5.24-3.32-.89-2.92-2.71-2.07-5.04.75-2.09 1.49-4.18 2.22-6.28.44-1.25.88-2.51 1.32-3.77 4.03 3.43 6.25-.89 9.43-1.98-.65.89-1.66 1.71-1.86 2.69-.2 1.03.38 2.21.62 3.32 1.11-.26 2.91-.2 3.22-.83 1.36-2.86 3.26-3.16 6.19-2.79 4.24.53 8.49.13 9.97-5.52l.86.41c.69 2.14 1.19 4.38 2.16 6.39.51 1.07 1.83 1.78 2.84 2.58.43.34 1.13.36 1.52.73 2.95 2.74 3.41 2.68 6.25-.95 2.63-.01 4.01 1.39 5.99 3.24 3.56 3.31 6.72 8.12 12.86 7.94 1.43-.04 2.92 1.98 4.72 3.31l-5.73 2.67c1.12 2.53 2.25 4.43 5.57 4.28 2.33-.1 4.72-.2 7.06-.04 1.5.11 2.95.32 4.37.69 2.38.65 4.3 3.22 6.28 5.09.53.5.48 1.6.83 2.37.24.55.71.98 1.16 1.59 2.68-1.31 5.4-1.98 2.75-6.09-1.66-2.59.91-4.85 2.98-6.52 1.66-1.36 3.4-1.95 5.64-.83 4.1 2.04 8.28 3.96 12.57 5.55 1.17.44 2.91-.27 4.26-.78 2.5-.95 4.89-2.13 7.5-3.3-1.06-.98-1.73-1.59-2.98-2.75h4.14c-1.29 4.15.1 6.98 3.71 8.6.8.36 1.91.04 2.88.03-.1-.98.17-2.5-.35-2.86-2.44-1.68-1.53-2.96-.04-4.67 1.35-1.56 2.51-3.37 3.37-5.25.53-1.17.41-2.66.42-4.01.01-.56-.76-1.34-.57-1.67 2.74-4.7-1.67-3.89-3.71-4.8-1.44-.65-3.19-.76-4.46-1.62-1.08-.73-1.99-2.08-2.4-3.34-.17-.55-.26-1.14-.26-1.75-.03-.8.07-1.62.22-2.38.26-1.29.98-2.5 1.53-3.73.51-1.14 1.07-2.26 1.69-3.55 1.3 1.03 2.71 2.07 4.13 3.18 1.42 1.1 2.85 2.27 4.18 3.53.75.71.18 2.67.61 3.92 1.42 4.13 3.29 7.79 7.83 9.66 1.47.62 2.1 3.25 3.65 5.86.85-2.85 1.5-5.04 2.42-8.11 1.01 2.04 1.83 3.46 2.45 4.97.93 2.22 1.37 4.73 2.71 6.63.44.62 1.22 1.01 2.09 1.33.8.3 1.68.56 2.43.89.6-2.01 3.97-2.97 2-6.09-.58-.92.47-2.76.52-4.19.13-3.89-.99-7.5-2.83-10.9-.09-.17.03-.47.03-.54l5.46-2.23c.6.45 1.41 1.55 2.22 1.56 3.22.01 3.52 2.86 3.24 4.4-.12.67-.16 1.29-.12 1.87.17 2.85 2.14 4.74 4.04 6.47zm-28.68 44.44c-.88-1.68-1.18-3.23-1.88-3.43-2.83-.82-5.76-1.48-8.69-1.67-1.13-.07-2.35 1.28-3.53 1.98 1.27 1.04 2.44 2.77 3.83 2.98 3.07.45 6.25.14 10.27.14zm-26.93 5.45c-1.09-.63-1.74-1.32-2.35-1.3-1.87.09-4.13-.1-5.48.88-1.09.79-1.53 3.15-1.37 4.73.11 1.05 1.77 1.94 2.74 2.91 1.96-2.19 3.91-4.38 6.46-7.22zm-34.58 7.29c-.83-.72-1.56-1.81-2.53-2.1-4.38-1.32-8.98.54-12.05 4.26-1.21 1.47-2.98 2.48-5.15 4.22.82-4.38-1.14-6.48-3.64-8.23-.87-.61-1.87-1.04-2.83-1.52-1.01-.5-2.04-.93-3.06-1.4-.02 1.46-.5 3.16.07 4.33.99 2.05 2.64 3.78 4.01 5.64l-1.39.03c-1.43 1.54-2.86 3.08-4.34 4.68-3.98 1.43-6-1.74-7.98-4.95-2.74 2.43-1.62 4.56.01 5.99 2.66 2.33 5.7 4.22 8.64 6.23.35.24.98.18 1.46.1 2.62-.45 5.24-.95 8.4-1.52.09-1.96.56-3.74 3.89-3.12.62.11 1.4-.43 2.16-1.11.54-.48 1.07-1.03 1.53-1.47.64-.62.59-2.06 1.27-2.48 2.98-1.88 6.15-3.46 9.18-5.28.9-.56 1.57-1.52 2.35-2.3zm-28.55-32.61c.42-4.02-.13-4.01-4.25-2.09-.71.33-1.76-.08-2.82-.23l-.26-.04c1.21-1.12 2.57-1.8 2.68-2.64.14-.98-.55-2.54-1.38-3.06-.65-.41-2.05.39-3.13.62-1 .23-2 .5-3.01.6-4.43.43-8.88.68-13.28 1.27-1.09.15-2.04 1.29-3.06 1.96.83.83 1.52 1.98 2.52 2.44 1.81.81 3.8 1.2 6.33 1.94-.29.31-.57.6-.85.89l-5.59 5.86c3.43 1.06 6.4 1.47 8.78 2.89 1.74 1.04 2.43 1.63 4.18.03 2.45-2.24 5.06-1.38 6.63 1.68.56 1.07 1.16 2.13 1.74 3.19l1.49.2c1.14-5.17 2.74-10.29 3.28-15.51z"/><path d="M399.76 219.08l.4 1.39c-1.32.55-2.65 1.24-4.06 1.82 4.44 1.47 1.74 3.18.07 4.67-1.44 1.27-3.41 1.42-4.85 3.31-1.66 2.19-3.04.99-3.93-2.07-1.14-3.89-2.95-7.57-4.69-11.92-1.44 1.89-2.26 2.81-2.89 3.85-.17.28-.44.5-.74.69l-.95-1.27c1.05-5.79 5.65-4.86 9.39-5.58l1.87-.08c6.95-1.37 7.47-1.12 10.38 5.19zm-3.15-1.09c-2.29-5.91-6.3-.62-10.03-2.03 1.27 2.34 2.16 3.98 3.13 5.76 2.54-1.37 4.71-2.54 6.9-3.73z"/><path class="st1" d="M354.81 395.41l-.02-.02v.01c-.14-.04-.66-.28-1.14-.58-.95-.6-1.86-1.29-2.78-1.94-.2 1.25-.66 2.53-.53 3.74.18 1.65.82 3.25 1.22 4.72l-4.71 1.64c-.98-6.89-2.12-14.01-3.07-21.21-.32-2.4-.62-4.8-.89-7.21-.41-3.74-.67-7.68.59-11.45.2-.62.45-1.69.17-1.92-1.74-1.43-2.3-3.13-2.45-4.94-.23-2.73.49-5.67-.56-8.21-.19-.46 1.38-2.24 2.34-2.46.54-.13 1.1-.23 1.62-.23 1.53 0 2.85.82 2.94 4.2 1.98-2 3.07-3.69 4.61-4.5 1.89-.99 4.13-1.37 6.28-1.79 3.71-.72 7.45-1.27 11.17-1.89.67 7.27 1.35 8.73 6.15 13.05.86-.95 1.73-1.92 2.92-3.22 2.25 4.22 4.34 8.18 6.49 12.11 1.21 2.22 3.94 2.44 5.4-.1 2.29-4.01 4.49-2.56 7.32-.44-1.58 3.77-3.05 7.64-4.81 11.39-.87 1.86-1.74 3.73-2.62 5.59-2.63 5.59-5.31 11.16-8.19 16.62-2.18 4.13-2.03 8.15-1.42 12.56.89 6.36 1.22 12.79 1.77 19.19.17 1.95.3 3.89.52 6.73-2.89.56-6.12 1.3-9.4 1.8-6.43.99-12.89 1.85-19.34 2.72-2.32.32-3.18-.61-3.44-3.11-.97-9.27-2.27-18.52-3.45-27.74l5.06.62c0 1.24-.38 2.97.1 4.4.5 1.47 1.71 2.77 2.86 3.91 1.35 1.34 3.31 2.16 4.36 3.65 1.58 2.25 2.53 4.94 3.91 7.36.29.51 1.72 1.05 1.84.9 1.24-1.44 2.45-2.95 3.34-4.61.26-.49-.3-1.85-.88-2.29-3.27-2.49-4.63-6.05-5.59-10.04-1.31.54-2.28.94-3.25 1.35-.71-1.02-2.19-2.71-2-2.92 2.61-2.96-1.06-5.12-.78-7.71 2.21.36 3.4 1.63 4.31 3.17l1.98 3.77c.94 1.58.81 4.79 4.55 3.49.52-.18 2.69 3.43 3.59 5.5 1.07 2.44 1.59 5.13 2.52 8.3 4.47-5.31 3.72-11.67-.29-16.15-1.74-1.95-2.07-5.12-3.28-7.63-.52-1.07-1.04-2.14-1.59-3.19-1.01-1.96-2.1-3.86-3.31-5.67-.46-.68-2.35-.68-3.52-.53-1.07.14-2.04.92-3.49 1.62-.44 1.46-1.07 3.56-1.71 5.66l-.95.02-.48-6.09h.01z"/><path class="st1" d="M386.59 215.96c3.73 1.41 7.73-3.88 10.03 2.03-2.2 1.19-4.37 2.37-6.9 3.73-.98-1.78-1.86-3.42-3.13-5.76z"/><path class="st0" d="M388.03 362.62l.02.04h-.05l.02-.01.01-.03z"/><path class="st0" d="M387.99 362.66z"/><path d="M383.12 434.87l1.62 1.3c-4.92 3.49-10.99 2.87-16.28 3.77-6.3 1.07-12.63 1.82-18.96 2.34l-.14-1.86c-.17-1.29-.34-2.59-.5-3.87l2.07-.27c.26 2.5 1.12 3.43 3.44 3.11 6.46-.87 12.91-1.74 19.34-2.72 3.29-.5 6.52-1.23 9.41-1.8zM384.69 272.77l-.32.87c-.87-.32-1.65-.71-2.09-1.33-1.34-1.89-1.77-4.41-2.71-6.63-.62-1.5-1.44-2.93-2.45-4.97-.92 3.07-1.57 5.26-2.42 8.11-1.55-2.62-2.18-5.25-3.65-5.86-4.54-1.88-6.41-5.53-7.83-9.66-.43-1.25.14-3.21-.61-3.92-1.33-1.26-2.76-2.44-4.18-3.53l1.21-1.51.67.5c1.96 1.5 3.95 3.03 5.61 4.82.76.81.74 2.31 1.17 3.46.32.86.71 1.71 1.19 2.5.39.62 1.48 1.34 1.35 1.68-1.56 4.15 2.53 2.38 3.78 4.36.12-1.95.2-3.16.27-4.37 2.78-.44 6.05 2.33 7.42 6.23 1.06 3.04 2.11 6.08 3.29 9.46l.3-.21zM383.78 235.81c.37 3.95-1.17 5.9-4.88 5.67l-.62-.06c-.05-.33-.32-.91-.14-1.28 1.18-2.48.28-3.76-1.9-5.34-4.15-3.01-4.72-11.02-1.29-15.66l.44-1.5c.86.27 1.75.86 2.72 1.9l.95 1.27c-1.14.74-2.82 1.15-1.8 3.37.8 1.72 1.25 3.61 1.8 5.45.27.94.41 1.92.73 3.49.97.64 2.57 1.73 3.99 2.69zM383.03 311.98l.51 1.72c-4.94 2.7-7.59 6.36-8.48 11.36-.21 1.19-.36 2.49-.95 3.5-3.34 5.7-2.41 11.9-1.89 17.93.2 2.33 2.16 4.01 5.12 3.5.42-.08.95-.1 1.47-.05v.01l-.12 1.26c-1.19 1.31-2.05 2.27-2.92 3.22-4.79-4.32-5.48-5.79-6.15-13.05-3.73.62-7.47 1.16-11.17 1.89-2.14.42-4.39.8-6.28 1.79-1.55.81-2.63 2.5-4.61 4.5-.09-3.38-1.41-4.2-2.94-4.2l-.03-1.38c.54-.02 1.07-.02 1.62-.03-.2-.48-.41-.96-.62-1.44l5.76-7.85 1.16.25c.26 1.2.77 2.4.71 3.57-.07 1.25-.67 2.46-1.1 3.88 5.71-1.07 11.3-2.12 15.78-2.96.79-2.16 1.29-3.53 1.79-4.92 1.03-2.87 2.53-5.67 2.98-8.63.8-5.36 1.72-10.38 7.5-12.69.38-.16.68-.51 1.29-.98l1.57-.2zM380.86 200.31c1.65 1.59 2.71 5.11 2.14 7.32-.48 1.92-3.55 3.22-5.58 4.63-.27.19-1.23-.61-1.22-.61-2.58 1.35-4.73 2.85-7.12 3.65-2.98 1-6.15 1.44-9.24 2.12-2.27.5-4.55-1.4-5.09-3.68-.74-3.17-1.86-6.25-2.92-9.72l-.16-1.16c1.38-.2 2.86-.43 4.57-.65l1.74-.35c1.09 1.48 2.05 2.79 3.26 4.44 4.18-2.17 8.27-4.71 12.69-6.4 2.06-.79 5.63-.84 6.93.41zm-3.34 8.61c2.71.27 3.63-1.57 3.24-3.62-.44-2.29-1.92-4.97-4.65-3.97-3.07 1.13-5.56 3.75-8.57 5.12-2.43 1.11-5.28 1.84-7.91 1.76-1.52-.04-2.97-2.05-4.45-3.17l-.68.4c.75 2.13 1.69 4.22 2.2 6.42.65 2.77 1.18 4.88 4.23 1.74.36-.37 1.58.23 2.34.08 3.06-.59 7.03-.37 8.87-2.22 1.78-1.82 3.02-2.78 5.38-2.54zM377.43 188.35c1.55 1.04 5.43.24 4.55 2.67-.94 2.56-4.09 4.4-6.48 6.3-.85.68-2.29.62-3.47.89l.1-.1-.08-.14c.13-1.33.26-2.7.43-4.58 3.83 3.06 4.94-.12 6.58-1.8-1.56-2.55-8.51 1.65-6.64-5.32 6.09-.55 3.11-6.51 5.47-9.32.17-.2-2.18-2.54-3.38-3.85-.38-.41-1.1-.66-1.26-1.12-1.19-3.61-.03-7.03 2.49-8.97v-11.51c-1.2-.24-2.61-.12-3.02-.71-.41-.58.09-1.88.32-2.83.4-1.6.88-3.17 1.37-4.74.81-2.62-.04-4.28-2.15-4.49l.16-1.74c1.23.3 2.51.75 3.67 1.05.62.16 1.57 1.64 1.38 1.97-1.92 3.45 1.8 6.26.89 9.68-.53 1.97.83 4.71-.08 6.26-1.9 3.18 2.52 6.91-1.49 9.87-1.17.86-2.53 3.9.95 5.65 1.41.71 2.62 3.66 2.39 5.38-.52 3.8-2 7.47-3.1 11.25l.4.25z"/><path class="st1" d="M380.76 205.29c.39 2.05-.53 3.89-3.24 3.62-2.37-.24-3.6.72-5.39 2.54-1.83 1.86-5.81 1.64-8.87 2.22-.76.15-1.98-.45-2.34-.08-3.05 3.13-3.58 1.02-4.23-1.74-.51-2.19-1.45-4.28-2.2-6.42.23-.13.46-.26.68-.4 1.48 1.12 2.93 3.13 4.45 3.17 2.63.08 5.48-.65 7.91-1.76 3.01-1.38 5.51-4 8.57-5.12 2.75-.99 4.23 1.68 4.66 3.97z"/><path class="st1" d="M378.91 241.49l-1.84.92c-5.07-1.91-11.51-2.57-11.29-9.59.19-5.84 2.13-11.43 9.18-13.67-3.43 4.64-2.86 12.65 1.29 15.66 2.18 1.59 3.08 2.86 1.9 5.34-.17.37.1.95.14 1.28l.62.06z"/><path class="st1" d="M374.5 173.1c1.2 1.31 3.55 3.65 3.38 3.85-2.36 2.81.62 8.77-5.47 9.32-1.86 6.97 5.09 2.77 6.64 5.32-1.64 1.68-2.74 4.86-6.58 1.8-.17 1.88-.3 3.25-.43 4.58-.47-.85-.94-1.66-1.15-2.02-3.51 1.04-7.12 2.14-10.75 3.15-.42.11-1.31-.17-1.41-.47-.24-.68-.34-1.56-.1-2.21.6-1.67 1.41-3.26 2.23-5.08.38.12 1.44.7 2.5.71.84.01 2.1-.47 2.43-1.12.32-.62.05-1.68-.29-2.49l-.1-.23c-.68-1.51-1.34-3.18-2.5-4.27-.89-.83-2.53-.88-4.42-1.45 1.51-1.7 3.41-3.83 5.29-5.94-1.82-3.8-6.73-5.12-7.24-10.04 1.04.42 1.84.66 2.56 1.05 2.27 1.23 2.56.06 2.71-1.91.1-1.34.57-2.77 1.28-3.92 1.41-2.27 2.1-4.51 1.54-7.97-3.78 3.49-6.76 6.25-9.69 8.96-2.54-1.62-4.76-2.95-6.88-4.41-.6-.42-.93-1.23-1.38-1.86.68-.16 1.4-.24 2.05-.49.9-.34 1.75-.8 2.91-1.35-.48-1.16-.91-2.2-1.32-3.22h5.92c-.27-1.65-.51-3.12-.74-4.6l1.15.54c.98-1.29 1.81-2.76 2.99-3.83 2.1-1.92 3.35-5.4 7.4-4.1 1.01.33 2.37-.37 3.56-.59.62-.11 1.17-.14 1.66-.08 2.1.2 2.96 1.87 2.15 4.49-.49 1.57-.97 3.14-1.37 4.74-.23.95-.74 2.25-.32 2.83.41.59 1.82.47 3.02.71v11.51c-2.52 1.94-3.68 5.35-2.49 8.97.15.46.87.71 1.26 1.12z"/><path d="M377.07 242.4l.48.19c-.62 1.1-1.04 1.89-2.07 3.76l-.72.69c-2.45-2.54-4.76-5.11-8.1-6.94-3.64-2-3.92-5.8-3.22-9.27.19-.92.44-1.82.71-2.65 1.12-3.37 1.95-7.35 6.19-9.46 1.95-.97 3.49-1.57 5.07-1.07l-.44 1.5c-7.05 2.24-9 7.83-9.18 13.67-.24 7.01 6.2 7.68 11.28 9.58zM373.12 411.22c4.01 4.48 4.76 10.85.29 16.15-.93-3.17-1.45-5.86-2.52-8.3-.9-2.07-3.07-5.68-3.59-5.5-3.74 1.3-3.61-1.91-4.55-3.49-.71-1.22-1.26-2.58-1.98-3.77l1.92-.03c2.09 1.79 4.19 3.58 6.28 5.38l1.32-.77c-1.15-3.14-2.14-6.35-3.49-9.39l-.14-.28 1.59-.82c.54 1.05 1.07 2.13 1.59 3.19 1.21 2.51 1.54 5.68 3.28 7.63zM372.41 137.01l-.16 1.74c-.49-.06-1.04-.03-1.66.08-1.19.22-2.55.92-3.56.59-4.05-1.3-5.3 2.18-7.4 4.1-1.18 1.07-2.01 2.54-2.99 3.83l-1.15-.54c.23 1.48.47 2.95.74 4.6h-5.92c.41 1.02.84 2.07 1.32 3.22-1.16.54-2.01 1.01-2.91 1.35-.65.25-1.37.33-2.05.49.45.63.78 1.44 1.38 1.86 2.12 1.47 4.34 2.8 6.88 4.41 2.92-2.71 5.91-5.47 9.69-8.96.56 3.46-.13 5.7-1.54 7.97-.71 1.14-1.18 2.58-1.28 3.92-.15 1.97-.44 3.14-2.71 1.91-.72-.39-1.53-.63-2.56-1.05.52 4.92 5.43 6.24 7.24 10.04-1.88 2.11-3.78 4.25-5.29 5.94 1.89.57 3.52.62 4.42 1.45 1.16 1.09 1.82 2.76 2.5 4.27l.1.23-1.76.6c-2.33-1.55-4.65-3.1-6.95-4.64-.83 2.73-5 5.2-7.26 4.35-.59-.22-1.13-.58-1.6-1.04l1.12-.32c2.33-1.2 3.58-1.85 4.84-2.49l-.69-.43c.92-1.56 1.78-3.16 2.8-4.64 1.19-1.71.55-5.42-.62-6.5-2.7-2.51-5.24-5.16-8.67-6.58l.61-1.39c.47.09 1.14-.1 2.13-.78-1.92-1.98-3.85-3.83-5.63-5.84-1.1-1.25 1.01-4.79 3.31-5.64.44-.17.95-.17 1.44-.24-.71-4.19.08-4.87 4.37-3.62-.04-4.15 2.86-6.17 5.81-8.26 2.27-1.62 4.38-3.46 6.57-5.19h.75c.72.76.53 2.16 2.75 1.19.99-.46 2.26-.32 3.59.01z"/><path class="st0" d="M372.05 197.98l.08.14-.1.04.02-.18z"/><path class="st0" d="M372.13 198.12l-.1.1.01-.05.09-.05z"/><path d="M372.05 197.98l-.02.19c-1.16.56-2.3 1.29-3.53 1.59-3.21.76-6.47 1.31-10.51 2.11l-1.74.35c-2.09-.47-3.59-.74-5.04-1.16-1.08-.31-2.06-.92-3.14-1.22-.86-.24-1.86-.45-2.65-.2-.48.16-1.09 1.64-.93 1.78.83.78 1.88 1.87 2.84 1.86 1.41-.02 2.8-.19 4.36-.41l.16 1.16-3.4 1.38-1.9.9c-1.59-1.21-2.78-2.11-4.77-3.61.34 3.12.57 5.22.8 7.32l-1.74.28c-.41-1.95-1.11-3.93-1.87-6.66l-.22-2c1.32-.13 2.59-.68 3.22-1.6.74-1.09 1.62-2.07 2.63-3.34-.35-.92-.86-2.25-1.68-4.36-1.6.43-3.22.87-4.85 1.31l-.34-1.25.52-.92c-2.41-1.56-3.51-4.76-5.63-6.59l.93-1.23c1.58 1.19 3.1 2.37 4.58 3.49l.4-4.49c1.28.17 2.89-.1 3.77.57 1.15.9 2.4 1.83 3.07 3.05.62 1.11.74 2.46-.17 4.24 1.59.09 3.06.18 4.7.27.34.95.7 1.95 1.13 3.16-.89.69-1.83 1.42-3.59 2.8 3.14 1.15 5.74 2.1 8.2 3 .62-2.07 1.14-3.84 1.65-5.6l-.02.02-.1.04c-.02-1.29-.02-2.58-.05-3.87-.02-.97-.1-1.95-.14-2.92 1.12.06 2.37-.16 3.34.27 1.04.46 1.82 1.53 2.71 2.34l.72-.97 1.76-.6c.34.81.61 1.87.29 2.49-.33.65-1.59 1.13-2.43 1.12-1.07-.01-2.13-.59-2.5-.71-.82 1.82-1.63 3.41-2.23 5.08-.23.65-.14 1.53.1 2.21.1.3.99.59 1.41.47 3.64-1.01 7.24-2.1 10.75-3.15.21.34.67 1.16 1.15 2.01zM370.81 305.92c.7.2 1 1.75 1.88 3.43-4.03 0-7.21.32-10.27-.14-1.39-.21-2.56-1.94-3.83-2.98 1.18-.7 2.4-2.05 3.53-1.98 2.92.19 5.86.85 8.69 1.67zM368.08 422.47c.58.44 1.14 1.8.88 2.29-.89 1.67-2.1 3.17-3.34 4.61-.12.14-1.55-.39-1.84-.9-1.38-2.41-2.33-5.1-3.91-7.36-1.05-1.49-3.01-2.31-4.36-3.65-1.14-1.14-2.35-2.44-2.86-3.91-.48-1.43-.1-3.16-.1-4.4-1.95-.23-3.52-.43-5.07-.62 1.18 9.22 2.48 18.46 3.45 27.74l-2.07.27c-2.38-18.28-4.71-36.15-7.12-54.51l2.04-.26c.95 7.2 2.09 14.32 3.07 21.21 1.41-.49 3.05-1.06 4.71-1.64-.41-1.47-1.04-3.07-1.22-4.72-.14-1.21.33-2.5.53-3.74.92.65 1.83 1.34 2.78 1.94.48.31 1.01.54 1.14.58l.48 6.09.95-.02c.64-2.1 1.27-4.19 1.71-5.66 1.45-.71 2.43-1.48 3.49-1.62 1.17-.15 3.07-.15 3.52.53 1.21 1.81 2.29 3.72 3.31 5.67l-1.59.82c-1.4-2.77-4.35-2.66-7.05-2.96-.34 1-.68 2.01-1.21 3.59 1.19-.08 2.1-.25 2.99-.18 1.53.13 3.05.41 4.57.62-.71 1.12-1.42 2.24-2.13 3.37-.38.2-.77.41-1.14.62l-1.92.03c-.91-1.54-2.1-2.81-4.31-3.17-.28 2.59 3.39 4.75.78 7.71-.19.22 1.29 1.91 2 2.92.97-.41 1.94-.8 3.25-1.34.96 4 2.32 7.56 5.59 10.05zM360.1 221.43c3 .06 2.99 1.57 2.28 3.91-.5 1.62-.41 3.43-.78 5.1-.05.23-.11.47-.19.7-.46 1.41-1.64 2.58-3.25 3.38-.16 1.02.01 2.25-.52 3.04-2.28 3.43-.24 5.09 2 6.79l-1.21 1.51c-1.42-1.11-2.83-2.15-4.13-3.18-.62 1.29-1.18 2.41-1.69 3.55-.56 1.23-1.28 2.44-1.53 3.73-.15.76-.25 1.59-.22 2.38l-1.43.05-.01-.05c-1.47-3.37-.53-6.23 1.53-9.09 2.64-3.65-.08-6.41-2.19-9.18.24.87.65 1.74.68 2.62.1 2.89.74 5.91-2.43 7.94-1.36.87-2.33 2.36-3.85 3.96l-2.8-2.1c-2.43-1.83-5.2-3.36-7.18-5.59-1.76-1.98-2.79-4.69-3.74-7.23l-.01-.03c0-.35 2.21-1.54 3.53-2.46-.98-3.52 1.31-5.71 5.42-7.22 2.91-1.07 4.4-.77 6.06 1.26.58.71 1.13 1.65 1.24 2.52.22 1.92-.68 4.34 2.78 3.87.11-2.2-.04-5.01.54-7.67.26-1.16 1.86-2.51 3.11-2.87 1.85-.53 3.92-.31 5.9-.27.72.01 1.4.62 2.09.63zm.52 1.89h-8.53c.47.22.93.44 1.41.65-4.88 5.46-2.04 9.64 1.12 14.44 1.98-5 3.79-9.53 6-15.09zm-15.75 19.29c1.56-1.13 2.7-1.77 2.44-3.83-.23-1.86-.13-3.57-2.8-4-.89-.14-1.67-2.21-2.09-3.52-.21-.65.5-1.6.55-1.74-2.42-1.08-4.38-1.96-6.49-2.9l-1.27 3.37 1.01-.23 2.03 5.85c-2.09-.29-4.19-.58-6.27-.87l-.89.73c2.12 1.69 4.37 3.24 6.32 5.11 2.18 2.09 3.76 4.71 7.46 2.03zM362.26 265.52c-.02 1.35.1 2.84-.42 4.01-.86 1.88-2.01 3.69-3.37 5.25-1.49 1.71-2.4 2.99.04 4.67.53.36.26 1.88.35 2.86-.97.01-2.07.33-2.88-.03-3.61-1.62-5.01-4.46-3.71-8.6h-6.02c0-1.86-1.69-2.88-3.94-2.95-2.2-.08-4.01 2.03-6.85.07-.68-.47-1.56-.67-2.52-.71l.1-1.42c.82.1 1.53-.29 2-1.92l-3.39-.56c.61-1.68.91-3.58 1.93-4.94.69-.92 2.4-1.07 4.16-1.77l1.4-.25c.19.45.36.89.49 1.25.4 1.16.18 2.54.26 4.32l-2.64.64c.47 1.24.86 2.24 1.28 3.34 6.33-1.2 4.57-7.73 7.61-11.39 4.84 2.56 8.79 5.75 10.91 10.9l-3.13 3.32c4.37 1.78 4.95-2.01 6.21-3.46-.96-1.65-2.28-2.98-2.5-4.47-.37-2.56-1.92-3.36-4-3.9-3.07-.81-4.87-3.54-4.47-6.76l.25-.63 1.43-.05c.01.61.09 1.2.26 1.75.41 1.26 1.31 2.62 2.4 3.34 1.27.86 3.01.97 4.46 1.62 2.04.91 6.44.1 3.71 4.8-.17.33.6 1.11.59 1.67zm-8.75 2.56c.27-.47-.02-1.64-.47-2.07-1.66-1.65-3.5-3.11-5.39-4.76-1.04 2.11-1.98 4.01-3.39 6.88 2.35.47 4.74 1.07 7.18 1.35.67.07 1.68-.73 2.07-1.4z"/><path class="st1" d="M352.09 223.32h8.53c-2.22 5.57-4.02 10.09-6 15.09-3.16-4.8-6-8.98-1.12-14.44l-1.41-.65z"/><path d="M357.26 194.14l-.1.1v-.05l.1-.05zM357.16 194.19v.05l-.01.01.01-.06zM357.15 194.07v.12c-3.44 1.66-4.4 1.05-5.19-3.33 2.73-.39 5.17-.52 5.19 3.21z"/><path class="st1" d="M355.38 173.32c1.16 1.08 1.8 4.79.62 6.5-1.02 1.48-1.88 3.09-2.8 4.64l.69.43c-1.25.65-2.51 1.29-4.84 2.49 0-2.78.18-4.98-.08-7.14-.14-1.18-.81-3.01-1.62-3.25-2.08-.6-2.36-2.05-2.77-3.67-.94-3.82-1.92-7.64-2.89-11.45l.98-.33c.53 1.15 1.04 2.3 1.59 3.43.21.44.44 1.11.77 1.21.59.16 1.14.35 1.68.57 3.44 1.41 5.98 4.06 8.67 6.57z"/><path d="M354.81 395.41l-.02-.01v-.01l.02.02z"/><path class="st1" d="M353.05 266c.45.44.74 1.61.47 2.07-.39.67-1.41 1.47-2.07 1.4-2.43-.27-4.82-.88-7.18-1.35 1.41-2.87 2.35-4.77 3.39-6.88 1.89 1.65 3.73 3.12 5.39 4.76z"/><path class="st1" d="M356.24 202.21c-1.71.23-3.19.46-4.57.65-1.56.22-2.95.38-4.36.41-.96.02-2.01-1.07-2.84-1.86-.16-.14.45-1.62.93-1.78.79-.26 1.8-.05 2.65.2 1.08.29 2.07.91 3.14 1.22 1.46.42 2.96.69 5.05 1.16z"/><path d="M349.37 440.42l.14 1.86c-18.45 1.52-37.02 1.07-55.54.73-9.68-.19-19.37-.92-29.03-1.8l.14-1.59c2.76.23 5.46.27 7.82.42-.28-3.3-1.24-6.32-.6-8.95.74-3.08-.14-5.81-1.53-7.9l1.45-.47c1.31 1.99 2.41 3.96 2.27 5.83-.34 4.31.43 7.84 2.14 11.94h25.87v-81.1c-1.77-.98-3.76-2.08-6.1-3.38 3.26-2.65 7.4-3.92 6.47-8.32-5.78-.63-11.52-1.28-17.24-1.91l.23-2.07c3.07.34 6.14.59 9.22.75 4.61.23 9.21.32 13.84.32v2.21h-3.58c1.04.83 2.67.44 2.97.89 1.37 2.14 2.91.65 4.44.67 3.49.04 7.58-1.25 10.14 3.98-2.13.17-3.74.27-5.36.44-1.07.11-2.18.2-3.2.51-1.5.47-2.89 1.36-4.42 1.68-1.41.29-2.92.06-4.92.06v85.21c14.71-.01 29.4-.01 44.38-.01z"/><path class="st1" d="M348.86 436.55c.17 1.29.34 2.58.5 3.87h-44.38v-85.21c2.01 0 3.52.23 4.92-.06 1.53-.32 2.92-1.2 4.42-1.68 1.02-.32 2.13-.4 3.2-.51 1.62-.17 3.23-.27 5.36-.44-2.56-5.22-6.64-3.94-10.14-3.98-1.53-.02-3.07 1.47-4.44-.67-.3-.46-1.93-.07-2.97-.89h33c.22 2.87.47 6.1.71 9.43.11 1.37.21 2.76.32 4.16l-.65.1c-.6-1.83-1.2-3.64-1.8-5.43-6.82 1.72-4.4 7.03-5.48 11.59 1.5-.59 2.46-.97 3.47-1.38.06.07.3.23.29.37-.29 2.73 2.55 5.62-.53 8.33-.35.31.78 2.31 1.22 3.52 1.03-.44 2.1-.81 3.07-1.38.47-.26.73-.89 1.74-2.22.35 2.67.7 5.32 1.04 7.96 2.42 18.36 4.75 36.24 7.13 54.52z"/><path d="M348.43 205.41c1.92 3.92 3.7 7.58 5.34 10.96-3.07 3.7-7.06 4.13-12.54 4.1 1.67-1.56 2.67-2.49 4.01-3.73l-1.61-3.11c-.46 4.43-3.29 4.25-6.04 4.04-3.08-.24-4.13-1.98-3.36-4.64-1.59.11-3.21.21-4.82.31h-.01c-.04-.11-.07-.23-.07-.35-.07-.79.41-1.68-1.18-2.4-3.13-1.42-3.18-5.46-.8-9.27 4.43.34.7 4.78 3.08 6.16.89-3.67 1.29-3.86 5.04-2.92-.62-.4-1.35-.7-1.85-1.22-.55-.56-1.08-1.29-1.25-2.02-.08-.38.62-1.35.97-1.35.67.01 1.44.38 1.97.83.84.71 2.15.98 3.41.86l.22 2c-.83 1.94-1.42 3.31-2.17 5.04-.98-.14-2.28-.32-3.58-.5l-.5.54c1.19.73 2.39 1.46 3.85 2.34v3.64c1.29.11 2.99.74 3.91.14.71-.46.74-2.49.53-3.73-.04-.28-.1-.55-.16-.83l1.74-.28 1.29.35 2.68-4.06 1.9-.9zM348.97 180.25c.26 2.16.08 4.36.08 7.14l-1.12.32c-.47-.46-.89-1.01-1.23-1.64-1.1-2-1.44-4.64-.62-6.65-5.96-4.67-3.48-12.83-7.74-18.02 2.62-3.31 5.73-2.75 7.49 1.1.39.84.4 2.64 1.5 2.86l-.61 1.39c-.53-.23-1.09-.41-1.68-.57-.34-.1-.56-.77-.77-1.21-.55-1.13-1.06-2.28-1.59-3.43l-.98.33c.96 3.82 1.95 7.64 2.89 11.45.41 1.62.68 3.07 2.77 3.67.8.24 1.47 2.08 1.61 3.26zM348.14 273.68c1.25 1.16 1.92 1.77 2.98 2.75-2.61 1.17-5 2.35-7.5 3.3-1.35.51-3.09 1.22-4.26.78-4.29-1.59-8.48-3.51-12.57-5.55-2.24-1.11-3.98-.53-5.64.83-2.07 1.68-4.64 3.93-2.98 6.52 2.65 4.12-.08 4.79-2.75 6.09-.45-.61-.92-1.04-1.16-1.59-.35-.77-.29-1.86-.83-2.37-1.98-1.86-3.9-4.44-6.28-5.09-1.41-.38-2.87-.59-4.37-.69l.08-1.29c1.11.07 2.19.04 2.54-.44 1.77-2.49 2.7-.93 4.03.21 1.71 1.47 3.52 2.8 5.29 4.2.28-.22.55-.44.83-.65-.82-1.67 2.77-3.62-.72-5.16-1.01-.45-1.89-1.23-2.83-1.86 1.07-.87 2.01-2.11 3.24-2.52 3.34-1.15 6.81-1.95 10.61-2.98l-3.33-2.44c-2.21 1.32-4.25 3.07-6.61 3.8-2.43.75-4.92 1.41-7.42 1.92l-.3-1.44c4.62-.89 8.54-3.29 12.25-6.28 3.52-2.85 5.49-2.26 6.8 1.95.18.58.43 1.14.84 2.22 1.29-1.6 3.34.57 4.97.77l-.1 1.42c-1.99-.11-4.32.43-6 .43 1.25 1.1 2.52 2.22 3.79 3.32.41.35.81.74 1.29.95 2.19 1 4.45 1.83 6.59 2.92 2.31 1.17 6.71-.46 7.46-2.92.12-.4.18-.77.18-1.12h1.88v.01z"/><path class="st1" d="M347.31 238.79c.26 2.06-.89 2.7-2.44 3.83-3.7 2.68-5.28.05-7.46-2.02-1.95-1.87-4.2-3.42-6.32-5.11l.89-.73c2.09.29 4.19.58 6.27.87-.68-1.95-1.35-3.91-2.03-5.85l-1.01.23 1.27-3.37c2.1.94 4.07 1.82 6.49 2.9-.04.14-.76 1.08-.55 1.74.42 1.31 1.2 3.38 2.09 3.52 2.68.42 2.58 2.13 2.8 3.99z"/><path d="M344.58 343.98l.03 1.38c-.53 0-1.08.1-1.62.22-.97.22-2.53 2-2.34 2.46 1.05 2.54.34 5.48.56 8.21l-2.16.17c-.25-3.33-.5-6.56-.71-9.43h-29.42v-2.21c11.87-.01 23.77-.59 35.66-.8zM343.78 381.77l-2.04.26c-.34-2.64-.69-5.29-1.04-7.96-1.01 1.33-1.28 1.96-1.74 2.22-.97.56-2.04.93-3.07 1.38-.44-1.21-1.58-3.21-1.22-3.52 3.07-2.71.23-5.6.53-8.33.01-.14-.23-.3-.29-.37l-3.47 1.38c1.07-4.56-1.34-9.87 5.48-11.59.59 1.79 1.19 3.61 1.8 5.43l.65-.1-.32-4.16 2.16-.17c.15 1.8.71 3.51 2.45 4.94.29.23.04 1.31-.17 1.92-1.26 3.76-1.01 7.7-.59 11.45.26 2.42.56 4.82.88 7.22zM343.4 313.51c.62-.02 1.26.67 2.35 1.3l-6.46 7.21c-.97-.97-2.63-1.86-2.74-2.91-.16-1.58.28-3.94 1.37-4.73 1.34-.96 3.61-.78 5.48-.87z"/><path class="st1" d="M340.97 211.12c.21 1.24.17 3.27-.53 3.73-.92.59-2.62-.04-3.91-.14v-3.64c-1.46-.89-2.65-1.62-3.85-2.34l.5-.54c1.3.18 2.61.36 3.58.5.75-1.74 1.34-3.1 2.17-5.04.76 2.73 1.47 4.71 1.87 6.66.07.26.13.53.17.81z"/><path d="M339.16 259.22l-1.4.25c-1.87-.82-3.27-1.24-4.46-1.99-2.83-1.78-7.5-2.62-7.27-6.53.33-5.69-2.68-10-4.25-14.9-.18-.56-1.12-.86-2.7-1.98.48 3.57.98 5.97 1.03 8.37.02.99-.9 2-1.41 3-.72-.68-1.65-1.25-2.13-2.07-.75-1.33-1.19-2.83-1.98-4.77-.44 2.2-1.32 3.15-2.41 3.53l-.43-1.13c-.16-2.98-.25-4.7-.34-6.43l1.11-.23c1.44 1.02 2.87 2.05 4.55 3.26.42-2.17-.81-5.85 4.09-4.76-.39-1.26-.77-2.01-.81-2.77-.03-.67.12-1.56.55-2.01 1.36-1.39 7.21.17 7.29 2.07.05 1.07.09 2.3.01 3.46-.11 1.44-.41 2.76-1.17 3.54-2.08 2.14-.73 3.66-.4 5.41.5 2.62 1.15 5.22 1.87 7.79.23.8.75 1.97 1.38 2.16 2.54.76 3.82 4.25 7.3 3.31.33-.1 1.29 1.77 1.98 3.42z"/><path class="st1" d="M338.23 191.47l-.52.92c-2.64-1.5-5.28-2.99-8.2-4.65l-1.16-4.24c1.86-.14 3.19.45 4.25 1.38 2.12 1.83 3.22 5.02 5.63 6.59z"/><path d="M337.71 192.39l.34 1.25c-2.12.57-4.25 1.13-6.4 1.66-.5.12-1.66-.44-1.66-.67.02-1.28.31-2.55.41-3.26-1.91-.89-4.15-1.94-6.4-2.98.75-.78 1.5-1.57 2.56-2.68-.3-.42.38-2.5-2.31-2.19-.4.05-1.08-2.41-1.64-3.71 1.34-.43 3.19-1.64 3.94-1.15 2.42 1.58 4.74 3.29 6.97 4.98l-.93 1.23c-1.06-.92-2.38-1.51-4.25-1.38.38 1.42.79 2.89 1.16 4.24 2.93 1.67 5.57 3.17 8.21 4.66z"/><path class="st1" d="M337.76 259.46c-1.77.7-3.47.86-4.16 1.77-1.02 1.37-1.32 3.27-1.93 4.94 1.11.19 2.22.38 3.39.56-.47 1.63-1.18 2.03-2 1.92-1.63-.2-3.68-2.38-4.97-.77-.41-1.09-.66-1.65-.84-2.22-1.32-4.21-3.28-4.79-6.8-1.95-3.71 2.99-7.63 5.39-12.25 6.28-1.07.21-2.16.34-3.31.37-2.92.08-4.05-1.35-5-3.76-.47-1.2-1.9-2.96-2.78-2.89-3.28.25-4.53-1.98-7.12-4.67 3.93.3 6.32-2.41 9.93-.31 1.49.88 4.77-.32 6.69-1.48 1.48-.9 1.55-3.2-.87-3.95-2.43-.74-4.92-1.31-7.43-1.76-2.38-.43-4.81-.66-7.4-.98l-.68-.09c1.71-2.12 3.02-3.74 4.33-5.35l-4.21-1.78c-.2-.59-.53-1.59-.88-2.62 3.55-2.77 7.03-5.49 10.96-8.55.1 1.43.09 2.25.23 3.04.13.73.23 1.64.71 2.07.32.29 1.29-.04 1.92-.24 1.02-.32 2.01-.77 3-1.17.25 1.23.59 2.46.72 3.7.08.81-.16 1.66-.29 2.91 1.8-.46 3.89.2 5.5-.38 1.09-.38 1.96-1.33 2.4-3.53.79 1.95 1.23 3.44 1.98 4.77.47.83 1.41 1.39 2.13 2.07.5-1 1.43-2.01 1.41-3-.05-2.41-.55-4.8-1.03-8.37 1.58 1.13 2.52 1.43 2.7 1.98 1.57 4.9 4.58 9.21 4.25 14.9-.23 3.91 4.44 4.75 7.27 6.53 1.16.77 2.56 1.19 4.43 2.01z"/><path d="M329.41 213.32l.05.13h-.01l-.02-.02-.02-.11zM329.44 213.43l.02.02-.11-.01v-.11l.09.1zM329.41 213.32l.04.1-.1-.1h.06zM329.35 213.44v4.13l-1.48.41-1.98-4.74c1.15.06 2.3.13 3.46.2zM324.95 192.95l3.48 4.61c-1.18.86-2.36 1.72-3.55 2.58l-1.38-1.09c.49-2.04.97-4.07 1.45-6.1zM321.68 206.29c1.85.2 4.09 2.34 3.69 4.69-.29 1.79-.69 3.66-1.55 5.22-.21.39-.63.83-1.1 1.2l-.88-.95c.38-2.59.7-4.79 1.02-6.99l-3.11.43c-.88-2.07-1.77-4.2-2.67-6.33l-.97.22c.04.7.1 1.39.11 2.09.03 1.11.08 2.22.1 3.33l-1 .02c-2.41-3.45-2.13-6.67 1.73-7.66 1.19-.29 3.26 2.85 4.63 4.73z"/><path class="st1" d="M319.75 209.9l3.11-.43c-.32 2.2-.64 4.4-1.02 6.99-7-3.49-10.37 5.35-16.75 3.24 2.31-.99 4.61-1.98 7.3-3.13-3.62-4.79-8.94-1.65-12.44-3.34 1.53-2.76 2.96-5.35 4.43-8.03 3.56 3.15 6.28 5.7 9.21 8 .47.38 2.63-.32 2.65-.63.1-1.11.11-2.23.08-3.36-.02-1.11-.07-2.22-.1-3.33-.01-.7-.08-1.39-.11-2.09l.97-.22c.89 2.13 1.79 4.26 2.67 6.33z"/><path d="M321.84 216.46l.88.95c-.71.57-1.53.98-1.89.81-3.42-1.56-5.54.93-8.11 2.08-2.68 1.19-5.38 2.31-8 3.43-2.2-3.41-3.66-5.86.98-7.45-4.69.53-8.09-.95-10.49-4.49-.75-1.11-1.92-3.28-1.65-3.52 1.3-1.13 3.01-1.83 4.64-2.55 1.4-.61 2.85-1.1 4.26-1.67l1.91 1.15c-1.47 2.68-2.91 5.27-4.43 8.03 3.5 1.69 8.82-1.44 12.44 3.34-2.68 1.15-4.99 2.13-7.3 3.13 6.39 2.11 9.75-6.72 16.76-3.24zM319.97 187.58c.38.47-.98 2.4-1.61 3.62-.85 1.66-1.74 3.3-2.67 4.92-.65 1.12-1.4 2.19-1.77 2.76-4.33.06-9.25-5.76-8.66-8.89.07-.34.24-.82.5-.94 3.27-1.5 6.47-3.3 9.9-4.19 1.19-.31 3.25 1.43 4.31 2.72zM316.32 209.21c.03 1.13.02 2.25-.08 3.36-.02.32-2.18 1.01-2.65.63-2.92-2.29-5.64-4.85-9.21-8l-1.91-1.15c.47-.19.94-.39 1.4-.6.19-.08-.11-1.23-.19-1.87-3.99 1.69-7.52 3.89-11.3 4.52-2.09.35-4.62-1.91-7.37-3.18 5.58-6.36 12.16-9.3 19.71-11.16.4 1.49.78 2.99 1.22 4.49.19.63.33 1.62.77 1.8 5.23 2.2.73 3.37-.26 5.29 2.43 1.88 3.19 6.71 8.88 5.88l.99-.01zm-12.41-13.35c-6.49-.58-10.93 2.46-15.12 6.46 1.37 0 2.51.09 3.63-.02 1.19-.12 2.44-.26 3.55-.7 1.59-.62 3.09-1.5 4.62-2.28l.29.68c.98-1.33 1.97-2.68 3.03-4.14zM311.76 240.98l.43 1.13c-1.62.59-3.7-.08-5.5.38.14-1.25.37-2.1.29-2.91-.13-1.24-.47-2.46-.72-3.7-.99.4-1.98.84-3 1.17-.63.2-1.61.53-1.92.24-.47-.43-.58-1.34-.71-2.07-.14-.79-.13-1.61-.23-3.04-3.93 3.07-7.41 5.78-10.96 8.55.35 1.02.68 2.03.88 2.62l4.21 1.78c-1.31 1.62-2.62 3.23-4.33 5.35l.68.09-.14 1.11c-.97-.56-1.93-1.12-2.86-1.59-.23-.11.6-2.36.95-3.61l.89.32c-.86-1.79-1.72-3.58-2.89-5.98-1.96 6.05-7.47 3.53-11.58 5.43-1.44-3.48-2.92-7.01-4.51-10.82 4.02-4.31 7.05-9.41 7.42-15.74.01-.12-.04-.3.03-.37.58-.53 1.5-1.62 1.74-1.49 3 1.63 5.97-4.04 8.55-.29 1.74 2.51 3.58 3.38 6.46 3.23 3.43-.18 6.05 2.35 6.46 5.96.38 3.42 1.32 6.18 5.23 7.27 1.26.35 2.07 2.4 3.04 3.71.57.77 1.04 1.62 2.09 3.27zm-14.23-11.51c2.02-.78 2.37-2.34 1.02-3.73-1.19-1.22-2.9-2.01-4.49-2.77-1.91-.92-3.89-1.76-5.92-2.37-1.42-.43-2.98-.58-4.46-.53-1.03.04-2.03.64-2.04.65-2.54 4.97-4.82 9.21-6.85 13.59-.53 1.13-.55 2.71-.27 3.97.36 1.58 1.26 3.04 1.95 4.57 1.6-.11 3.19-.11 4.73-.38 1-.18 2.37-.49 2.82-1.21 3.26-5.38 7.58-9.48 13.51-11.79zM308.64 320c.97.29 1.7 1.38 2.53 2.1-.78.77-1.45 1.74-2.37 2.29-3.03 1.82-6.19 3.4-9.18 5.28-.68.42-.63 1.86-1.27 2.48-.45.44-.98.99-1.53 1.47l-.92-1.01c.31-1.59.56-2.85.78-4.02-2.13.44-4.11.84-5.86 1.2l-.38-.92.98-.41c2.16-1.74 3.94-2.75 5.15-4.22 3.09-3.7 7.69-5.57 12.07-4.24zM308.2 270.01l.3 1.44c-1.89.4-3.8.7-5.71.9-1.53.17-4.13-.3-4.42-3.34-.34-3.58-1.46-3.98-5.6-2.22 1.27.77 2.64 1.16 3.21 2.04 1.04 1.63 1.61 3.55 2.37 5.36-1.25.21-2.5.38-3.74.63-.5.1-.95.36-1.44.55 2.68 1.09 5.27 1.59 7.89 1.85.53.05 1.17.13 1.8.17l-.08 1.29c-2.34-.16-4.73-.06-7.06.04-3.31.15-4.45-1.75-5.57-4.28 1.89-.88 3.59-1.67 5.73-2.67-1.8-1.32-3.29-3.34-4.72-3.31-6.14.18-9.3-4.63-12.86-7.94-1.98-1.85-3.36-3.25-5.99-3.24-2.84 3.63-3.31 3.68-6.25.95-.39-.37-1.09-.39-1.52-.73-1.01-.8-2.33-1.5-2.84-2.58-.97-2.01-1.47-4.25-2.16-6.39l-.86-.41-.77-.86 1.91-1.71c1.07 1.71 2.34 3.34 3.15 5.17.63 1.41.71 3.08 1.08 4.89 1.87-1.6 1.5-5.93 5.3-4.56.73.26.83 2.28 1.23 3.52 3.19.77 7.18-.32 9.48 4.73 1.3 2.85 5.24 4.63 8.24 6.49.82.51 2.55-.46 2.97-.56-.79-2.19-2.07-4.19-2.2-6.14l.91-.04c2.59 2.7 3.85 4.92 7.12 4.67.88-.07 2.31 1.69 2.78 2.89.95 2.41 2.07 3.84 5 3.76 1.15-.02 2.25-.15 3.32-.36zM305.73 253.32c2.42.74 2.35 3.04.87 3.95-1.92 1.16-5.2 2.36-6.69 1.48-3.61-2.1-6 .61-9.93.31l-.91.04c-.01-.17-.02-.33-.01-.5.08-2.07 6.04-3.86 8.85-3.25 2.19.48 4.42.74 6.7.62-2.14-1.38-3.89-2.32-6.92-1.91-2.17.29-4.58-1-6.94-2.35l.14-1.11c2.59.32 5.02.55 7.4.98 2.51.43 5.01.99 7.44 1.74z"/><path class="st1" d="M288.79 202.33c4.19-4.01 8.63-7.04 15.12-6.46-1.06 1.46-2.04 2.8-3.03 4.15l-.29-.68c-1.53.77-3.03 1.66-4.62 2.28-1.1.44-2.35.58-3.55.7-1.12.1-2.27.01-3.63.01z"/><path class="st1" d="M302.87 347.68c.92 4.4-3.21 5.67-6.47 8.32l6.1 3.38v81.09h-25.87c-1.71-4.1-2.48-7.63-2.14-11.94.14-1.87-.96-3.85-2.27-5.83-.95-1.46-2.02-2.92-2.79-4.37-.86-1.62-2.01-3.17-2.5-4.9-1.2-4.19-2.09-7.87-6.54-10.71-4.4-2.79-6.88-7.41-5.86-13.59.05-.31.11-.62.18-.94 2.62-12.08 4.15-24.4 6.15-36.62.11-.72.44-1.4.6-2.11 1.32-5.89 1.34-6.06 7.05-5.49 5.7.56 11.4 1.18 17.12 1.8 5.72.64 11.46 1.28 17.24 1.91z"/><path class="st1" d="M298.55 225.74c1.35 1.38 1 2.95-1.02 3.73-5.93 2.31-10.24 6.41-13.52 11.78-.44.72-1.82 1.03-2.82 1.21-1.54.28-3.13.27-4.73.38-.68-1.53-1.59-2.99-1.95-4.57-.28-1.25-.26-2.83.27-3.97 2.03-4.37 4.31-8.62 6.85-13.59.01-.01 1.01-.61 2.04-.65 1.48-.05 3.04.1 4.46.53 2.03.61 4.01 1.44 5.92 2.37 1.6.78 3.31 1.56 4.5 2.78z"/><path d="M295.92 332.62l.92 1.01c-.77.68-1.55 1.23-2.16 1.11-3.33-.62-3.79 1.16-3.89 3.12-3.16.58-5.78 1.07-8.4 1.52-.47.08-1.11.14-1.46-.11-2.93-2.01-5.97-3.9-8.63-6.23-1.63-1.43-2.75-3.55-.01-5.99 1.98 3.21 4.01 6.37 7.98 4.95 1.48-1.59 2.92-3.13 4.34-4.68l1.39-.03c-1.38-1.86-3.02-3.59-4.01-5.64-.57-1.17-.08-2.87-.07-4.33 1.01.47 2.05.9 3.06 1.4.95.47 1.95.91 2.83 1.52 2.5 1.75 4.46 3.85 3.64 8.23l-.98.41c-.88-2.08-1.63-3.85-2.38-5.61-.37.16-.74.32-1.11.47.59 2.08 1.18 4.17 1.48 5.23-3.34 2.23-6 4-8.92 5.94.74.8 1.44 1.58 1.6 1.74 2.97-.43 5.26-.77 8.09-1.17-.09-4.77 3.82-2.99 6.69-2.86zM285.85 343.7l-.23 2.07c-5.72-.62-11.42-1.24-17.12-1.8-5.71-.56-5.73-.4-7.05 5.49-.16.71-.49 1.39-.6 2.11-2.01 12.22-3.54 24.54-6.15 36.62-.07.32-.13.63-.18.94l-1.8-.12c.21-1.18.44-2.36.62-3.54 2.2-14.17 4.41-28.35 6.67-42.9-16.41-2.76-32.41-7.11-48.34-13.01l.75-2.06c11.05 4.1 22.33 7.39 33.87 9.97-.16-1.46-.21-2.92-.5-4.32-.18-.89-.64-2.41-1.1-2.46-4.84-.53-7.67-2.58-6.9-7.95.07-.5-.59-1.06-.77-1.64-.5-1.57-1.13-3.13-1.75-4.68l1.96-.35c1.22 3.15 4.4 5.76 2.75 9.77-.12.28.96 1.31 1.65 1.6 1.44.63 2.97 1.23 4.51 1.41 2.29.27 3.02.89 2.21 3.37-1.05 3.2.65 5.95 4.01 6.45 11.17 1.66 22.31 3.83 33.49 5.03zM278.37 287.4c4.12-1.92 4.67-1.93 4.25 2.09-.54 5.22-2.13 10.35-3.28 15.51l-1.49-.2c-.58-1.07-1.18-2.12-1.74-3.19-1.56-3.05-4.18-3.92-6.63-1.68-1.75 1.6-2.44 1.01-4.18-.03-2.38-1.42-5.35-1.83-8.78-2.89 1.97-2.06 3.65-3.82 5.59-5.86l1.71 1.46c-.89.89-1.56 2.28-2.15 4.34l8.03-3.44c.94 1.42 1.56 2.37 1.74 2.64 1.46-1.68 2.86-3.98 3.39-3.8 1.74.62 3.16 2.13 4.71 3.32.11-2.17.2-3.92.26-4.93-1.46-.68-3.07-1.16-4.51-1.78l.26-1.8c1.06.16 2.11.57 2.82.24zM276.6 281.43c.83.52 1.51 2.07 1.38 3.06-.11.84-1.47 1.52-2.68 2.64l.26.04-.26 1.8c-1.12-.49-2.13-1.06-2.89-1.88-2.05-2.2-1.54-2.68-4.55-.8.51.89 1.4 1.8 1.43 2.72.02.74-.97 2.18-1.53 2.19-1.67.03-2.92.41-3.92 1.43l-1.71-1.46.85-.89c-2.52-.74-4.52-1.13-6.33-1.94-1.01-.45-1.69-1.6-2.52-2.44 1.01-.68 1.97-1.81 3.06-1.96 4.4-.59 8.85-.84 13.28-1.27 1.01-.1 2.01-.38 3.01-.6 1.06-.25 2.46-1.05 3.12-.64z"/><path class="st1" d="M270.76 423.18c1.39 2.09 2.28 4.82 1.53 7.9-.64 2.63.32 5.65.6 8.95-2.35-.15-5.06-.19-7.82-.42-.92-.08-1.85-.17-2.77-.31-9.35-1.35-18.67-2.87-27.99-4.43-2.72-.46-6.9.85-6.02-4.68.14-.86-2.34-1.92-2.65-3.13-.5-2.02-3.72-3.3-1.77-5.99-2.2-1.34-4.41-2.67-6.91-4.18-.14.56-.23 1.1-.3 1.62l-1.17-.18c.58-3.69-.01-6.07-3.86-6.87-.77-.17-1.99-2.12-1.74-2.62.83-1.67.11-3.56.5-4.73 1.8-5.47-1.42-10.45-.92-15.79.17-1.83-2.22-4.45-4.11-5.78-3.25-2.3-1.36-4.31-.32-6.43 1.39-2.83 2.94-5.57 4.45-8.33 2.02-3.71 1.31-7.24-1.52-9.93-2.11-2.01-3.26-4.39-3.77-6.85-.29-1.38-.37-2.78-.32-4.17.29-7.45-1.55-14.33-4.2-21.99 3.99 1.67 7.98 3.25 11.98 4.72 15.92 5.9 31.93 10.25 48.34 13.01-2.26 14.56-4.47 28.73-6.67 42.9-.18 1.18-.41 2.36-.62 3.54-.35 1.97-.68 3.94-.77 5.91-.21 4.58 3.86 7.06 6.64 9.01 4.03 2.83 5.25 6.35 6.41 10.5.56 2.01.62 3.88 3.03 5.78.94.75 1.93 1.75 2.74 2.97z"/><path d="M272.22 422.71l-1.45.47c-.82-1.22-1.8-2.22-2.74-2.96-2.4-1.9-2.46-3.77-3.03-5.78-1.16-4.15-2.38-7.67-6.41-10.5-2.78-1.95-6.85-4.43-6.64-9.01.09-1.98.41-3.95.77-5.92l1.8.12c-1.01 6.18 1.47 10.81 5.86 13.59 4.45 2.83 5.34 6.52 6.54 10.71.5 1.73 1.64 3.28 2.5 4.9.77 1.45 1.84 2.92 2.8 4.38zM265.08 439.61l-.14 1.59c-4.02-.37-8.05-.76-12.07-1.15-8.05-.77-16.01-2.41-24-3.73-.8-.13-1.53-.73-1.74-.83-1.04 1.56-1.76 3.73-3.17 4.37-.98.44-3.39-.86-4.34-2.04-1.63-2.02-3.22-4.07-4.78-6.14l1.1-.83c1.03 1.35 2.13 2.66 3.24 3.96.45.53 1.4.63 2.25.99.59-1.98 1.05-3.57 1.43-4.82-3.42-3.55-6.89-6.73-6.17-12.47.07-.52.17-1.06.3-1.62 2.5 1.5 4.7 2.84 6.91 4.18-1.95 2.69 1.26 3.97 1.77 5.99.3 1.21 2.78 2.26 2.65 3.13-.88 5.53 3.3 4.22 6.02 4.68 9.32 1.55 18.64 3.08 27.99 4.43.9.13 1.83.23 2.75.31zM257.92 247.26l.77.86c-1.48 5.65-5.73 6.05-9.97 5.52-2.93-.37-4.83-.07-6.19 2.79-.31.64-2.1.57-3.22.83-.24-1.11-.83-2.29-.62-3.32.19-.98 1.2-1.8 1.86-2.69-3.18 1.1-5.4 5.42-9.43 1.98-.44 1.26-.88 2.52-1.32 3.77l-1.4-.49c.53-1.57.77-3.07.39-4.34-.56-1.85-1.1-3.99-1.99-5.92l1.87-.62c.84 1.78 1.59 3.67 2.37 5.5l.82-.5c-.04-.47-.06-.92-.07-1.04 3.18-1.61 6-3.04 9.35-4.73v4.38c5.5-3.97 11.57-3.74 13.85.41.18-.08.4-.13.54-.26.79-.7 1.59-1.41 2.39-2.13z"/><path class="st1" d="M245.8 333.16c.29 1.41.34 2.86.5 4.32-11.54-2.58-22.82-5.88-33.87-9.97-8.6-3.19-17.04-6.85-25.36-11.03 2.77-5.61-3.1-4.31-4.9-6.34-.22-.23-.61-.31-.92-.45 8.04-13.97 16.08-27.91 24.11-41.87 5.19-8.99 10.36-17.99 15.56-27 3.02.79 4.73 2.95 5.87 5.44.89 1.93 1.44 4.07 1.99 5.92.38 1.27.14 2.77-.39 4.34-.79 2.29-2.2 4.74-3.25 6.87-1.06 2.14-.11 3.43.56 5.02.18.43.59.99.99 1.07 4.8 1.07 2.71 3.92 1.73 6.49-.51 1.34-1.57 2.53.75 3.59.58.26-.01 3.11-.09 4.76-.07 1.53-.38 3.07-.22 4.56.17 1.55.68 3.07 1.23 4.55.48 1.3 1.19 2.53 1.83 3.77.59 1.1 2.01 2.5 1.72 3.22-2.39 5.85-.4 10.92 1.63 15.98.62 1.56 1.25 3.11 1.75 4.68.18.58.84 1.14.77 1.64-.77 5.37 2.06 7.42 6.9 7.95.47.07.93 1.59 1.11 2.49z"/><path d="M237.23 316.08l-1.96.35c-2.03-5.07-4.02-10.14-1.63-15.98.29-.72-1.13-2.12-1.72-3.22-.65-1.24-1.35-2.47-1.83-3.77-.55-1.47-1.06-3-1.23-4.55-.16-1.5.15-3.04.22-4.56.08-1.65.67-4.5.09-4.76-2.32-1.06-1.26-2.25-.75-3.59.98-2.57 3.07-5.43-1.73-6.49-.4-.08-.81-.65-.99-1.07-.67-1.59-1.62-2.88-.56-5.02 1.05-2.13 2.46-4.58 3.25-6.87l1.4.49c-.73 2.1-1.47 4.19-2.22 6.28-.85 2.33-1.25 4.15 2.07 5.04 2.44.65 3.4 2.67 2.06 5.24-.51.98-.92 2.02-1.38 3.03l.92-.13c.35 1.5 1.08 3.03.96 4.49-.28 3.48-2.31 6.91-.01 10.4l-.09.35c.32 1.01.62 2.02 1.03 3 .92 2.17 3.12 4.67 2.62 6.41-1.45 5.07.01 9.46 1.23 14.16.06.24.15.5.25.77zM228.66 245.64l-1.87.62c-1.14-2.49-2.85-4.65-5.87-5.44-5.19 9.01-10.37 18.01-15.56 27l-1.82-1.05c2.57-4.47 5.11-8.96 7.63-13.45 2.98-5.34 5.67-10.84 8.6-16.48 4.63 1.43 7.02 4.87 8.89 8.8z"/><path class="st1" d="M222.86 430.99c-.38 1.25-.84 2.84-1.43 4.82-.86-.36-1.8-.47-2.25-.99-1.1-1.3-2.21-2.61-3.24-3.96-.62-.82-1.2-1.65-1.74-2.51-.78-1.24-.81-2.94-1.36-4.36-.37-.94-.86-2.12-1.65-2.55-2.62-1.44-4.85-2.83-4.58-6.43.08-1.1-1.18-2.3-1.55-3.7 3.11 2.92 6.03 5.94 10.42 7.34l.04-.31 1.17.18c-.73 5.73 2.75 8.92 6.17 12.47z"/><path d="M215.93 430.85l-1.1.83c-2.28-3.01-4.49-6.06-6.66-9.12-1.73-2.44-2.99-5.21-4.58-7.75-2.28-3.64-1.61-5.25 2.52-6.23.75-.17 1.71-1.32 1.78-2.1.17-1.9-.2-3.84-.21-5.77-.01-.94.32-1.89.5-2.83-1.1-.08-2.2-.17-3.88-.29v-7.13c-1.83-.52-3.18-.89-4.53-1.28.5-1.16 1.02-2.3 1.47-3.47.17-.43.2-.96.14-1.43-.45-3.58-1.04-7.13-1.34-10.72-.09-1.05.65-3.11.96-3.1 2.04.05 2.37 1.31 1.5 3.05-.08.16.35.58.72 1.17 1.5-3.07 3.26-5.85 4.16-8.87.51-1.68.27-4.35-.78-5.61-2.28-2.72-3.49-5.67-4.18-8.79l1.77-.4c.51 2.46 1.66 4.85 3.77 6.85 2.83 2.69 3.54 6.22 1.52 9.93-1.51 2.77-3.06 5.51-4.45 8.33-1.04 2.12-2.94 4.13.32 6.43 1.89 1.33 4.28 3.95 4.11 5.78-.5 5.34 2.73 10.32.92 15.79-.38 1.16.33 3.06-.5 4.73-.25.5.97 2.46 1.74 2.62 3.85.8 4.44 3.18 3.86 6.87l-.04.31c-4.39-1.41-7.3-4.43-10.42-7.34.37 1.4 1.63 2.59 1.55 3.7-.26 3.61 1.97 4.99 4.58 6.43.78.43 1.28 1.61 1.65 2.55.55 1.42.58 3.12 1.36 4.36.57.85 1.16 1.68 1.77 2.5zM212.43 327.51l-.75 2.06c-4-1.47-7.99-3.05-11.98-4.72 2.65 7.66 4.49 14.54 4.2 21.99-.05 1.39.03 2.8.32 4.17l-1.77.4c-.64-2.81-.86-5.73-1.07-8.74-.38-5.2-1.83-10.34-3.12-15.42-.14-.55-2.53-1.04-3.61-.71-1.83.56-3.38 2.08-5.22 2.65-1.03.32-2.62-.19-3.52-.89-.41-.32.16-2.01.41-3.04.16-.62.92-1.27.8-1.75-.6-2.32-1.19-4.66-2.19-6.71l2.16-.32c8.29 4.17 16.74 7.84 25.34 11.03zm-22.95-.83c2-1.08 4.07-2.21 6.29-3.4-2.41-1.11-4.61-2.1-6.94-3.16l.65 6.56zM203.54 266.77l1.82 1.05c-8.03 13.96-16.07 27.9-24.11 41.87.31.14.7.22.92.45 1.8 2.02 7.67.73 4.9 6.34l-2.16.32c-1.29-2.65-3.25-4.82-6.72-5.91v-.75c5.88-9.99 11.79-19.96 17.62-29.98 2.59-4.46 5.17-8.93 7.73-13.39zM196.48 376.47c.62.38 1.14 2.06.81 2.67-.92 1.71-2.3 3.19-3.39 4.62.26 4.72 3.2 9.34.85 14.14l-1.13.22c-.38-1.07-.71-2.16-1.15-3.19-.74-1.74-1.35-3.59-2.39-5.15-1.38-2.05-2.59-12.02-1.36-14.19.47-.85 1.18-1.56 1.44-1.89 2.53 1.07 4.55 1.71 6.32 2.77z"/><path class="st1" d="M195.77 323.27l-6.29 3.4-.65-6.57c2.33 1.07 4.53 2.07 6.94 3.17z"/></svg>